<svg xmlns="http://www.w3.org/2000/svg"
     version="1.1" width="1500" height="1500" viewBox="0 0 1500 1500">
    <rect width="1500" height="1500" fill="#ffffff"></rect>
    <g transform="matrix(0.6666666666666666,0,0,0.6666666666666666,249.39393939393943,694.5565512637517)">
        <svg viewBox="0 0 396 44" data-background-color="#ffffff" preserveAspectRatio="xMidYMid meet"
             height="166" width="1500" xmlns="http://www.w3.org/2000/svg">
            <g id="tight-bounds" transform="matrix(1,0,0,1,0.2400000000000091,0.0437808228457186)">
                <svg viewBox="0 0 395.52 43.912438354308556" height="43.912438354308556" width="395.52">
                    <g>
                        <svg viewBox="0 0 467.0386945142615 51.852770737091056" height="43.912438354308556"
                             width="395.52">
                            <g>
                                <rect width="3.383600851758518" height="37.707695072920764" x="59.27749980973204"
                                      y="7.072537832085146" fill="#1c4b82" opacity="1" stroke-width="0"
                                      stroke="transparent" fill-opacity="1" class="rect-qz-0"
                                      data-fill-palette-color="primary" rx="1%" id="qz-0"
                                      data-palette-color="#1c4b82"></rect>
                            </g>
                            <g transform="matrix(1,0,0,1,71.51869451426154,7.166338068584945)">
                                <svg viewBox="0 0 395.52 37.520094599921165" height="37.520094599921165" width="395.52">
                                    <g id="textblocktransform">
                                        <svg viewBox="0 0 395.52 37.520094599921165" height="37.520094599921165"
                                             width="395.52" id="textblock">
                                            <g>
                                                <svg viewBox="0 0 395.52 37.520094599921165" height="37.520094599921165"
                                                     width="395.52">
                                                    <g transform="matrix(1,0,0,1,0,0)">
                                                        <svg width="395.52" viewBox="0.8 -35.5 383.38 36.1"
                                                             height="37.520094599921165" data-palette-color="#1c4b82">
                                                            <g class="wordmark-text-0" data-fill-palette-color="primary"
                                                               id="text-0">
                                                                <path
                                                                    d="M21.6-9.8L21.6-9.8Q21.6-5 17.95-2.2 14.3 0.6 9.1 0.6L9.1 0.6Q5.6 0.6 3.33-1.18 1.05-2.95 0.8-4.2L0.8-4.2Q1.35-5.85 3.15-7.9 4.95-9.95 6.4-10.4L6.4-10.4Q8.95-8.75 11.15-3.05L11.15-3.05Q14.4-3.15 14.4-6.6L14.4-6.6Q14.4-8.5 12.88-11.28 11.35-14.05 9.55-16.48 7.75-18.9 6.23-21.93 4.7-24.95 4.7-27.3L4.7-27.3Q4.7-31.1 7.78-33.3 10.85-35.5 14.7-35.5 18.55-35.5 20.68-33.85 22.8-32.2 22.8-30.1 22.8-28 21.2-25.8 19.6-23.6 18-22.3L18-22.3 16.4-21Q17-20.2 17.85-18.95 18.7-17.7 20.15-14.7 21.6-11.7 21.6-9.8ZM17.78-26.2Q18.45-26.85 19-27.78 19.55-28.7 19.55-29.73 19.55-30.75 18.35-31.45 17.15-32.15 15.48-32.15 13.8-32.15 12.68-31.38 11.55-30.6 11.55-29.53 11.55-28.45 12.28-27.03 13-25.6 13.7-24.65L13.7-24.65 14.45-23.7Q14.95-23.95 16.03-24.75 17.1-25.55 17.78-26.2ZM33.6-5.1L33.6-5.1Q33.6-4 34.15-4L34.15-4Q34.45-4 37.05-5.3L37.05-5.3 38-3.45Q33.5 0.6 30.05 0.6L30.05 0.6Q27.9 0.6 26.77-0.85 25.65-2.3 25.65-4.45 25.65-6.6 28.07-16.23 30.5-25.85 30.75-29.45L30.75-29.45Q30.75-30.25 30.22-31.38 29.7-32.5 29.15-33.2L29.15-33.2 28.65-33.9 28.8-34.65Q31.65-35.5 38.2-35.5L38.2-35.5Q38.8-34.35 38.8-32.18 38.8-30 36.2-19.6 33.6-9.2 33.6-5.1ZM78.92 0.6Q77.05 0.6 75.9-0.73 74.75-2.05 74.75-4.33 74.75-6.6 76.82-15.65 78.9-24.7 78.9-27.2 78.9-29.7 76.95-29.7L76.95-29.7Q74.25-29.7 71-27.3L71-27.3Q70.65-24.6 68.95-17.88 67.25-11.15 66.67-7.93 66.09-4.7 66.09-2.95 66.09-1.2 66.15-0.8L66.15-0.8Q64.2 0.2 59.2 0.2L59.2 0.2 58.25 0.2Q58.25-4 60.6-14.1L60.6-14.1Q63-24.4 63-27.05 63-29.7 61.15-29.7L61.15-29.7Q58.45-29.7 54.85-27.1L54.85-27.1Q54.3-24.35 52.8-18.15L52.8-18.15Q49.45-3.95 49.45-0.8L49.45-0.8Q47.5 0.2 42.55 0.2L42.55 0.2 41.6 0.2Q41.8-2.05 44.25-13.03 46.7-24 47.3-29.45L47.3-29.45Q47.3-30.25 46.77-31.38 46.25-32.5 45.7-33.2L45.7-33.2 45.2-33.9 45.35-34.65Q48.15-35.5 55-35.5L55-35.5Q55.65-34.3 55.65-32.45L55.65-32.45Q55.65-32.05 55.45-30.35L55.45-30.35Q61.2-35.5 65.75-35.5L65.75-35.5Q67.8-35.5 69.2-34.1 70.59-32.7 71-30.45L71-30.45Q76.95-35.5 81.09-35.5L81.09-35.5Q83.7-35.5 85.3-33.8 86.9-32.1 86.9-29.05 86.9-26 84.77-17.43 82.65-8.85 82.65-5.45L82.65-5.45Q82.65-4 83.15-4L83.15-4Q83.59-4 85.59-5L85.59-5 86.3-5.3 87.3-3.45Q85.15-1.6 82.97-0.5 80.8 0.6 78.92 0.6ZM50.75-19.25L50.8-19.5Q50.75-19.4 50.75-19.25L50.75-19.25ZM103.24 0.6L103.24 0.6Q100.34 0.6 97.24-0.35L97.24-0.35Q94.64 0.3 92.72 0.3 90.79 0.3 90.09 0.2L90.09 0.2Q90.44-2.75 93.12-14.78 95.79-26.8 95.79-28.43 95.79-30.05 95.12-31.25 94.44-32.45 93.79-33L93.79-33 93.09-33.55 93.24-34.3Q94.54-34.65 98.57-35.08 102.59-35.5 105.59-35.5L105.59-35.5Q112.54-35.5 116.12-32.43 119.69-29.35 119.69-22.45L119.69-22.45Q119.69-16.8 117.82-11.63 115.94-6.45 112.09-2.93 108.24 0.6 103.24 0.6ZM106.79-32.35L106.79-32.35Q105.49-32.35 103.84-32.05L103.84-32.05Q103.34-26.75 101.02-16.57 98.69-6.4 98.29-3.6L98.29-3.6Q99.49-3 101.59-3 103.69-3 105.57-4.67 107.44-6.35 108.59-8.85 109.74-11.35 110.59-14.45L110.59-14.45Q112.04-20 112.04-24.55 112.04-29.1 110.84-30.73 109.64-32.35 106.79-32.35ZM122.94-0.65L122.94-0.65Q122.59 0.45 121.37 0.45 120.14 0.45 118.59-0.9L118.59-0.9Q120.09-5.3 124.94-15.08 129.79-24.85 131.24-29.7L131.24-29.7Q131.44-30.5 131.44-30.8L131.44-30.8Q131.44-31.55 130.34-33.1L130.34-33.1 129.94-33.65 130.04-34.3Q134.29-35.5 139.44-35.5L139.44-35.5 142.49-35.3Q143.04-34.55 143.34-33L143.34-33Q144.14-29.2 144.14-13.45L144.14-13.45Q144.14-7.35 145.19-4.85L145.19-4.85Q145.59-3.9 145.99-3.9 146.39-3.9 148.44-4.9L148.44-4.9 149.09-5.2 150.09-3.4Q148.19-1.55 145.87-0.48 143.54 0.6 141.59 0.6L141.59 0.6Q136.54 0.6 136.54-7.25L136.54-7.25 136.54-11.2Q135.24-11.5 132.59-11.5 129.94-11.5 126.79-11L126.79-11Q124.29-5.2 122.94-0.65ZM128.39-14.6L136.64-14.6 136.69-20.4Q136.69-28 136.04-30.7L136.04-30.7Q135.64-30.7 135.44-30.6L135.44-30.6Q134.04-26.75 132.82-24.08 131.59-21.4 130.17-18.38 128.74-15.35 128.39-14.6L128.39-14.6ZM155.54-35.5L155.54-35.5 172.24-34.95 176.94-35.05Q177.09-34 177.09-32.85 177.09-31.7 176.69-31.2 176.29-30.7 175.24-30.7L175.24-30.7Q175.14-30.7 168.19-31.35L168.19-31.35Q167.99-29.1 166.69-23.65 165.39-18.2 164.19-12 162.99-5.8 162.94-0.85L162.94-0.85Q160.99 0.15 154.94 0.15L154.94 0.15 154.59 0.15Q154.59-2.45 157.44-15.35 160.29-28.25 160.29-31.05L160.29-31.05Q160.29-31.25 160.19-31.75L160.19-31.75 158.19-31.75Q154.09-31.75 151.89-30.5L151.89-30.5Q150.74-32 150.49-34.9L150.49-34.9Q152.19-35.5 155.54-35.5ZM176.69-0.65L176.69-0.65Q176.34 0.45 175.11 0.45 173.89 0.45 172.34-0.9L172.34-0.9Q173.84-5.3 178.69-15.08 183.54-24.85 184.99-29.7L184.99-29.7Q185.19-30.5 185.19-30.8L185.19-30.8Q185.19-31.55 184.09-33.1L184.09-33.1 183.69-33.65 183.79-34.3Q188.04-35.5 193.19-35.5L193.19-35.5 196.24-35.3Q196.79-34.55 197.09-33L197.09-33Q197.89-29.2 197.89-13.45L197.89-13.45Q197.89-7.35 198.94-4.85L198.94-4.85Q199.34-3.9 199.74-3.9 200.14-3.9 202.19-4.9L202.19-4.9 202.84-5.2 203.84-3.4Q201.94-1.55 199.61-0.48 197.29 0.6 195.34 0.6L195.34 0.6Q190.29 0.6 190.29-7.25L190.29-7.25 190.29-11.2Q188.99-11.5 186.34-11.5 183.69-11.5 180.54-11L180.54-11Q178.04-5.2 176.69-0.65ZM182.14-14.6L190.39-14.6 190.44-20.4Q190.44-28 189.79-30.7L189.79-30.7Q189.39-30.7 189.19-30.6L189.19-30.6Q187.79-26.75 186.56-24.08 185.34-21.4 183.91-18.38 182.49-15.35 182.14-14.6L182.14-14.6Z"
                                                                    fill="#1c4b82"
                                                                    data-fill-palette-color="primary"></path>
                                                                <path
                                                                    d="M217.34 0.25L217.34 0.25Q216.39 0.25 216.04 0.2L216.04 0.2Q216.39-2.7 219.11-14.53 221.84-26.35 221.84-29.5L221.84-29.5Q221.84-30.1 221.14-31.08 220.44-32.05 219.74-32.7L219.74-32.7 219.09-33.4 219.24-34.2Q226.09-35.5 233.74-35.5L233.74-35.5Q242.94-35.5 242.94-28.25L242.94-28.25Q242.94-24.7 241.16-21.78 239.39-18.85 235.64-17.2L235.64-17.2Q238.44-7.85 240.44-5.1L240.44-5.1Q241.34-3.95 241.84-3.95L241.84-3.95Q242.74-3.95 244.64-4.85L244.64-4.85 245.24-5.15 246.39-3.3Q244.54-1.6 242.11-0.5 239.69 0.6 237.56 0.6 235.44 0.6 234.06-1.23 232.69-3.05 231.56-6.6 230.44-10.15 229.29-15.7L229.29-15.7Q227.69-15.6 226.84-15.6L226.84-15.6Q224.29-4.65 224.04-0.8L224.04-0.8Q221.89 0.25 217.34 0.25ZM227.59-19L228.79-19Q231.79-19 233.51-21.68 235.24-24.35 235.24-28.05L235.24-28.05Q235.24-30 234.54-31.2 233.84-32.4 232.44-32.4L232.44-32.4Q231.84-32.4 231.01-32.23 230.19-32.05 230.19-32L230.19-32Q229.39-26.85 227.59-19L227.59-19ZM248.49-0.65L248.49-0.65Q248.14 0.45 246.91 0.45 245.69 0.45 244.14-0.9L244.14-0.9Q245.64-5.3 250.49-15.08 255.34-24.85 256.79-29.7L256.79-29.7Q256.99-30.5 256.99-30.8L256.99-30.8Q256.99-31.55 255.89-33.1L255.89-33.1 255.49-33.65 255.59-34.3Q259.84-35.5 264.99-35.5L264.99-35.5 268.04-35.3Q268.59-34.55 268.89-33L268.89-33Q269.68-29.2 269.68-13.45L269.68-13.45Q269.68-7.35 270.74-4.85L270.74-4.85Q271.14-3.9 271.54-3.9 271.93-3.9 273.99-4.9L273.99-4.9 274.64-5.2 275.64-3.4Q273.74-1.55 271.41-0.48 269.09 0.6 267.14 0.6L267.14 0.6Q262.09 0.6 262.09-7.25L262.09-7.25 262.09-11.2Q260.79-11.5 258.14-11.5 255.49-11.5 252.34-11L252.34-11Q249.84-5.2 248.49-0.65ZM253.94-14.6L262.18-14.6 262.24-20.4Q262.24-28 261.59-30.7L261.59-30.7Q261.19-30.7 260.99-30.6L260.99-30.6Q259.59-26.75 258.36-24.08 257.14-21.4 255.71-18.38 254.29-15.35 253.94-14.6L253.94-14.6ZM295.88-9.8L295.88-9.8Q295.88-5 292.23-2.2 288.58 0.6 283.38 0.6L283.38 0.6Q279.88 0.6 277.61-1.18 275.33-2.95 275.08-4.2L275.08-4.2Q275.63-5.85 277.43-7.9 279.23-9.95 280.68-10.4L280.68-10.4Q283.23-8.75 285.43-3.05L285.43-3.05Q288.68-3.15 288.68-6.6L288.68-6.6Q288.68-8.5 287.16-11.28 285.63-14.05 283.83-16.48 282.03-18.9 280.51-21.93 278.98-24.95 278.98-27.3L278.98-27.3Q278.98-31.1 282.06-33.3 285.13-35.5 288.98-35.5 292.83-35.5 294.96-33.85 297.08-32.2 297.08-30.1 297.08-28 295.48-25.8 293.88-23.6 292.28-22.3L292.28-22.3 290.68-21Q291.28-20.2 292.13-18.95 292.98-17.7 294.43-14.7 295.88-11.7 295.88-9.8ZM292.06-26.2Q292.73-26.85 293.28-27.78 293.83-28.7 293.83-29.73 293.83-30.75 292.63-31.45 291.43-32.15 289.76-32.15 288.08-32.15 286.96-31.38 285.83-30.6 285.83-29.53 285.83-28.45 286.56-27.03 287.28-25.6 287.98-24.65L287.98-24.65 288.73-23.7Q289.23-23.95 290.31-24.75 291.38-25.55 292.06-26.2ZM304.23-35.5L304.23-35.5 320.93-34.95 325.63-35.05Q325.78-34 325.78-32.85 325.78-31.7 325.38-31.2 324.98-30.7 323.93-30.7L323.93-30.7Q323.83-30.7 316.88-31.35L316.88-31.35Q316.68-29.1 315.38-23.65 314.08-18.2 312.88-12 311.68-5.8 311.63-0.85L311.63-0.85Q309.68 0.15 303.63 0.15L303.63 0.15 303.28 0.15Q303.28-2.45 306.13-15.35 308.98-28.25 308.98-31.05L308.98-31.05Q308.98-31.25 308.88-31.75L308.88-31.75 306.88-31.75Q302.78-31.75 300.58-30.5L300.58-30.5Q299.43-32 299.18-34.9L299.18-34.9Q300.88-35.5 304.23-35.5ZM325.88 0.25L325.88 0.25Q324.93 0.25 324.58 0.2L324.58 0.2Q324.93-2.7 327.65-14.53 330.38-26.35 330.38-29.5L330.38-29.5Q330.38-30.1 329.68-31.08 328.98-32.05 328.28-32.7L328.28-32.7 327.63-33.4 327.78-34.2Q334.63-35.5 342.28-35.5L342.28-35.5Q351.48-35.5 351.48-28.25L351.48-28.25Q351.48-24.7 349.7-21.78 347.93-18.85 344.18-17.2L344.18-17.2Q346.98-7.85 348.98-5.1L348.98-5.1Q349.88-3.95 350.38-3.95L350.38-3.95Q351.28-3.95 353.18-4.85L353.18-4.85 353.78-5.15 354.93-3.3Q353.08-1.6 350.65-0.5 348.23 0.6 346.1 0.6 343.98 0.6 342.6-1.23 341.23-3.05 340.1-6.6 338.98-10.15 337.83-15.7L337.83-15.7Q336.23-15.6 335.38-15.6L335.38-15.6Q332.83-4.65 332.58-0.8L332.58-0.8Q330.43 0.25 325.88 0.25ZM336.13-19L337.33-19Q340.33-19 342.05-21.68 343.78-24.35 343.78-28.05L343.78-28.05Q343.78-30 343.08-31.2 342.38-32.4 340.98-32.4L340.98-32.4Q340.38-32.4 339.55-32.23 338.73-32.05 338.73-32L338.73-32Q337.93-26.85 336.13-19L336.13-19ZM357.03-0.65L357.03-0.65Q356.68 0.45 355.45 0.45 354.23 0.45 352.68-0.9L352.68-0.9Q354.18-5.3 359.03-15.08 363.88-24.85 365.33-29.7L365.33-29.7Q365.53-30.5 365.53-30.8L365.53-30.8Q365.53-31.55 364.43-33.1L364.43-33.1 364.03-33.65 364.13-34.3Q368.38-35.5 373.53-35.5L373.53-35.5 376.58-35.3Q377.13-34.55 377.43-33L377.43-33Q378.23-29.2 378.23-13.45L378.23-13.45Q378.23-7.35 379.28-4.85L379.28-4.85Q379.68-3.9 380.08-3.9 380.48-3.9 382.53-4.9L382.53-4.9 383.18-5.2 384.18-3.4Q382.28-1.55 379.95-0.48 377.63 0.6 375.68 0.6L375.68 0.6Q370.63 0.6 370.63-7.25L370.63-7.25 370.63-11.2Q369.33-11.5 366.68-11.5 364.03-11.5 360.88-11L360.88-11Q358.38-5.2 357.03-0.65ZM362.48-14.6L370.73-14.6 370.78-20.4Q370.78-28 370.13-30.7L370.13-30.7Q369.73-30.7 369.53-30.6L369.53-30.6Q368.13-26.75 366.9-24.08 365.68-21.4 364.25-18.38 362.83-15.35 362.48-14.6L362.48-14.6Z"
                                                                    fill="#1c4b82"
                                                                    data-fill-palette-color="primary"></path>
                                                            </g>
                                                        </svg>
                                                    </g>
                                                </svg>
                                            </g>
                                        </svg>
                                    </g>
                                </svg>
                            </g>
                            <g>
                                <svg viewBox="0 0 50.41990595696105 51.852770737091056" height="51.852770737091056"
                                     width="50.41990595696105">
                                    <g>
                                        <svg xmlns="http://www.w3.org/2000/svg" version="1.1" x="0" y="0"
                                             viewBox="6.2429999999999986 5 87.51300020464566 89.99999999999999"
                                             enable-background="new 0 0 100 100" xml:space="preserve"
                                             height="51.852770737091056" width="50.41990595696105" class="icon-icon-0"
                                             data-fill-palette-color="accent" id="icon-0"><g fill="#1c4b82" data-fill-palette-color="accent"><rect x="44.882" y="47.958" width="37.808" height="3.55" fill="#1c4b82" data-fill-palette-color="accent"></rect><rect
                                            x="44.882" y="54.529" width="37.808" height="3.548" fill="#1c4b82"
                                            data-fill-palette-color="accent"></rect><rect x="44.882" y="61.805"
                                                                                          width="37.808" height="3.551"
                                                                                          fill="#1c4b82"
                                                                                          data-fill-palette-color="accent"></rect><rect
                                            x="79.145" y="15.918" width="3.546" height="22.013" fill="#1c4b82"
                                            data-fill-palette-color="accent"></rect><rect x="71.157" y="24.438"
                                                                                          width="3.546" height="13.493"
                                                                                          fill="#1c4b82"
                                                                                          data-fill-palette-color="accent"></rect><rect
                                            x="63.169" y="32.426" width="3.546" height="5.505" fill="#1c4b82"
                                            data-fill-palette-color="accent"></rect><path
                                            d="M46.806 16.112v10.01h10.008C56.309 20.812 52.115 16.624 46.806 16.112z"
                                            fill="#1c4b82" data-fill-palette-color="accent"></path><path
                                            d="M56.814 28.253H46.271l-7.566 7.564c1.926 1.572 4.354 2.555 7.036 2.555C51.553 38.372 56.273 33.924 56.814 28.253z"
                                            fill="#1c4b82" data-fill-palette-color="accent"></path><path
                                            d="M44.675 16.112c-5.671 0.544-10.117 5.265-10.117 11.075 0 2.728 1.013 5.193 2.634 7.134l7.483-7.486V16.112z"
                                            fill="#1c4b82" data-fill-palette-color="accent"></path><path
                                            d="M85.586 5H31.63c-4.502 0-8.169 3.667-8.169 8.169v37.813c0.031 0 0.059-0.004 0.09-0.004 0.495 0 0.982 0.031 1.466 0.074-0.484-0.04-0.971-0.074-1.466-0.074-9.558 0-17.308 7.748-17.308 17.307 0 9.559 7.75 17.308 17.308 17.308 0.494 0 0.979-0.033 1.462-0.074-0.482 0.044-0.968 0.074-1.462 0.074-0.031 0-0.059-0.004-0.09-0.004v1.242c0 4.503 3.667 8.169 8.169 8.169h38.339c1.777 0 3.45-0.662 5.275-2.194 1.826-1.533 14.866-14.862 16.198-16.509 1.961-2.421 2.314-3.841 2.314-6.148V13.169C93.757 8.667 90.093 5 85.586 5zM26.362 51.227c-0.259-0.043-0.517-0.089-0.779-0.119C25.845 51.14 26.104 51.183 26.362 51.227zM19.95 77.19l-7.446-7.446 4.518-4.518 3.024 3.024 10.431-9.997 4.424 4.614L19.95 77.19zM25.587 85.463c0.246-0.029 0.488-0.072 0.731-0.111C26.076 85.392 25.833 85.432 25.587 85.463zM31.63 90.74c-2.155 0-3.909-1.754-3.909-3.909v-1.765c-0.006 0.001-0.012 0.002-0.017 0.004 7.549-1.863 13.154-8.661 13.154-16.785 0-8.129-5.61-14.929-13.165-16.787 0.009 0.002 0.019 0.004 0.028 0.006V13.169c0-2.155 1.753-3.909 3.909-3.909h53.956c2.157 0 3.909 1.753 3.909 3.909l0.018 58.235c-0.097 0.406-0.431 1.016-0.938 1.766h-10.08c-3.333 0-6.04 2.704-6.04 6.038v10.538c-0.722 0.521-1.312 0.87-1.721 0.994H31.63z"
                                            fill="#1c4b82" data-fill-palette-color="accent"></path></g></svg>
                                    </g>
                                </svg>
                            </g>
                        </svg>
                    </g>
                    <defs></defs>
                </svg>
                <rect width="395.52" height="43.912438354308556" fill="none" stroke="none" visibility="hidden"></rect>
            </g>
        </svg>
    </g>
</svg>
