<svg xmlns:xlink="http://www.w3.org/1999/xlink" xmlns:svgjs="http://svgjs.dev/svgjs" xmlns="http://www.w3.org/2000/svg"
     version="1.1" width="1500" height="1500" viewBox="0 0 1500 1500">
    <rect width="1500" height="1500" fill="#000000"></rect>
    <g transform="matrix(0.6666666666666666,0,0,0.6666666666666666,249.39393939393938,673.9158592597676)">
        <svg xmlns:xlink="http://www.w3.org/1999/xlink" viewBox="0 0 396 60" data-background-color="#ffffff" preserveAspectRatio="xMidYMid meet"
             height="227" width="1500" xmlns="http://www.w3.org/2000/svg">
            <g id="tight-bounds" transform="matrix(1,0,0,1,0.2400000000000091,0.1655183551582411)">
                <svg viewBox="0 0 395.52 59.668963289683525" height="59.668963289683525" width="395.52">
                    <g>
                        <svg viewBox="0 0 493.6423793150124 74.47190789234301" height="59.668963289683525"
                             width="395.52">
                            <g>
                                <rect width="3.852230797294554" height="74.47190789234301" x="84.18577470281069" y="0"
                                      fill="#ffffff" opacity="1" stroke-width="0" stroke="transparent" fill-opacity="1"
                                      class="rect-qz-0" data-fill-palette-color="primary" rx="1%" id="qz-0"
                                      data-palette-color="#1c4b82"></rect>
                            </g>
                            <g transform="matrix(1,0,0,1,98.12237931501245,0.18525350221975145)">
                                <svg viewBox="0 0 395.52 74.10140088790351" height="74.10140088790351" width="395.52">
                                    <g id="textblocktransform">
                                        <svg viewBox="0 0 395.52 74.10140088790351" height="74.10140088790351"
                                             width="395.52" id="textblock">
                                            <g>
                                                <svg viewBox="0 0 395.52 42.71664131426832" height="42.71664131426832"
                                                     width="395.52">
                                                    <g transform="matrix(1,0,0,1,0,0)">
                                                        <svg width="395.52" viewBox="2.05 -35 332.46 35.5"
                                                             height="42.71664131426832" data-palette-color="#1c4b82">
                                                            <g class="wordmark-text-0" data-fill-palette-color="primary"
                                                               id="text-0">
                                                                <path
                                                                    d="M2.05 0L2.05-35 10.2-35Q14.45-35 16.4-33.02 18.35-31.05 18.35-26.95L18.35-26.95 18.35-24.8Q18.35-19.35 14.75-17.9L14.75-17.9 14.75-17.8Q16.75-17.2 17.57-15.35 18.4-13.5 18.4-10.4L18.4-10.4 18.4-4.25Q18.4-2.75 18.5-1.83 18.6-0.9 19 0L19 0 13.4 0Q13.1-0.85 13-1.6 12.9-2.35 12.9-4.3L12.9-4.3 12.9-10.7Q12.9-13.1 12.13-14.05 11.35-15 9.45-15L9.45-15 7.55-15 7.55 0 2.05 0ZM7.55-20L9.55-20Q11.2-20 12.03-20.85 12.85-21.7 12.85-23.7L12.85-23.7 12.85-26.4Q12.85-28.3 12.18-29.15 11.5-30 10.05-30L10.05-30 7.55-30 7.55-20ZM30.2 0.5Q26.2 0.5 24.1-1.78 22-4.05 22-8.3L22-8.3 22-35 27.5-35 27.5-7.9Q27.5-6.1 28.22-5.3 28.95-4.5 30.3-4.5L30.3-4.5Q31.65-4.5 32.37-5.3 33.1-6.1 33.1-7.9L33.1-7.9 33.1-35 38.4-35 38.4-8.3Q38.4-4.05 36.3-1.78 34.2 0.5 30.2 0.5L30.2 0.5ZM42.3 0L42.3-35 50.15-35 53.65-9.95 53.75-9.95 57.25-35 65.09-35 65.09 0 59.9 0 59.9-26.5 59.8-26.5 55.8 0 51.2 0 47.2-26.5 47.1-26.5 47.1 0 42.3 0ZM67.74 0L73.44-35 80.89-35 86.59 0 81.09 0 80.09-6.95 80.09-6.85 73.84-6.85 72.84 0 67.74 0ZM74.49-11.6L79.44-11.6 76.99-28.9 76.89-28.9 74.49-11.6ZM89.24 0L89.24-35 94.74-35 94.74-20.75 100.64-20.75 100.64-35 106.14-35 106.14 0 100.64 0 100.64-15.75 94.74-15.75 94.74 0 89.24 0Z"
                                                                    fill="#ffffff"
                                                                    data-fill-palette-color="primary"></path>
                                                                <path
                                                                    d="M116.19 0L116.19-35 124.59-35Q128.69-35 130.74-32.8 132.79-30.6 132.79-26.35L132.79-26.35 132.79-8.65Q132.79-4.4 130.74-2.2 128.69 0 124.59 0L124.59 0 116.19 0ZM121.69-5L124.49-5Q125.84-5 126.56-5.8 127.29-6.6 127.29-8.4L127.29-8.4 127.29-26.6Q127.29-28.4 126.56-29.2 125.84-30 124.49-30L124.49-30 121.69-30 121.69-5ZM135.03 0L140.73-35 148.19-35 153.89 0 148.38 0 147.38-6.95 147.38-6.85 141.13-6.85 140.13 0 135.03 0ZM141.78-11.6L146.73-11.6 144.28-28.9 144.19-28.9 141.78-11.6ZM160.83 0L160.83-30 155.08-30 155.08-35 172.08-35 172.08-30 166.33-30 166.33 0 160.83 0ZM173.28 0L178.98-35 186.43-35 192.13 0 186.63 0 185.63-6.95 185.63-6.85 179.38-6.85 178.38 0 173.28 0ZM180.03-11.6L184.98-11.6 182.53-28.9 182.43-28.9 180.03-11.6Z"
                                                                    fill="#ffffff"
                                                                    data-fill-palette-color="primary"></path>
                                                                <path
                                                                    d="M206.48 0L206.48-30 200.73-30 200.73-35 217.73-35 217.73-30 211.98-30 211.98 0 206.48 0ZM220.37 0L220.37-35 235.37-35 235.37-30 225.87-30 225.87-20.75 233.43-20.75 233.43-15.75 225.87-15.75 225.87-5 235.37-5 235.37 0 220.37 0ZM238.52 0L238.52-35 246.67-35Q250.92-35 252.87-33.02 254.82-31.05 254.82-26.95L254.82-26.95 254.82-24.8Q254.82-19.35 251.22-17.9L251.22-17.9 251.22-17.8Q253.22-17.2 254.05-15.35 254.87-13.5 254.87-10.4L254.87-10.4 254.87-4.25Q254.87-2.75 254.97-1.83 255.07-0.9 255.47 0L255.47 0 249.87 0Q249.57-0.85 249.47-1.6 249.37-2.35 249.37-4.3L249.37-4.3 249.37-10.7Q249.37-13.1 248.6-14.05 247.82-15 245.92-15L245.92-15 244.02-15 244.02 0 238.52 0ZM244.02-20L246.02-20Q247.67-20 248.5-20.85 249.32-21.7 249.32-23.7L249.32-23.7 249.32-26.4Q249.32-28.3 248.65-29.15 247.97-30 246.52-30L246.52-30 244.02-30 244.02-20ZM258.67 0L258.67-35 266.77-35Q270.87-35 272.92-32.8 274.97-30.6 274.97-26.35L274.97-26.35 274.97-22.9Q274.97-18.65 272.92-16.45 270.87-14.25 266.77-14.25L266.77-14.25 264.17-14.25 264.17 0 258.67 0ZM264.17-19.25L266.77-19.25Q268.12-19.25 268.8-20 269.47-20.75 269.47-22.55L269.47-22.55 269.47-26.7Q269.47-28.5 268.8-29.25 268.12-30 266.77-30L266.77-30 264.17-30 264.17-19.25ZM276.52 0L282.22-35 289.67-35 295.37 0 289.87 0 288.87-6.95 288.87-6.85 282.62-6.85 281.62 0 276.52 0ZM283.27-11.6L288.22-11.6 285.77-28.9 285.67-28.9 283.27-11.6ZM298.02 0L298.02-35 306.42-35Q310.52-35 312.57-32.8 314.62-30.6 314.62-26.35L314.62-26.35 314.62-8.65Q314.62-4.4 312.57-2.2 310.52 0 306.42 0L306.42 0 298.02 0ZM303.52-5L306.32-5Q307.67-5 308.39-5.8 309.12-6.6 309.12-8.4L309.12-8.4 309.12-26.6Q309.12-28.4 308.39-29.2 307.67-30 306.32-30L306.32-30 303.52-30 303.52-5ZM326.31 0.5Q322.31 0.5 320.21-1.78 318.11-4.05 318.11-8.3L318.11-8.3 318.11-35 323.61-35 323.61-7.9Q323.61-6.1 324.34-5.3 325.06-4.5 326.41-4.5L326.41-4.5Q327.76-4.5 328.49-5.3 329.21-6.1 329.21-7.9L329.21-7.9 329.21-35 334.51-35 334.51-8.3Q334.51-4.05 332.41-1.78 330.31 0.5 326.31 0.5L326.31 0.5Z"
                                                                    fill="#ffffff"
                                                                    data-fill-palette-color="primary"></path>
                                                            </g>
                                                        </svg>
                                                    </g>
                                                </svg>
                                            </g>
                                            <g transform="matrix(1,0,0,1,0,52.80101512917553)">
                                                <svg viewBox="0 0 375.74399999999997 21.30038575872797"
                                                     height="21.30038575872797" width="375.74399999999997">
                                                    <g transform="matrix(1,0,0,1,0,0)">
                                                        <svg width="375.74399999999997"
                                                             viewBox="4.65 -32.35 578.5400000000001 32.800000000000004"
                                                             height="21.30038575872797" data-palette-color="#1c4b82">
                                                            <path
                                                                d="M16.25-32.25Q23.1-32.25 26.75-28.35 30.4-24.45 30.4-17.15L30.4-17.15Q30.4-8.7 26.45-4.2 22.5 0.3 15.1 0.3L15.1 0.3Q13.05 0.3 10.13 0.23 7.2 0.15 4.7 0L4.7 0 4.65 0 4.9-9.65 4.65-32.05 4.7-32.05 16.25-32.25ZM15.75-3.05Q20.85-3.05 23.58-6.38 26.3-9.7 26.3-16.3L26.3-16.3Q26.3-28.9 15.95-28.9L15.95-28.9Q12.8-28.9 8.7-28.7L8.7-28.7 8.5-10 8.65-3.35Q10.2-3.2 12.38-3.13 14.55-3.05 15.75-3.05L15.75-3.05ZM41.05-32.05L40.8-10 41 0 36.95 0 37.2-9.65 36.95-32.05 41.05-32.05ZM75.2-32.15L74.95-9.4 75.05 0 70.85 0 54.25-25.65 54-25.65 53.95-10.55 54 0 50.4 0 50.55-9.5 50.45-32.05 54.6-32.05 71.15-6.4 71.5-6.4 71.45-31.85 75.2-32.15ZM96.94-32.05L107.64 0 103.54 0 102.79-3.2 100.99-8.7 93.79-8.85 87.29-8.7 85.34-3.4 84.54 0 80.54 0 92.29-32.05 96.94-32.05ZM94.14-12L99.89-12.1 94.69-27.9 94.34-27.9 88.54-12.1 94.14-12ZM122.09-32.3Q125.54-32.3 129.24-30.8L129.24-30.8 128.59-26.95 127.89-26.75Q126.44-27.85 124.82-28.45 123.19-29.05 121.59-29.05L121.59-29.05Q119.74-29.05 118.37-28.3 116.99-27.55 116.27-26.35 115.54-25.15 115.54-23.85L115.54-23.85Q115.54-22.5 116.37-21.48 117.19-20.45 118.44-19.7 119.69-18.95 121.84-17.9L121.84-17.9Q124.54-16.65 126.19-15.58 127.84-14.5 129.02-12.85 130.19-11.2 130.19-8.85L130.19-8.85Q130.19-6.35 128.84-4.25 127.49-2.15 125.04-0.9 122.59 0.35 119.44 0.35L119.44 0.35Q117.34 0.35 115.07-0.23 112.79-0.8 110.84-1.9L110.84-1.9 111.34-6 111.89-6.25Q113.64-4.55 115.77-3.73 117.89-2.9 119.84-2.9L119.84-2.9Q121.74-2.9 123.22-3.65 124.69-4.4 125.47-5.65 126.24-6.9 126.24-8.3L126.24-8.3Q126.24-10.4 124.64-11.68 123.04-12.95 119.79-14.45L119.79-14.45Q117.14-15.75 115.54-16.78 113.94-17.8 112.79-19.43 111.64-21.05 111.64-23.4L111.64-23.4Q111.64-25.85 112.97-27.9 114.29-29.95 116.67-31.13 119.04-32.3 122.09-32.3L122.09-32.3ZM153.94-32.3Q157.39-32.3 161.09-30.8L161.09-30.8 160.44-26.95 159.74-26.75Q158.28-27.85 156.66-28.45 155.03-29.05 153.44-29.05L153.44-29.05Q151.59-29.05 150.21-28.3 148.84-27.55 148.11-26.35 147.39-25.15 147.39-23.85L147.39-23.85Q147.39-22.5 148.21-21.48 149.03-20.45 150.28-19.7 151.53-18.95 153.69-17.9L153.69-17.9Q156.39-16.65 158.03-15.58 159.69-14.5 160.86-12.85 162.04-11.2 162.04-8.85L162.04-8.85Q162.04-6.35 160.69-4.25 159.34-2.15 156.89-0.9 154.44 0.35 151.28 0.35L151.28 0.35Q149.19 0.35 146.91-0.23 144.64-0.8 142.69-1.9L142.69-1.9 143.19-6 143.74-6.25Q145.49-4.55 147.61-3.73 149.74-2.9 151.69-2.9L151.69-2.9Q153.59-2.9 155.06-3.65 156.53-4.4 157.31-5.65 158.09-6.9 158.09-8.3L158.09-8.3Q158.09-10.4 156.49-11.68 154.89-12.95 151.64-14.45L151.64-14.45Q148.99-15.75 147.39-16.78 145.78-17.8 144.64-19.43 143.49-21.05 143.49-23.4L143.49-23.4Q143.49-25.85 144.81-27.9 146.14-29.95 148.51-31.13 150.89-32.3 153.94-32.3L153.94-32.3ZM180.43-32.35Q187.03-32.35 190.56-28.3 194.08-24.25 194.08-16.65L194.08-16.65Q194.08-8.45 190.33-4.03 186.58 0.4 179.63 0.4L179.63 0.4Q173.13 0.4 169.61-3.8 166.08-8 166.08-15.75L166.08-15.75Q166.08-23.75 169.81-28.05 173.53-32.35 180.43-32.35L180.43-32.35ZM180.18-29.1Q170.18-29.1 170.18-16.2L170.18-16.2Q170.18-9.35 172.61-6.05 175.03-2.75 179.93-2.75L179.93-2.75Q189.93-2.75 189.93-15.9L189.93-15.9Q189.93-22.6 187.51-25.85 185.08-29.1 180.18-29.1L180.18-29.1ZM209.28-32.3Q212.73-32.3 216.43-30.8L216.43-30.8 215.78-26.95 215.08-26.75Q213.63-27.85 212-28.45 210.38-29.05 208.78-29.05L208.78-29.05Q206.93-29.05 205.56-28.3 204.18-27.55 203.46-26.35 202.73-25.15 202.73-23.85L202.73-23.85Q202.73-22.5 203.56-21.48 204.38-20.45 205.63-19.7 206.88-18.95 209.03-17.9L209.03-17.9Q211.73-16.65 213.38-15.58 215.03-14.5 216.21-12.85 217.38-11.2 217.38-8.85L217.38-8.85Q217.38-6.35 216.03-4.25 214.68-2.15 212.23-0.9 209.78 0.35 206.63 0.35L206.63 0.35Q204.53 0.35 202.25-0.23 199.98-0.8 198.03-1.9L198.03-1.9 198.53-6 199.08-6.25Q200.83-4.55 202.96-3.73 205.08-2.9 207.03-2.9L207.03-2.9Q208.93-2.9 210.41-3.65 211.88-4.4 212.66-5.65 213.43-6.9 213.43-8.3L213.43-8.3Q213.43-10.4 211.83-11.68 210.23-12.95 206.98-14.45L206.98-14.45Q204.33-15.75 202.73-16.78 201.13-17.8 199.98-19.43 198.83-21.05 198.83-23.4L198.83-23.4Q198.83-25.85 200.16-27.9 201.48-29.95 203.86-31.13 206.23-32.3 209.28-32.3L209.28-32.3ZM228.28-32.05L228.03-10 228.23 0 224.18 0 224.43-9.65 224.18-32.05 228.28-32.05ZM250.03-32.05L260.73 0 256.63 0 255.88-3.2 254.08-8.7 246.88-8.85 240.38-8.7 238.43-3.4 237.63 0 233.63 0 245.38-32.05 250.03-32.05ZM247.23-12L252.98-12.1 247.78-27.9 247.43-27.9 241.63-12.1 247.23-12ZM282.17-3.35L282.47-3 282.12 0 266.32 0 266.57-9.65 266.32-32.05 270.42-32.05 270.17-10 270.32-3.35 282.17-3.35ZM299.57-32.05L299.37-10 299.52 0 295.57 0 295.72-9.65 295.57-32.05 299.57-32.05ZM317.32-32.05L304.32-17Q310.97-8.4 318.22-0.85L318.22-0.85 318.17-0.35Q316.67 0.1 314.42 0.45L314.42 0.45 313.92 0.2Q306.02-8.75 300.12-16.8L300.12-16.8 300.12-17.1 310.82-29.25 312.82-32.05 317.32-32.05ZM335.27-32.05L345.97 0 341.87 0 341.12-3.2 339.31-8.7 332.12-8.85 325.62-8.7 323.67-3.4 322.87 0 318.87 0 330.62-32.05 335.27-32.05ZM332.47-12L338.22-12.1 333.02-27.9 332.67-27.9 326.87-12.1 332.47-12ZM365.16-16.7Q371.96-15.35 371.96-8.95L371.96-8.95Q371.96-4.4 368.66-2.1 365.36 0.2 358.81 0.2L358.81 0.2Q354.41 0.2 351.76 0L351.76 0 351.71 0 351.96-9.65 351.71-32.05 360.61-32.1Q365.11-32.1 367.54-30.1 369.96-28.1 369.96-24.3L369.96-24.3Q369.96-21.6 368.71-19.65 367.46-17.7 365.16-16.7L365.16-16.7ZM365.86-23.85Q365.86-26.45 364.44-27.63 363.01-28.8 359.81-28.8L359.81-28.8 355.76-28.8 355.66-18.05 361.16-17.9Q365.86-19 365.86-23.85L365.86-23.85ZM359.41-3.15Q363.51-3.15 365.71-4.7 367.91-6.25 367.91-9.15L367.91-9.15Q367.91-14.05 361.76-14.75L361.76-14.75 355.61-14.7 355.56-10 355.71-3.3Q357.66-3.15 359.41-3.15L359.41-3.15ZM377.66-4.4Q378.66-4.4 379.26-3.8 379.86-3.2 379.86-2.15L379.86-2.15Q379.86-1.05 379.24-0.4 378.61 0.25 377.51 0.25L377.51 0.25Q376.46 0.25 375.88-0.35 375.31-0.95 375.31-2.05L375.31-2.05Q375.31-3.1 375.94-3.75 376.56-4.4 377.66-4.4L377.66-4.4ZM404.91-32.3Q408.36-32.3 412.06-30.8L412.06-30.8 411.41-26.95 410.7-26.75Q409.25-27.85 407.63-28.45 406-29.05 404.41-29.05L404.41-29.05Q402.56-29.05 401.18-28.3 399.81-27.55 399.08-26.35 398.36-25.15 398.36-23.85L398.36-23.85Q398.36-22.5 399.18-21.48 400-20.45 401.25-19.7 402.5-18.95 404.66-17.9L404.66-17.9Q407.36-16.65 409-15.58 410.66-14.5 411.83-12.85 413-11.2 413-8.85L413-8.85Q413-6.35 411.66-4.25 410.31-2.15 407.86-0.9 405.41 0.35 402.25 0.35L402.25 0.35Q400.16 0.35 397.88-0.23 395.61-0.8 393.66-1.9L393.66-1.9 394.16-6 394.7-6.25Q396.45-4.55 398.58-3.73 400.7-2.9 402.66-2.9L402.66-2.9Q404.56-2.9 406.03-3.65 407.5-4.4 408.28-5.65 409.06-6.9 409.06-8.3L409.06-8.3Q409.06-10.4 407.45-11.68 405.86-12.95 402.61-14.45L402.61-14.45Q399.95-15.75 398.36-16.78 396.75-17.8 395.61-19.43 394.45-21.05 394.45-23.4L394.45-23.4Q394.45-25.85 395.78-27.9 397.11-29.95 399.48-31.13 401.86-32.3 404.91-32.3L404.91-32.3ZM431.4-32.35Q438-32.35 441.53-28.3 445.05-24.25 445.05-16.65L445.05-16.65Q445.05-8.45 441.3-4.03 437.55 0.4 430.6 0.4L430.6 0.4Q424.1 0.4 420.58-3.8 417.05-8 417.05-15.75L417.05-15.75Q417.05-23.75 420.78-28.05 424.5-32.35 431.4-32.35L431.4-32.35ZM431.15-29.1Q421.15-29.1 421.15-16.2L421.15-16.2Q421.15-9.35 423.58-6.05 426-2.75 430.9-2.75L430.9-2.75Q440.9-2.75 440.9-15.9L440.9-15.9Q440.9-22.6 438.48-25.85 436.05-29.1 431.15-29.1L431.15-29.1ZM461.35-32.1Q466.05-32.1 468.6-29.68 471.15-27.25 471.15-22.7L471.15-22.7Q471.15-17.35 467.98-14.3 464.8-11.25 459.2-11.25L459.2-11.25 455.4-11.25 455.4-10 455.6 0 451.55 0 451.8-9.65 451.55-32.05 461.35-32.1ZM460.7-14.5Q463.8-15 465.43-17 467.05-19 467.05-22.35L467.05-22.35Q467.05-28.55 460.45-28.8L460.45-28.8 455.6-28.65 455.45-14.6 460.7-14.5ZM487.35-32.1Q492.05-32.1 494.6-29.68 497.15-27.25 497.15-22.7L497.15-22.7Q497.15-17.35 493.97-14.3 490.8-11.25 485.2-11.25L485.2-11.25 481.4-11.25 481.4-10 481.6 0 477.55 0 477.8-9.65 477.55-32.05 487.35-32.1ZM486.7-14.5Q489.8-15 491.42-17 493.05-19 493.05-22.35L493.05-22.35Q493.05-28.55 486.45-28.8L486.45-28.8 481.6-28.65 481.45-14.6 486.7-14.5ZM521.6-3.5L521.85-3.1 521.55 0 503.55 0 503.8-9.65 503.55-32.05 521.6-32.05 521.8-31.65 521.5-28.55 513.95-28.7 507.6-28.6 507.5-18.1 513.5-18 518.8-18.15 519.1-17.8 518.75-14.7 513.14-14.8 507.45-14.75 507.4-10 507.55-3.35 513.89-3.3 521.6-3.5ZM552.49-32.15L552.24-9.4 552.34 0 548.14 0 531.54-25.65 531.29-25.65 531.24-10.55 531.29 0 527.69 0 527.84-9.5 527.74-32.05 531.89-32.05 548.44-6.4 548.79-6.4 548.74-31.85 552.49-32.15ZM573.79-32.3Q578.84-32.3 583.19-30.05L583.19-30.05 582.39-26.25 581.89-26.15Q579.49-27.65 577.46-28.3 575.44-28.95 573.19-28.95L573.19-28.95Q562.34-28.95 562.34-15.55L562.34-15.55Q562.34-9.1 564.86-6.08 567.39-3.05 572.69-3.05L572.69-3.05Q574.09-3.05 575.51-3.3 576.94-3.55 579.19-4.25L579.19-4.25 579.29-8 579.24-12.8 582.99-13.1 582.89-8.55 583.09-1.55Q579.84-0.55 577.34-0.1 574.84 0.35 572.49 0.35L572.49 0.35Q565.34 0.35 561.76-3.7 558.19-7.75 558.19-15.4L558.19-15.4Q558.19-23.65 562.24-27.98 566.29-32.3 573.79-32.3L573.79-32.3Z"
                                                                opacity="1" transform="matrix(1,0,0,1,0,0)"
                                                                fill="#ffffff" class="slogan-text-1"
                                                                data-fill-palette-color="secondary" id="text-1"></path>
                                                        </svg>
                                                    </g>
                                                </svg>
                                            </g>
                                        </svg>
                                    </g>
                                </svg>
                            </g>
                            <g transform="matrix(1,0,0,1,0,0.18525350221975145)">
                                <svg viewBox="0 0 74.10140088790348 74.10140088790351" height="74.10140088790351"
                                     width="74.10140088790348">
                                    <g>
                                        <svg xmlns:xlink="http://www.w3.org/1999/xlink" xmlns="http://www.w3.org/2000/svg" version="1.1" x="0" y="0" viewBox="11.026000000000003 11.026 77.94899999999998 77.94900000000001" enable-background="new 0 0 100 100" xml:space="preserve" height="74.10140088790351" width="74.10140088790348" class="icon-icon-0" data-fill-palette-color="accent" id="icon-0"><g fill="#1c4b82" data-fill-palette-color="accent"><path d="M60.559 64.784l13.677-0.04v-14.37l-13.717 0.042L60.559 64.784zM62.702 60.593c0.047 0 0.086 0.021 0.132 0.025l1.686-3.999c-0.262-0.214-0.439-0.523-0.439-0.886 0-0.638 0.517-1.154 1.154-1.154 0.639 0 1.155 0.517 1.155 1.154 0 0.116-0.034 0.222-0.067 0.328l2.782 1.801c0.201-0.169 0.451-0.282 0.734-0.282 0.059 0 0.108 0.024 0.164 0.033l1.38-3.312c-0.265-0.212-0.443-0.523-0.443-0.889 0-0.638 0.517-1.154 1.153-1.154 0.639 0 1.155 0.517 1.155 1.154 0 0.639-0.517 1.155-1.155 1.155-0.045 0-0.084-0.021-0.126-0.025l-1.385 3.327c0.248 0.211 0.412 0.515 0.412 0.865 0 0.638-0.517 1.155-1.155 1.155-0.638 0-1.155-0.518-1.155-1.155 0-0.123 0.035-0.233 0.069-0.344l-2.769-1.796c-0.203 0.178-0.46 0.294-0.75 0.294-0.047 0-0.087-0.021-0.132-0.028l-1.685 4.003c0.262 0.211 0.439 0.522 0.439 0.885 0 0.638-0.517 1.154-1.155 1.154s-1.154-0.517-1.154-1.154C61.548 61.109 62.063 60.593 62.702 60.593z" fill="#ffffff" data-fill-palette-color="accent"></path><path
                                            d="M50 11.026c-21.525 0-38.974 17.449-38.974 38.974 0 12.283 5.688 23.232 14.567 30.376l-14.567 8.599H50c21.525 0 38.975-17.449 38.975-38.975C88.975 28.475 71.523 11.026 50 11.026zM38.109 66.14c-8.917 0-16.147-7.229-16.147-16.147 0-0.699 0.049-1.387 0.135-2.062l5.596 0.839c-0.047 0.402-0.077 0.809-0.077 1.223 0 5.794 4.698 10.493 10.493 10.493 2.059 0 3.974-0.601 5.593-1.624l3.171 4.689C44.349 65.186 41.342 66.14 38.109 66.14zM47.429 63.162l-3.174-4.692c2.539-1.846 4.224-4.797 4.33-8.152h5.664C54.139 55.623 51.471 60.299 47.429 63.162zM48.585 49.656C48.407 44.018 43.792 39.5 38.109 39.5c-5.15 0-9.424 3.713-10.314 8.605l-5.599-0.839c1.296-7.62 7.926-13.421 15.914-13.421 8.805 0 15.959 7.049 16.14 15.812H48.585zM75.754 64.784c0 0.815-0.663 1.479-1.479 1.479H60.519c-0.814 0-1.478-0.663-1.478-1.479v-14.41c0-0.814 0.663-1.478 1.478-1.478h13.757c0.815 0 1.479 0.663 1.479 1.478V64.784zM74.994 46.288H59.8c-0.419 0-0.759-0.34-0.759-0.76 0-0.419 0.34-0.759 0.759-0.759h15.194c0.42 0 0.76 0.34 0.76 0.759C75.754 45.948 75.414 46.288 74.994 46.288zM74.994 42.631H59.8c-0.419 0-0.759-0.34-0.759-0.76 0-0.419 0.34-0.76 0.759-0.76h15.194c0.42 0 0.76 0.34 0.76 0.76C75.754 42.291 75.414 42.631 74.994 42.631zM74.994 38.973H59.8c-0.419 0-0.759-0.34-0.759-0.76s0.34-0.76 0.759-0.76h15.194c0.42 0 0.76 0.34 0.76 0.76S75.414 38.973 74.994 38.973zM74.994 35.315H59.8c-0.419 0-0.759-0.34-0.759-0.76s0.34-0.76 0.759-0.76h15.194c0.42 0 0.76 0.34 0.76 0.76S75.414 35.315 74.994 35.315z"
                                            fill="#ffffff" data-fill-palette-color="accent"></path></g></svg>
                                    </g>
                                </svg>
                            </g>
                        </svg>
                    </g>
                    <defs></defs>
                </svg>
                <rect width="395.52" height="59.668963289683525" fill="none" stroke="none" visibility="hidden"></rect>
            </g>
        </svg>
    </g>
</svg>
