<svg xmlns="http://www.w3.org/2000/svg"
     version="1.1" width="1500" height="1500" viewBox="0 0 1500 1500">
    <rect width="1500" height="1500" fill="#000000"></rect>
    <g transform="matrix(0.6666666666666666,0,0,0.6666666666666666,249.39393939393938,680.6475245335853)">
        <svg viewBox="0 0 396 55" data-background-color="#ffffff" preserveAspectRatio="xMidYMid meet"
             height="208" width="1500" xmlns="http://www.w3.org/2000/svg">
            <g id="tight-bounds" transform="matrix(1,0,0,1,0.2400000000000091,0.007592432592389287)">
                <svg viewBox="0 0 395.52 54.98481513481522" height="54.98481513481522" width="395.52">
                    <g>
                        <svg viewBox="0 0 489.3499484398349 68.02896554206029" height="54.98481513481522"
                             width="395.52">
                            <g>
                                <rect width="4.4391623143816465" height="49.47113630229419" x="77.76994237052752"
                                      y="9.27891461988305" fill="#ffffff" opacity="1" stroke-width="0"
                                      stroke="transparent" fill-opacity="1" class="rect-qz-0"
                                      data-fill-palette-color="primary" rx="1%" id="qz-0"
                                      data-palette-color="#1c4b82"></rect>
                            </g>
                            <g transform="matrix(1,0,0,1,93.82994843983494,9.401977147998206)">
                                <svg viewBox="0 0 395.52 49.22501124606388" height="49.22501124606388" width="395.52">
                                    <g id="textblocktransform">
                                        <svg viewBox="0 0 395.52 49.22501124606388" height="49.22501124606388"
                                             width="395.52" id="textblock">
                                            <g>
                                                <svg viewBox="0 0 395.52 49.22501124606388" height="49.22501124606388"
                                                     width="395.52">
                                                    <g transform="matrix(1,0,0,1,0,0)">
                                                        <svg width="395.52"
                                                             viewBox="2.05 -40.95 336.71999999999997 41.50000000000001"
                                                             height="49.22501124606388" data-palette-color="#1c4b82">
                                                            <g class="wordmark-text-0" data-fill-palette-color="primary"
                                                               id="text-0">
                                                                <path
                                                                    d="M13.25 0.55L13.25 0.55Q9.6 0.55 7.15-0.88 4.7-2.3 3.45-5.05 2.2-7.8 2.05-11.8L2.05-11.8 8.4-13.05Q8.5-10.7 8.97-8.9 9.45-7.1 10.43-6.13 11.4-5.15 13-5.15L13-5.15Q14.8-5.15 15.55-6.23 16.3-7.3 16.3-8.95L16.3-8.95Q16.3-11.6 15.1-13.3 13.9-15 11.9-16.7L11.9-16.7 6.8-21.2Q4.65-23.05 3.38-25.33 2.1-27.6 2.1-30.95L2.1-30.95Q2.1-35.75 4.9-38.35 7.7-40.95 12.55-40.95L12.55-40.95Q15.4-40.95 17.3-40.08 19.2-39.2 20.33-37.65 21.45-36.1 22-34.13 22.55-32.15 22.7-29.95L22.7-29.95 16.4-28.85Q16.3-30.75 15.98-32.25 15.65-33.75 14.83-34.6 14-35.45 12.4-35.45L12.4-35.45Q10.75-35.45 9.88-34.38 9-33.3 9-31.7L9-31.7Q9-29.65 9.85-28.33 10.7-27 12.3-25.6L12.3-25.6 17.35-21.15Q19.85-19.05 21.63-16.23 23.4-13.4 23.4-9.4L23.4-9.4Q23.4-6.5 22.13-4.25 20.85-2 18.57-0.73 16.3 0.55 13.25 0.55ZM35.25 0L27.95 0 27.95-40.5 35.25-40.5 35.25 0ZM46.95 0L41.4 0 42.1-40.5 49.75-40.5 55.5-12.45 61.5-40.5 68.9-40.5 69.65 0 64.15 0 63.55-28.15 57.8 0 53.35 0 47.5-28.25 46.95 0ZM85.49 0L75.64 0 75.64-40.5 85.19-40.5Q90.14-40.5 92.92-39.15 95.69-37.8 96.87-35 98.04-32.2 98.04-27.9L98.04-27.9 98.04-13.1Q98.04-8.7 96.87-5.78 95.69-2.85 92.97-1.43 90.24 0 85.49 0L85.49 0ZM83.04-35.25L83.04-5.15 85.29-5.15Q87.84-5.15 88.94-6.05 90.04-6.95 90.29-8.68 90.54-10.4 90.54-12.9L90.54-12.9 90.54-28.4Q90.54-30.85 90.19-32.35 89.84-33.85 88.74-34.55 87.64-35.25 85.19-35.25L85.19-35.25 83.04-35.25ZM108.39 0L101.44 0 109.54-40.5 117.44-40.5 125.54 0 118.69 0 117.09-9.35 110.04-9.35 108.39 0ZM113.54-31.05L110.79-14.05 116.29-14.05 113.54-31.05ZM141.04 0L133.64 0 133.64-35.05 127.19-35.05 127.19-40.5 147.39-40.5 147.39-35.05 141.04-35.05 141.04 0ZM155.98 0L149.03 0 157.13-40.5 165.03-40.5 173.13 0 166.28 0 164.69-9.35 157.63-9.35 155.98 0ZM161.13-31.05L158.38-14.05 163.88-14.05 161.13-31.05Z"
                                                                    fill="#ffffff"
                                                                    data-fill-palette-color="primary"></path>
                                                                <path
                                                                    d="M195.73 0L188.33 0 188.33-40.5 198.03-40.5Q202.13-40.5 204.95-39.53 207.78-38.55 209.25-36.2 210.73-33.85 210.73-29.8L210.73-29.8Q210.73-27.35 210.28-25.4 209.83-23.45 208.75-22.08 207.68-20.7 205.78-19.95L205.78-19.95 211.43 0 204.03 0 199.13-18.55 195.73-18.55 195.73 0ZM195.73-35.45L195.73-23.2 198.03-23.2Q200.18-23.2 201.45-23.83 202.73-24.45 203.28-25.83 203.83-27.2 203.83-29.35L203.83-29.35Q203.83-32.4 202.7-33.93 201.58-35.45 198.43-35.45L198.43-35.45 195.73-35.45ZM221.28 0L214.33 0 222.43-40.5 230.33-40.5 238.43 0 231.58 0 229.98-9.35 222.93-9.35 221.28 0ZM226.43-31.05L223.68-14.05 229.18-14.05 226.43-31.05ZM252.67 0.55L252.67 0.55Q249.02 0.55 246.57-0.88 244.12-2.3 242.87-5.05 241.62-7.8 241.47-11.8L241.47-11.8 247.82-13.05Q247.92-10.7 248.4-8.9 248.87-7.1 249.85-6.13 250.82-5.15 252.42-5.15L252.42-5.15Q254.22-5.15 254.97-6.23 255.72-7.3 255.72-8.95L255.72-8.95Q255.72-11.6 254.52-13.3 253.32-15 251.32-16.7L251.32-16.7 246.22-21.2Q244.07-23.05 242.8-25.33 241.52-27.6 241.52-30.95L241.52-30.95Q241.52-35.75 244.32-38.35 247.12-40.95 251.97-40.95L251.97-40.95Q254.82-40.95 256.72-40.08 258.62-39.2 259.75-37.65 260.87-36.1 261.42-34.13 261.97-32.15 262.12-29.95L262.12-29.95 255.82-28.85Q255.72-30.75 255.4-32.25 255.07-33.75 254.25-34.6 253.42-35.45 251.82-35.45L251.82-35.45Q250.17-35.45 249.3-34.38 248.42-33.3 248.42-31.7L248.42-31.7Q248.42-29.65 249.27-28.33 250.12-27 251.72-25.6L251.72-25.6 256.77-21.15Q259.27-19.05 261.05-16.23 262.82-13.4 262.82-9.4L262.82-9.4Q262.82-6.5 261.55-4.25 260.27-2 258-0.73 255.72 0.55 252.67 0.55ZM278.62 0L271.22 0 271.22-35.05 264.77-35.05 264.77-40.5 284.97-40.5 284.97-35.05 278.62-35.05 278.62 0ZM296.07 0L288.67 0 288.67-40.5 298.37-40.5Q302.47-40.5 305.29-39.53 308.12-38.55 309.59-36.2 311.07-33.85 311.07-29.8L311.07-29.8Q311.07-27.35 310.62-25.4 310.17-23.45 309.09-22.08 308.02-20.7 306.12-19.95L306.12-19.95 311.77 0 304.37 0 299.47-18.55 296.07-18.55 296.07 0ZM296.07-35.45L296.07-23.2 298.37-23.2Q300.52-23.2 301.79-23.83 303.07-24.45 303.62-25.83 304.17-27.2 304.17-29.35L304.17-29.35Q304.17-32.4 303.04-33.93 301.92-35.45 298.77-35.45L298.77-35.45 296.07-35.45ZM321.62 0L314.67 0 322.77-40.5 330.67-40.5 338.77 0 331.92 0 330.32-9.35 323.27-9.35 321.62 0ZM326.77-31.05L324.02-14.05 329.52-14.05 326.77-31.05Z"
                                                                    fill="#ffffff"
                                                                    data-fill-palette-color="primary"></path>
                                                            </g>
                                                        </svg>
                                                    </g>
                                                </svg>
                                            </g>
                                        </svg>
                                    </g>
                                </svg>
                            </g>
                            <g>
                                <svg viewBox="0 0 66.14909861560174 68.02896554206029" height="68.02896554206029"
                                     width="66.14909861560174">
                                    <g>
                                        <svg xmlns="http://www.w3.org/2000/svg" version="1.1" x="0" y="0"
                                             viewBox="6.2429999999999986 5 87.51300020464566 89.99999999999999"
                                             enable-background="new 0 0 100 100" xml:space="preserve"
                                             height="68.02896554206029" width="66.14909861560174" class="icon-icon-0"
                                             data-fill-palette-color="accent" id="icon-0"><g fill="#1c4b82" data-fill-palette-color="accent"><rect x="44.882" y="47.958" width="37.808" height="3.55" fill="#ffffff" data-fill-palette-color="accent"></rect><rect
                                            x="44.882" y="54.529" width="37.808" height="3.548" fill="#ffffff"
                                            data-fill-palette-color="accent"></rect><rect x="44.882" y="61.805"
                                                                                          width="37.808" height="3.551"
                                                                                          fill="#ffffff"
                                                                                          data-fill-palette-color="accent"></rect><rect
                                            x="79.145" y="15.918" width="3.546" height="22.013" fill="#ffffff"
                                            data-fill-palette-color="accent"></rect><rect x="71.157" y="24.438"
                                                                                          width="3.546" height="13.493"
                                                                                          fill="#ffffff"
                                                                                          data-fill-palette-color="accent"></rect><rect
                                            x="63.169" y="32.426" width="3.546" height="5.505" fill="#ffffff"
                                            data-fill-palette-color="accent"></rect><path
                                            d="M46.806 16.112v10.01h10.008C56.309 20.812 52.115 16.624 46.806 16.112z"
                                            fill="#ffffff" data-fill-palette-color="accent"></path><path
                                            d="M56.814 28.253H46.271l-7.566 7.564c1.926 1.572 4.354 2.555 7.036 2.555C51.553 38.372 56.273 33.924 56.814 28.253z"
                                            fill="#ffffff" data-fill-palette-color="accent"></path><path
                                            d="M44.675 16.112c-5.671 0.544-10.117 5.265-10.117 11.075 0 2.728 1.013 5.193 2.634 7.134l7.483-7.486V16.112z"
                                            fill="#ffffff" data-fill-palette-color="accent"></path><path
                                            d="M85.586 5H31.63c-4.502 0-8.169 3.667-8.169 8.169v37.813c0.031 0 0.059-0.004 0.09-0.004 0.495 0 0.982 0.031 1.466 0.074-0.484-0.04-0.971-0.074-1.466-0.074-9.558 0-17.308 7.748-17.308 17.307 0 9.559 7.75 17.308 17.308 17.308 0.494 0 0.979-0.033 1.462-0.074-0.482 0.044-0.968 0.074-1.462 0.074-0.031 0-0.059-0.004-0.09-0.004v1.242c0 4.503 3.667 8.169 8.169 8.169h38.339c1.777 0 3.45-0.662 5.275-2.194 1.826-1.533 14.866-14.862 16.198-16.509 1.961-2.421 2.314-3.841 2.314-6.148V13.169C93.757 8.667 90.093 5 85.586 5zM26.362 51.227c-0.259-0.043-0.517-0.089-0.779-0.119C25.845 51.14 26.104 51.183 26.362 51.227zM19.95 77.19l-7.446-7.446 4.518-4.518 3.024 3.024 10.431-9.997 4.424 4.614L19.95 77.19zM25.587 85.463c0.246-0.029 0.488-0.072 0.731-0.111C26.076 85.392 25.833 85.432 25.587 85.463zM31.63 90.74c-2.155 0-3.909-1.754-3.909-3.909v-1.765c-0.006 0.001-0.012 0.002-0.017 0.004 7.549-1.863 13.154-8.661 13.154-16.785 0-8.129-5.61-14.929-13.165-16.787 0.009 0.002 0.019 0.004 0.028 0.006V13.169c0-2.155 1.753-3.909 3.909-3.909h53.956c2.157 0 3.909 1.753 3.909 3.909l0.018 58.235c-0.097 0.406-0.431 1.016-0.938 1.766h-10.08c-3.333 0-6.04 2.704-6.04 6.038v10.538c-0.722 0.521-1.312 0.87-1.721 0.994H31.63z"
                                            fill="#ffffff" data-fill-palette-color="accent"></path></g></svg>
                                    </g>
                                </svg>
                            </g>
                        </svg>
                    </g>
                    <defs></defs>
                </svg>
                <rect width="395.52" height="54.98481513481522" fill="none" stroke="none" visibility="hidden"></rect>
            </g>
        </svg>
    </g>
</svg>
