<svg xmlns="http://www.w3.org/2000/svg"
     version="1.1" width="1500" height="238" viewBox="0 0 1500 238">
    <g transform="matrix(1,0,0,1,-0.9090909090909918,0.2313846911354176)">
        <svg viewBox="0 0 396 63" data-background-color="#ffffff" preserveAspectRatio="xMidYMid meet"
             height="238" width="1500" xmlns="http://www.w3.org/2000/svg">
            <g id="tight-bounds" transform="matrix(1,0,0,1,0.2400000000000091,-0.061248888829965153)">
                <svg viewBox="0 0 395.52 63.12249777765993" height="63.12249777765993" width="395.52">
                    <g>
                        <svg viewBox="0 0 498.74087788850227 79.59589895870032" height="63.12249777765993"
                             width="395.52">
                            <g>
                                <rect width="3.852230797294554" height="79.59589895870032" x="89.28427327630054" y="0"
                                      fill="#1c4b82" opacity="1" stroke-width="0" stroke="transparent" fill-opacity="1"
                                      class="rect-qz-0" data-fill-palette-color="primary" rx="1%" id="qz-0"
                                      data-palette-color="#1c4b82"></rect>
                            </g>
                            <g transform="matrix(1,0,0,1,103.2208778885023,0.1979997486534799)">
                                <svg viewBox="0 0 395.52 79.19989946139336" height="79.19989946139336" width="395.52">
                                    <g id="textblocktransform">
                                        <svg viewBox="0 0 395.52 79.19989946139336" height="79.19989946139336"
                                             width="395.52" id="textblock">
                                            <g>
                                                <svg viewBox="0 0 395.52 42.71664131426832" height="42.71664131426832"
                                                     width="395.52">
                                                    <g transform="matrix(1,0,0,1,0,0)">
                                                        <svg width="395.52" viewBox="2.05 -35 332.46 35.5"
                                                             height="42.71664131426832" data-palette-color="#1c4b82">
                                                            <g class="wordmark-text-0" data-fill-palette-color="primary"
                                                               id="text-0">
                                                                <path
                                                                    d="M2.05 0L2.05-35 10.2-35Q14.45-35 16.4-33.02 18.35-31.05 18.35-26.95L18.35-26.95 18.35-24.8Q18.35-19.35 14.75-17.9L14.75-17.9 14.75-17.8Q16.75-17.2 17.57-15.35 18.4-13.5 18.4-10.4L18.4-10.4 18.4-4.25Q18.4-2.75 18.5-1.83 18.6-0.9 19 0L19 0 13.4 0Q13.1-0.85 13-1.6 12.9-2.35 12.9-4.3L12.9-4.3 12.9-10.7Q12.9-13.1 12.13-14.05 11.35-15 9.45-15L9.45-15 7.55-15 7.55 0 2.05 0ZM7.55-20L9.55-20Q11.2-20 12.03-20.85 12.85-21.7 12.85-23.7L12.85-23.7 12.85-26.4Q12.85-28.3 12.18-29.15 11.5-30 10.05-30L10.05-30 7.55-30 7.55-20ZM30.2 0.5Q26.2 0.5 24.1-1.78 22-4.05 22-8.3L22-8.3 22-35 27.5-35 27.5-7.9Q27.5-6.1 28.22-5.3 28.95-4.5 30.3-4.5L30.3-4.5Q31.65-4.5 32.37-5.3 33.1-6.1 33.1-7.9L33.1-7.9 33.1-35 38.4-35 38.4-8.3Q38.4-4.05 36.3-1.78 34.2 0.5 30.2 0.5L30.2 0.5ZM42.3 0L42.3-35 50.15-35 53.65-9.95 53.75-9.95 57.25-35 65.09-35 65.09 0 59.9 0 59.9-26.5 59.8-26.5 55.8 0 51.2 0 47.2-26.5 47.1-26.5 47.1 0 42.3 0ZM67.74 0L73.44-35 80.89-35 86.59 0 81.09 0 80.09-6.95 80.09-6.85 73.84-6.85 72.84 0 67.74 0ZM74.49-11.6L79.44-11.6 76.99-28.9 76.89-28.9 74.49-11.6ZM89.24 0L89.24-35 94.74-35 94.74-20.75 100.64-20.75 100.64-35 106.14-35 106.14 0 100.64 0 100.64-15.75 94.74-15.75 94.74 0 89.24 0Z"
                                                                    fill="#1c4b82"
                                                                    data-fill-palette-color="primary"></path>
                                                                <path
                                                                    d="M116.19 0L116.19-35 124.59-35Q128.69-35 130.74-32.8 132.79-30.6 132.79-26.35L132.79-26.35 132.79-8.65Q132.79-4.4 130.74-2.2 128.69 0 124.59 0L124.59 0 116.19 0ZM121.69-5L124.49-5Q125.84-5 126.56-5.8 127.29-6.6 127.29-8.4L127.29-8.4 127.29-26.6Q127.29-28.4 126.56-29.2 125.84-30 124.49-30L124.49-30 121.69-30 121.69-5ZM135.03 0L140.73-35 148.19-35 153.89 0 148.38 0 147.38-6.95 147.38-6.85 141.13-6.85 140.13 0 135.03 0ZM141.78-11.6L146.73-11.6 144.28-28.9 144.19-28.9 141.78-11.6ZM160.83 0L160.83-30 155.08-30 155.08-35 172.08-35 172.08-30 166.33-30 166.33 0 160.83 0ZM173.28 0L178.98-35 186.43-35 192.13 0 186.63 0 185.63-6.95 185.63-6.85 179.38-6.85 178.38 0 173.28 0ZM180.03-11.6L184.98-11.6 182.53-28.9 182.43-28.9 180.03-11.6Z"
                                                                    fill="#1c4b82"
                                                                    data-fill-palette-color="primary"></path>
                                                                <path
                                                                    d="M206.48 0L206.48-30 200.73-30 200.73-35 217.73-35 217.73-30 211.98-30 211.98 0 206.48 0ZM220.37 0L220.37-35 235.37-35 235.37-30 225.87-30 225.87-20.75 233.43-20.75 233.43-15.75 225.87-15.75 225.87-5 235.37-5 235.37 0 220.37 0ZM238.52 0L238.52-35 246.67-35Q250.92-35 252.87-33.02 254.82-31.05 254.82-26.95L254.82-26.95 254.82-24.8Q254.82-19.35 251.22-17.9L251.22-17.9 251.22-17.8Q253.22-17.2 254.05-15.35 254.87-13.5 254.87-10.4L254.87-10.4 254.87-4.25Q254.87-2.75 254.97-1.83 255.07-0.9 255.47 0L255.47 0 249.87 0Q249.57-0.85 249.47-1.6 249.37-2.35 249.37-4.3L249.37-4.3 249.37-10.7Q249.37-13.1 248.6-14.05 247.82-15 245.92-15L245.92-15 244.02-15 244.02 0 238.52 0ZM244.02-20L246.02-20Q247.67-20 248.5-20.85 249.32-21.7 249.32-23.7L249.32-23.7 249.32-26.4Q249.32-28.3 248.65-29.15 247.97-30 246.52-30L246.52-30 244.02-30 244.02-20ZM258.67 0L258.67-35 266.77-35Q270.87-35 272.92-32.8 274.97-30.6 274.97-26.35L274.97-26.35 274.97-22.9Q274.97-18.65 272.92-16.45 270.87-14.25 266.77-14.25L266.77-14.25 264.17-14.25 264.17 0 258.67 0ZM264.17-19.25L266.77-19.25Q268.12-19.25 268.8-20 269.47-20.75 269.47-22.55L269.47-22.55 269.47-26.7Q269.47-28.5 268.8-29.25 268.12-30 266.77-30L266.77-30 264.17-30 264.17-19.25ZM276.52 0L282.22-35 289.67-35 295.37 0 289.87 0 288.87-6.95 288.87-6.85 282.62-6.85 281.62 0 276.52 0ZM283.27-11.6L288.22-11.6 285.77-28.9 285.67-28.9 283.27-11.6ZM298.02 0L298.02-35 306.42-35Q310.52-35 312.57-32.8 314.62-30.6 314.62-26.35L314.62-26.35 314.62-8.65Q314.62-4.4 312.57-2.2 310.52 0 306.42 0L306.42 0 298.02 0ZM303.52-5L306.32-5Q307.67-5 308.39-5.8 309.12-6.6 309.12-8.4L309.12-8.4 309.12-26.6Q309.12-28.4 308.39-29.2 307.67-30 306.32-30L306.32-30 303.52-30 303.52-5ZM326.31 0.5Q322.31 0.5 320.21-1.78 318.11-4.05 318.11-8.3L318.11-8.3 318.11-35 323.61-35 323.61-7.9Q323.61-6.1 324.34-5.3 325.06-4.5 326.41-4.5L326.41-4.5Q327.76-4.5 328.49-5.3 329.21-6.1 329.21-7.9L329.21-7.9 329.21-35 334.51-35 334.51-8.3Q334.51-4.05 332.41-1.78 330.31 0.5 326.31 0.5L326.31 0.5Z"
                                                                    fill="#1c4b82"
                                                                    data-fill-palette-color="primary"></path>
                                                            </g>
                                                        </svg>
                                                    </g>
                                                </svg>
                                            </g>
                                            <g transform="matrix(1,0,0,1,0,52.80101512917553)">
                                                <svg viewBox="0 0 205.89512695862996 26.398884332217822"
                                                     height="26.398884332217822" width="205.89512695862996">
                                                    <g transform="matrix(1,0,0,1,0,0)">
                                                        <svg width="205.89512695862996"
                                                             viewBox="4.65 -32.3 254.61999999999998 32.65"
                                                             height="26.398884332217822" data-palette-color="#1c4b82">
                                                            <path
                                                                d="M16.25-32.25Q23.1-32.25 26.75-28.35 30.4-24.45 30.4-17.15L30.4-17.15Q30.4-8.7 26.45-4.2 22.5 0.3 15.1 0.3L15.1 0.3Q13.05 0.3 10.13 0.23 7.2 0.15 4.7 0L4.7 0 4.65 0 4.9-9.65 4.65-32.05 4.7-32.05 16.25-32.25ZM15.75-3.05Q20.85-3.05 23.58-6.38 26.3-9.7 26.3-16.3L26.3-16.3Q26.3-28.9 15.95-28.9L15.95-28.9Q12.8-28.9 8.7-28.7L8.7-28.7 8.5-10 8.65-3.35Q10.2-3.2 12.38-3.13 14.55-3.05 15.75-3.05L15.75-3.05ZM40.55-24.9L40.4-7.8 40.5 0 36.8 0 36.95-7.5 36.8-24.9 40.55-24.9ZM70.55-25L70.4-7.45 70.45 0 66.45 0 53.35-19 53.1-19 53.05-8.3 53.15 0 49.75 0 49.9-7.35 49.8-24.9 53.75-24.9 66.85-5.9 67.2-5.9 67.1-24.75 70.55-25ZM90.19-24.9L98.94 0 95.19 0 94.59-2.7 93.29-6.4 87.34-6.45 82.04-6.4 80.69-2.9 79.99 0 76.29 0 85.89-24.9 90.19-24.9ZM87.64-9.4L92.24-9.45 88.09-21.25 87.79-21.25 83.24-9.45 87.64-9.4ZM112.49-25.15Q115.54-25.15 118.59-23.95L118.59-23.95 117.94-20.25 117.34-20.1Q115.94-21.2 114.69-21.73 113.44-22.25 112.09-22.25L112.09-22.25Q109.94-22.25 108.69-21.13 107.44-20 107.44-18.55L107.44-18.55Q107.44-17.1 108.67-16.2 109.89-15.3 112.44-14.2L112.44-14.2Q114.69-13.2 116.02-12.4 117.34-11.6 118.32-10.28 119.29-8.95 119.29-7.05L119.29-7.05Q119.29-5.1 118.24-3.43 117.19-1.75 115.17-0.73 113.14 0.3 110.34 0.3L110.34 0.3Q108.59 0.3 106.67-0.13 104.74-0.55 103.09-1.4L103.09-1.4 103.54-5.35 104.04-5.55Q105.44-4.15 107.32-3.38 109.19-2.6 110.79-2.6L110.79-2.6Q112.89-2.6 114.24-3.73 115.59-4.85 115.59-6.45L115.59-6.45Q115.59-7.95 114.37-8.85 113.14-9.75 110.54-10.95L110.54-10.95Q108.39-11.9 107.02-12.7 105.64-13.5 104.69-14.83 103.74-16.15 103.74-18.05L103.74-18.05Q103.74-20.05 104.82-21.65 105.89-23.25 107.87-24.2 109.84-25.15 112.49-25.15L112.49-25.15ZM143.49-32.3Q146.94-32.3 150.64-30.8L150.64-30.8 149.99-26.95 149.29-26.75Q147.84-27.85 146.21-28.45 144.59-29.05 142.99-29.05L142.99-29.05Q141.14-29.05 139.76-28.3 138.39-27.55 137.66-26.35 136.94-25.15 136.94-23.85L136.94-23.85Q136.94-22.5 137.76-21.48 138.59-20.45 139.84-19.7 141.09-18.95 143.24-17.9L143.24-17.9Q145.94-16.65 147.59-15.58 149.24-14.5 150.41-12.85 151.59-11.2 151.59-8.85L151.59-8.85Q151.59-6.35 150.24-4.25 148.89-2.15 146.44-0.9 143.99 0.35 140.84 0.35L140.84 0.35Q138.74 0.35 136.46-0.23 134.19-0.8 132.24-1.9L132.24-1.9 132.74-6 133.29-6.25Q135.04-4.55 137.16-3.73 139.29-2.9 141.24-2.9L141.24-2.9Q143.14-2.9 144.61-3.65 146.09-4.4 146.86-5.65 147.64-6.9 147.64-8.3L147.64-8.3Q147.64-10.4 146.04-11.68 144.44-12.95 141.19-14.45L141.19-14.45Q138.54-15.75 136.94-16.78 135.34-17.8 134.19-19.43 133.04-21.05 133.04-23.4L133.04-23.4Q133.04-25.85 134.36-27.9 135.69-29.95 138.06-31.13 140.44-32.3 143.49-32.3L143.49-32.3ZM168.03-25.2Q173.48-25.2 176.41-22 179.33-18.8 179.33-12.95L179.33-12.95Q179.33-6.6 176.21-3.13 173.08 0.35 167.28 0.35L167.28 0.35Q161.88 0.35 158.93-2.93 155.98-6.2 155.98-12.25L155.98-12.25Q155.98-18.45 159.13-21.83 162.28-25.2 168.03-25.2L168.03-25.2ZM167.68-22.05Q163.73-22.05 161.81-19.8 159.88-17.55 159.88-12.7L159.88-12.7Q159.88-7.5 161.78-5.15 163.68-2.8 167.58-2.8L167.58-2.8Q171.58-2.8 173.53-5.1 175.48-7.4 175.48-12.3L175.48-12.3Q175.48-17.35 173.56-19.7 171.63-22.05 167.68-22.05L167.68-22.05ZM193.43-25.15Q196.48-25.15 199.53-23.95L199.53-23.95 198.88-20.25 198.28-20.1Q196.88-21.2 195.63-21.73 194.38-22.25 193.03-22.25L193.03-22.25Q190.88-22.25 189.63-21.13 188.38-20 188.38-18.55L188.38-18.55Q188.38-17.1 189.61-16.2 190.83-15.3 193.38-14.2L193.38-14.2Q195.63-13.2 196.96-12.4 198.28-11.6 199.26-10.28 200.23-8.95 200.23-7.05L200.23-7.05Q200.23-5.1 199.18-3.43 198.13-1.75 196.11-0.73 194.08 0.3 191.28 0.3L191.28 0.3Q189.53 0.3 187.61-0.13 185.68-0.55 184.03-1.4L184.03-1.4 184.48-5.35 184.98-5.55Q186.38-4.15 188.26-3.38 190.13-2.6 191.73-2.6L191.73-2.6Q193.83-2.6 195.18-3.73 196.53-4.85 196.53-6.45L196.53-6.45Q196.53-7.95 195.31-8.85 194.08-9.75 191.48-10.95L191.48-10.95Q189.33-11.9 187.96-12.7 186.58-13.5 185.63-14.83 184.68-16.15 184.68-18.05L184.68-18.05Q184.68-20.05 185.76-21.65 186.83-23.25 188.81-24.2 190.78-25.15 193.43-25.15L193.43-25.15ZM211.08-24.9L210.93-7.8 211.03 0 207.33 0 207.48-7.5 207.33-24.9 211.08-24.9ZM230.93-24.9L239.68 0 235.93 0 235.33-2.7 234.03-6.4 228.08-6.45 222.78-6.4 221.43-2.9 220.72 0 217.03 0 226.63-24.9 230.93-24.9ZM228.38-9.4L232.97-9.45 228.83-21.25 228.53-21.25 223.97-9.45 228.38-9.4ZM259.07-3.15L259.27-2.8 259.02 0 245.77 0 245.92-7.5 245.77-24.9 249.52-24.9 249.37-7.8 249.47-3.15 259.07-3.15Z"
                                                                opacity="1" transform="matrix(1,0,0,1,0,0)"
                                                                fill="#1c4b82" class="slogan-text-1"
                                                                data-fill-palette-color="secondary" id="text-1"></path>
                                                        </svg>
                                                    </g>
                                                </svg>
                                            </g>
                                        </svg>
                                    </g>
                                </svg>
                            </g>
                            <g transform="matrix(1,0,0,1,0,0.1979997486534799)">
                                <svg viewBox="0 0 79.19989946139333 79.19989946139336" height="79.19989946139336"
                                     width="79.19989946139333">
                                    <g>
                                        <svg xmlns="http://www.w3.org/2000/svg" version="1.1" x="0" y="0"
                                             viewBox="11.026000000000003 11.026 77.94899999999998 77.94900000000001"
                                             enable-background="new 0 0 100 100" xml:space="preserve"
                                             height="79.19989946139336" width="79.19989946139333" class="icon-icon-0"
                                             data-fill-palette-color="accent" id="icon-0"><g fill="#1c4b82" data-fill-palette-color="accent"><path d="M60.559 64.784l13.677-0.04v-14.37l-13.717 0.042L60.559 64.784zM62.702 60.593c0.047 0 0.086 0.021 0.132 0.025l1.686-3.999c-0.262-0.214-0.439-0.523-0.439-0.886 0-0.638 0.517-1.154 1.154-1.154 0.639 0 1.155 0.517 1.155 1.154 0 0.116-0.034 0.222-0.067 0.328l2.782 1.801c0.201-0.169 0.451-0.282 0.734-0.282 0.059 0 0.108 0.024 0.164 0.033l1.38-3.312c-0.265-0.212-0.443-0.523-0.443-0.889 0-0.638 0.517-1.154 1.153-1.154 0.639 0 1.155 0.517 1.155 1.154 0 0.639-0.517 1.155-1.155 1.155-0.045 0-0.084-0.021-0.126-0.025l-1.385 3.327c0.248 0.211 0.412 0.515 0.412 0.865 0 0.638-0.517 1.155-1.155 1.155-0.638 0-1.155-0.518-1.155-1.155 0-0.123 0.035-0.233 0.069-0.344l-2.769-1.796c-0.203 0.178-0.46 0.294-0.75 0.294-0.047 0-0.087-0.021-0.132-0.028l-1.685 4.003c0.262 0.211 0.439 0.522 0.439 0.885 0 0.638-0.517 1.154-1.155 1.154s-1.154-0.517-1.154-1.154C61.548 61.109 62.063 60.593 62.702 60.593z" fill="#1c4b82" data-fill-palette-color="accent"></path><path
                                            d="M50 11.026c-21.525 0-38.974 17.449-38.974 38.974 0 12.283 5.688 23.232 14.567 30.376l-14.567 8.599H50c21.525 0 38.975-17.449 38.975-38.975C88.975 28.475 71.523 11.026 50 11.026zM38.109 66.14c-8.917 0-16.147-7.229-16.147-16.147 0-0.699 0.049-1.387 0.135-2.062l5.596 0.839c-0.047 0.402-0.077 0.809-0.077 1.223 0 5.794 4.698 10.493 10.493 10.493 2.059 0 3.974-0.601 5.593-1.624l3.171 4.689C44.349 65.186 41.342 66.14 38.109 66.14zM47.429 63.162l-3.174-4.692c2.539-1.846 4.224-4.797 4.33-8.152h5.664C54.139 55.623 51.471 60.299 47.429 63.162zM48.585 49.656C48.407 44.018 43.792 39.5 38.109 39.5c-5.15 0-9.424 3.713-10.314 8.605l-5.599-0.839c1.296-7.62 7.926-13.421 15.914-13.421 8.805 0 15.959 7.049 16.14 15.812H48.585zM75.754 64.784c0 0.815-0.663 1.479-1.479 1.479H60.519c-0.814 0-1.478-0.663-1.478-1.479v-14.41c0-0.814 0.663-1.478 1.478-1.478h13.757c0.815 0 1.479 0.663 1.479 1.478V64.784zM74.994 46.288H59.8c-0.419 0-0.759-0.34-0.759-0.76 0-0.419 0.34-0.759 0.759-0.759h15.194c0.42 0 0.76 0.34 0.76 0.759C75.754 45.948 75.414 46.288 74.994 46.288zM74.994 42.631H59.8c-0.419 0-0.759-0.34-0.759-0.76 0-0.419 0.34-0.76 0.759-0.76h15.194c0.42 0 0.76 0.34 0.76 0.76C75.754 42.291 75.414 42.631 74.994 42.631zM74.994 38.973H59.8c-0.419 0-0.759-0.34-0.759-0.76s0.34-0.76 0.759-0.76h15.194c0.42 0 0.76 0.34 0.76 0.76S75.414 38.973 74.994 38.973zM74.994 35.315H59.8c-0.419 0-0.759-0.34-0.759-0.76s0.34-0.76 0.759-0.76h15.194c0.42 0 0.76 0.34 0.76 0.76S75.414 35.315 74.994 35.315z"
                                            fill="#1c4b82" data-fill-palette-color="accent"></path></g></svg>
                                    </g>
                                </svg>
                            </g>
                        </svg>
                    </g>
                    <defs></defs>
                </svg>
                <rect width="395.52" height="63.12249777765993" fill="none" stroke="none" visibility="hidden"></rect>
            </g>
        </svg>
    </g>
</svg>
