<svg xmlns="http://www.w3.org/2000/svg"
     version="1.1" width="1500" height="1500" viewBox="0 0 1500 1500">
    <rect width="1500" height="1500" fill="#000000"></rect>
    <g transform="matrix(0.6666666666666666,0,0,0.6666666666666666,249.39393939393938,667.6112212380821)">
        <svg viewBox="0 0 396 65" data-background-color="#ffffff" preserveAspectRatio="xMidYMid meet"
             height="246" width="1500" xmlns="http://www.w3.org/2000/svg">
            <g id="tight-bounds" transform="matrix(1,0,0,1,0.2400000000000091,0.15408914344308755)">
                <svg viewBox="0 0 395.52 64.69182171311381" height="64.69182171311381" width="395.52">
                    <g>
                        <svg viewBox="0 0 518.7007377605303 84.8394408618144" height="64.69182171311381" width="395.52">
                            <g>
                                <rect width="3.6136282012057825" height="84.8394408618144" x="110.10734987030416" y="0"
                                      fill="#ffffff" opacity="1" stroke-width="0" stroke="transparent" fill-opacity="1"
                                      class="rect-qz-0" data-fill-palette-color="secondary" rx="1%" id="qz-0"
                                      data-palette-color="#001f3e"></rect>
                            </g>
                            <g transform="matrix(1,0,0,1,123.18073776053032,0.21104338522838617)">
                                <svg viewBox="0 0 395.52 84.41735409135762" height="84.41735409135762" width="395.52">
                                    <g id="textblocktransform">
                                        <svg viewBox="0 0 395.52 84.41735409135762" height="84.41735409135762"
                                             width="395.52" id="textblock">
                                            <g>
                                                <svg viewBox="0 0 395.52 40.07082333240301" height="40.07082333240301"
                                                     width="395.52">
                                                    <g transform="matrix(1,0,0,1,0,0)">
                                                        <svg width="395.52" viewBox="3.05 -35.65 358.28 36.3"
                                                             height="40.07082333240301"
                                                             data-palette-color="url(#f55c197f-821a-40d7-b9f7-34016dbfebd2)"></svg>
                                                    </g>
                                                </svg>
                                            </g>
                                            <g transform="matrix(1,0,0,1,0,49.53058302142338)">
                                                <svg viewBox="0 0 375.74399999999997 34.88677106993425"
                                                     height="34.88677106993425" width="375.74399999999997">
                                                    <g transform="matrix(1,0,0,1,0,0)">
                                                        <svg width="375.74399999999997" viewBox="1.7 -36.75 501.83 46.6"
                                                             height="34.88677106993425" data-palette-color="#001f3e">
                                                            <path
                                                                d="M7.65-13.75L3.3-13.75Q2.45-13.75 2.35-14.03 2.25-14.3 2.25-15.05L2.25-15.05 2.25-34Q2.25-34.05 2.27-34.52 2.3-35 3.05-35L3.05-35 7.45-35Q10.6-35 12.73-34.08 14.85-33.15 15.93-30.95 17-28.75 17-24.85L17-24.85Q17-21.55 16.23-19.4 15.45-17.25 14.1-16.03 12.75-14.8 11.08-14.28 9.4-13.75 7.65-13.75L7.65-13.75ZM1.7 0L1.7 0 1.7-34.05Q1.7-34.05 1.83-34.52 1.95-35 2.65-35L2.65-35 5.85-35Q6.55-35 6.68-34.52 6.8-34.05 6.8-34.05L6.8-34.05 6.8-0.95Q6.8-0.45 6.58-0.28 6.35-0.1 5.28-0.05 4.2 0 1.7 0ZM15.05 0.15L15.05 0.15Q14.45 0.15 13.68 0.1 12.9 0.05 12.05 0L12.05 0Q11.9-4.35 11.2-7.25 10.5-10.15 9.68-11.8 8.85-13.45 8.2-14.15 7.55-14.85 7.55-14.85L7.55-14.85Q7.55-14.85 7.43-15.2 7.3-15.55 7.9-15.85L7.9-15.85 10.75-17.45Q11.45-17.45 11.7-16.95L11.7-16.95Q11.7-16.95 12.55-16.1 13.4-15.25 14.5-13.35 15.6-11.45 16.55-8.43 17.5-5.4 17.65-1.05L17.65-1.05Q17.65-0.4 17.28-0.13 16.9 0.15 15.05 0.15ZM6.75-30.6L6.75-18.4 8.2-18.4Q9.2-18.4 9.88-18.98 10.55-19.55 10.93-21.03 11.3-22.5 11.3-25.1L11.3-25.1Q11.3-26.95 11.05-28.18 10.8-29.4 10.18-30 9.55-30.6 8.55-30.6L8.55-30.6 6.75-30.6ZM27.6 0.5L27.6 0.5Q24.6 0.5 22.97-0.4 21.35-1.3 20.7-3.03 20.05-4.75 20.05-7.25L20.05-7.25 20.05-24.05Q20.05-24.55 20.25-24.73 20.45-24.9 21.57-24.95 22.7-25 25.3-25L25.3-25 25.3-6.9Q25.3-5.9 25.47-5.23 25.65-4.55 26.12-4.23 26.6-3.9 27.55-3.9L27.55-3.9Q28.1-3.9 28.75-4.05 29.4-4.2 29.95-4.6L29.95-4.6 29.95-24.05Q29.95-24.55 30.15-24.73 30.35-24.9 31.4-24.95 32.45-25 35-25L35-25 35-1.35Q33.75-0.65 31.75-0.08 29.75 0.5 27.6 0.5ZM38.6 0L38.6 0 38.6-23.85Q40.15-24.55 42.12-25.03 44.1-25.5 46.25-25.5L46.25-25.5Q49.25-25.5 50.67-24.05 52.1-22.6 52.52-19.9 52.95-17.2 52.95-13.4L52.95-13.4 52.95-0.95Q52.95-0.45 52.7-0.28 52.45-0.1 51.37-0.05 50.3 0 47.85 0L47.85 0 47.85-18.7Q47.85-19.7 47.75-20.2 47.65-20.7 47.27-20.9 46.9-21.1 46.1-21.1L46.1-21.1Q45.5-21.1 44.87-20.93 44.25-20.75 43.7-20.45L43.7-20.45 43.7-0.95Q43.7-0.45 43.45-0.28 43.2-0.1 42.15-0.05 41.1 0 38.6 0ZM47.85 0L47.85 0 47.85-21.3Q48-22.5 49.37-23.45 50.75-24.4 52.72-24.95 54.7-25.5 56.5-25.5L56.5-25.5Q59.05-25.5 60.25-24.7 61.45-23.9 61.8-22.35 62.15-20.8 62.15-18.6L62.15-18.6 62.15-0.95Q62.15-0.45 61.9-0.28 61.65-0.1 60.57-0.05 59.5 0 57.05 0L57.05 0 57.05-18.55Q57.05-19.9 56.7-20.48 56.35-21.05 55.3-21.05L55.3-21.05Q54.7-21.05 54.1-20.9 53.5-20.75 52.95-20.4L52.95-20.4 52.95-0.95Q52.95-0.45 52.75-0.28 52.55-0.1 51.5-0.05 50.45 0 47.85 0ZM72.04 0.5L72.04 0.5Q70.64 0.5 69.37 0.25 68.09 0 67.09-0.78 66.09-1.55 65.52-3.1 64.94-4.65 64.94-7.25L64.94-7.25Q64.94-9.8 65.44-11.43 65.94-13.05 66.82-13.95 67.69-14.85 68.77-15.15 69.84-15.45 70.99-15.45L70.99-15.45Q71.64-15.45 72.67-15.3 73.69-15.15 74.34-14.75L74.34-14.75Q74.34-14.75 74.34-15.38 74.34-16 74.34-16.82 74.34-17.65 74.34-18.35L74.34-18.35Q74.34-19.2 74.09-19.68 73.84-20.15 73.32-20.38 72.79-20.6 71.94-20.6L71.94-20.6Q70.34-20.6 68.62-20.28 66.89-19.95 65.69-19.5L65.69-19.5Q65.29-20.3 65.17-21.1 65.04-21.9 65.04-22.45L65.04-22.45Q65.04-22.9 65.19-23.38 65.34-23.85 65.69-24.1L65.69-24.1Q66.24-24.5 68.24-25 70.24-25.5 73.19-25.5L73.19-25.5Q76.54-25.5 77.99-24.15 79.44-22.8 79.44-19.4L79.44-19.4 79.44-16.95Q79.44-14.1 79.44-11.15 79.44-8.2 79.39-5.6 79.34-3 79.19-1.15L79.19-1.15Q77.99-0.45 76.19 0.03 74.39 0.5 72.04 0.5ZM72.44-3.7L72.44-3.7Q72.94-3.7 73.47-3.88 73.99-4.05 74.24-4.3L74.24-4.3Q74.29-4.95 74.32-6.18 74.34-7.4 74.34-8.78 74.34-10.15 74.34-11.3L74.34-11.3Q74.04-11.55 73.57-11.63 73.09-11.7 72.69-11.7L72.69-11.7Q72.19-11.7 71.74-11.53 71.29-11.35 70.97-10.88 70.64-10.4 70.47-9.55 70.29-8.7 70.29-7.35L70.29-7.35Q70.29-6.3 70.42-5.6 70.54-4.9 70.82-4.48 71.09-4.05 71.49-3.88 71.89-3.7 72.44-3.7ZM82.79 0L82.79 0 82.79-34.5Q82.79-35.65 83.19-36.1 83.59-36.55 84.69-36.65 85.79-36.75 87.89-36.75L87.89-36.75 87.89-23.7Q88.84-24.6 90.22-25.05 91.59-25.5 92.89-25.5L92.89-25.5Q94.94-25.5 95.97-24.75 96.99-24 97.34-22.58 97.69-21.15 97.69-19L97.69-19 97.69-0.95Q97.69-0.45 97.42-0.28 97.14-0.1 96.04-0.05 94.94 0 92.44 0L92.44 0 92.44-17.45Q92.44-18.8 92.12-19.8 91.79-20.8 90.44-20.8L90.44-20.8Q89.84-20.8 89.19-20.63 88.54-20.45 87.89-19.95L87.89-19.95 87.89-0.95Q87.89-0.45 87.67-0.28 87.44-0.1 86.39-0.05 85.34 0 82.79 0ZM114.69 0L108.34 0 108.34-34Q108.34-34.5 108.61-34.75 108.89-35 109.69-35L109.69-35 114.54-35Q116.99-35 118.84-34.3 120.69-33.6 121.89-31.88 123.09-30.15 123.71-27.08 124.34-24 124.34-19.25L124.34-19.25Q124.34-14.1 123.74-10.43 123.14-6.75 121.96-4.45 120.79-2.15 118.99-1.07 117.19 0 114.69 0L114.69 0ZM113.39-30.35L113.39-4.8 114.84-4.8Q115.54-4.8 116.19-5.33 116.84-5.85 117.36-7.4 117.89-8.95 118.19-11.93 118.49-14.9 118.49-19.8L118.49-19.8Q118.49-23.2 118.24-25.28 117.99-27.35 117.51-28.48 117.04-29.6 116.36-29.98 115.69-30.35 114.79-30.35L114.79-30.35 113.39-30.35ZM133.28 0.5L133.28 0.5Q131.88 0.5 130.61 0.25 129.33 0 128.33-0.78 127.33-1.55 126.76-3.1 126.18-4.65 126.18-7.25L126.18-7.25Q126.18-9.8 126.68-11.43 127.18-13.05 128.06-13.95 128.93-14.85 130.01-15.15 131.08-15.45 132.23-15.45L132.23-15.45Q132.88-15.45 133.91-15.3 134.93-15.15 135.58-14.75L135.58-14.75Q135.58-14.75 135.58-15.38 135.58-16 135.58-16.82 135.58-17.65 135.58-18.35L135.58-18.35Q135.58-19.2 135.33-19.68 135.08-20.15 134.56-20.38 134.03-20.6 133.18-20.6L133.18-20.6Q131.58-20.6 129.86-20.28 128.13-19.95 126.93-19.5L126.93-19.5Q126.53-20.3 126.41-21.1 126.28-21.9 126.28-22.45L126.28-22.45Q126.28-22.9 126.43-23.38 126.58-23.85 126.93-24.1L126.93-24.1Q127.48-24.5 129.48-25 131.48-25.5 134.43-25.5L134.43-25.5Q137.78-25.5 139.23-24.15 140.68-22.8 140.68-19.4L140.68-19.4 140.68-16.95Q140.68-14.1 140.68-11.15 140.68-8.2 140.63-5.6 140.58-3 140.43-1.15L140.43-1.15Q139.23-0.45 137.43 0.03 135.63 0.5 133.28 0.5ZM133.68-3.7L133.68-3.7Q134.18-3.7 134.71-3.88 135.23-4.05 135.48-4.3L135.48-4.3Q135.53-4.95 135.56-6.18 135.58-7.4 135.58-8.78 135.58-10.15 135.58-11.3L135.58-11.3Q135.28-11.55 134.81-11.63 134.33-11.7 133.93-11.7L133.93-11.7Q133.43-11.7 132.98-11.53 132.53-11.35 132.21-10.88 131.88-10.4 131.71-9.55 131.53-8.7 131.53-7.35L131.53-7.35Q131.53-6.3 131.66-5.6 131.78-4.9 132.06-4.48 132.33-4.05 132.73-3.88 133.13-3.7 133.68-3.7ZM150.53 0.5L150.53 0.5Q148.38 0.5 147.28-0.35 146.18-1.2 145.83-2.83 145.48-4.45 145.48-6.7L145.48-6.7 145.48-20.65 142.33-20.65Q142.33-22.65 142.38-23.55 142.43-24.45 142.66-24.73 142.88-25 143.38-25L143.38-25 145.48-25 145.48-32.35Q145.48-33.2 145.91-33.52 146.33-33.85 147.43-33.93 148.53-34 150.58-34L150.58-34 150.58-25 154.98-25Q154.98-23.05 154.96-22.13 154.93-21.2 154.71-20.93 154.48-20.65 153.98-20.65L153.98-20.65 150.58-20.65 150.58-6.75Q150.58-6.05 150.63-5.35 150.68-4.65 150.98-4.25 151.28-3.85 151.98-3.85L151.98-3.85Q152.73-3.85 153.33-4 153.93-4.15 154.68-4.5L154.68-4.5Q154.78-4.05 154.88-3.43 154.98-2.8 154.98-2.05L154.98-2.05Q154.98-0.95 154.26-0.4 153.53 0.15 152.51 0.33 151.48 0.5 150.53 0.5ZM163.83 0.5L163.83 0.5Q162.43 0.5 161.15 0.25 159.88 0 158.88-0.78 157.88-1.55 157.3-3.1 156.73-4.65 156.73-7.25L156.73-7.25Q156.73-9.8 157.23-11.43 157.73-13.05 158.6-13.95 159.48-14.85 160.55-15.15 161.63-15.45 162.78-15.45L162.78-15.45Q163.43-15.45 164.45-15.3 165.48-15.15 166.13-14.75L166.13-14.75Q166.13-14.75 166.13-15.38 166.13-16 166.13-16.82 166.13-17.65 166.13-18.35L166.13-18.35Q166.13-19.2 165.88-19.68 165.63-20.15 165.1-20.38 164.58-20.6 163.73-20.6L163.73-20.6Q162.13-20.6 160.4-20.28 158.68-19.95 157.48-19.5L157.48-19.5Q157.08-20.3 156.95-21.1 156.83-21.9 156.83-22.45L156.83-22.45Q156.83-22.9 156.98-23.38 157.13-23.85 157.48-24.1L157.48-24.1Q158.03-24.5 160.03-25 162.03-25.5 164.98-25.5L164.98-25.5Q168.33-25.5 169.78-24.15 171.23-22.8 171.23-19.4L171.23-19.4 171.23-16.95Q171.23-14.1 171.23-11.15 171.23-8.2 171.18-5.6 171.13-3 170.98-1.15L170.98-1.15Q169.78-0.45 167.98 0.03 166.18 0.5 163.83 0.5ZM164.23-3.7L164.23-3.7Q164.73-3.7 165.25-3.88 165.78-4.05 166.03-4.3L166.03-4.3Q166.08-4.95 166.1-6.18 166.13-7.4 166.13-8.78 166.13-10.15 166.13-11.3L166.13-11.3Q165.83-11.55 165.35-11.63 164.88-11.7 164.48-11.7L164.48-11.7Q163.98-11.7 163.53-11.53 163.08-11.35 162.75-10.88 162.43-10.4 162.25-9.55 162.08-8.7 162.08-7.35L162.08-7.35Q162.08-6.3 162.2-5.6 162.33-4.9 162.6-4.48 162.88-4.05 163.28-3.88 163.68-3.7 164.23-3.7ZM186.82 0L186.82 0 186.82-34.45Q186.82-34.45 186.95-34.48 187.07-34.5 187.77-34.5L187.77-34.5 190.97-34.5Q191.67-34.5 191.8-34.48 191.92-34.45 191.92-34.45L191.92-34.45 191.92-0.95Q191.92-0.45 191.7-0.28 191.47-0.1 190.4-0.05 189.32 0 186.82 0ZM197.47-30.25L180.47-30.25 180.47-34.05Q180.47-35 181.42-35L181.42-35 198.42-35 198.42-31.15Q198.42-30.6 198.22-30.43 198.02-30.25 197.47-30.25L197.47-30.25ZM203.52 0.5L203.52 0.5Q201.82 0.5 200.37 0 198.92-0.5 197.87-1.8 196.82-3.1 196.25-5.4 195.67-7.7 195.67-11.25L195.67-11.25Q195.67-15.85 196.4-18.68 197.12-21.5 198.35-22.98 199.57-24.45 201.17-24.98 202.77-25.5 204.52-25.5L204.52-25.5Q207.57-25.5 209.22-23.58 210.87-21.65 210.87-17.4L210.87-17.4Q210.87-15.65 210.75-13.78 210.62-11.9 210.22-10.5L210.22-10.5Q208.67-10.15 206.72-10 204.77-9.85 202.92-9.78 201.07-9.7 199.9-9.7 198.72-9.7 198.72-9.7L198.72-9.7 198.77-13.8Q198.77-13.8 199.57-13.78 200.37-13.75 201.55-13.75 202.72-13.75 203.85-13.85 204.97-13.95 205.67-14.25L205.67-14.25Q205.82-14.75 205.87-15.55 205.92-16.35 205.92-16.95L205.92-16.95Q205.92-19.45 205.47-20.28 205.02-21.1 203.87-21.1L203.87-21.1Q203.12-21.1 202.57-20.58 202.02-20.05 201.65-18.9 201.27-17.75 201.1-15.95 200.92-14.15 200.92-11.55L200.92-11.55Q200.92-9.6 201.1-8.22 201.27-6.85 201.7-6.05 202.12-5.25 202.85-4.85 203.57-4.45 204.72-4.45L204.72-4.45Q206.12-4.45 207.5-4.83 208.87-5.2 210.12-5.9L210.12-5.9Q210.37-5.2 210.47-4.23 210.57-3.25 210.57-2.5L210.57-2.5Q210.57-1.55 209.6-0.88 208.62-0.2 207.02 0.15 205.42 0.5 203.52 0.5ZM213.82 0L213.82 0 213.82-23.25Q215.17-24.2 216.94-24.85 218.72-25.5 220.72-25.5L220.72-25.5Q222.72-25.5 223.42-24.93 224.12-24.35 224.12-23.15L224.12-23.15Q224.12-22.65 224.02-21.83 223.92-21 223.62-20.15L223.62-20.15Q223.07-20.45 222.57-20.55 222.07-20.65 221.57-20.65L221.57-20.65Q220.97-20.65 220.29-20.43 219.62-20.2 219.02-19.75L219.02-19.75 218.97-0.95Q218.97-0.45 218.77-0.28 218.57-0.1 217.49-0.05 216.42 0 213.82 0ZM228.97 9.85L228.97 9.85Q227.67 9.85 227.09 9.4 226.52 8.95 226.52 7.65L226.52 7.65 226.52-23.55Q228.02-24.45 229.97-24.98 231.92-25.5 233.92-25.5L233.92-25.5Q236.32-25.5 238.14-24.65 239.97-23.8 240.97-21.58 241.97-19.35 241.97-15.25L241.97-15.25Q241.97-11.25 241.62-8.47 241.27-5.7 240.62-3.93 239.97-2.15 239.09-1.2 238.22-0.25 237.22 0.13 236.22 0.5 235.12 0.5L235.12 0.5Q233.97 0.5 233.09 0.23 232.22-0.05 231.62-0.6L231.62-0.6 231.62 9.45Q231.02 9.6 230.32 9.73 229.62 9.85 228.97 9.85ZM233.47-4L233.47-4Q233.92-4 234.39-4.35 234.87-4.7 235.32-5.78 235.77-6.85 236.02-9.03 236.27-11.2 236.27-14.9L236.27-14.9Q236.27-17.5 235.99-18.82 235.72-20.15 235.14-20.63 234.57-21.1 233.62-21.1L233.62-21.1Q232.52-21.1 231.62-20.4L231.62-20.4 231.62-5.15Q232.02-4.55 232.47-4.28 232.92-4 233.47-4ZM251.36 0.5L251.36 0.5Q249.96 0.5 248.69 0.25 247.41 0 246.41-0.78 245.41-1.55 244.84-3.1 244.26-4.65 244.26-7.25L244.26-7.25Q244.26-9.8 244.76-11.43 245.26-13.05 246.14-13.95 247.01-14.85 248.09-15.15 249.16-15.45 250.31-15.45L250.31-15.45Q250.96-15.45 251.99-15.3 253.01-15.15 253.66-14.75L253.66-14.75Q253.66-14.75 253.66-15.38 253.66-16 253.66-16.82 253.66-17.65 253.66-18.35L253.66-18.35Q253.66-19.2 253.41-19.68 253.16-20.15 252.64-20.38 252.11-20.6 251.26-20.6L251.26-20.6Q249.66-20.6 247.94-20.28 246.21-19.95 245.01-19.5L245.01-19.5Q244.61-20.3 244.49-21.1 244.36-21.9 244.36-22.45L244.36-22.45Q244.36-22.9 244.51-23.38 244.66-23.85 245.01-24.1L245.01-24.1Q245.56-24.5 247.56-25 249.56-25.5 252.51-25.5L252.51-25.5Q255.86-25.5 257.31-24.15 258.76-22.8 258.76-19.4L258.76-19.4 258.76-16.95Q258.76-14.1 258.76-11.15 258.76-8.2 258.71-5.6 258.66-3 258.51-1.15L258.51-1.15Q257.31-0.45 255.51 0.03 253.71 0.5 251.36 0.5ZM251.76-3.7L251.76-3.7Q252.26-3.7 252.79-3.88 253.31-4.05 253.56-4.3L253.56-4.3Q253.61-4.95 253.64-6.18 253.66-7.4 253.66-8.78 253.66-10.15 253.66-11.3L253.66-11.3Q253.36-11.55 252.89-11.63 252.41-11.7 252.01-11.7L252.01-11.7Q251.51-11.7 251.06-11.53 250.61-11.35 250.29-10.88 249.96-10.4 249.79-9.55 249.61-8.7 249.61-7.35L249.61-7.35Q249.61-6.3 249.74-5.6 249.86-4.9 250.14-4.48 250.41-4.05 250.81-3.88 251.21-3.7 251.76-3.7ZM269.56 0.5L269.56 0.5Q267.91 0.5 266.46 0.13 265.01-0.25 263.86-1.45 262.71-2.65 262.09-5.05 261.46-7.45 261.46-11.45L261.46-11.45Q261.46-16.5 262.39-19.6 263.31-22.7 264.94-24.1 266.56-25.5 268.56-25.5L268.56-25.5Q269.61-25.5 270.41-25.25 271.21-25 271.71-24.55L271.71-24.55 271.71-34.5Q271.71-35.65 272.11-36.1 272.51-36.55 273.61-36.65 274.71-36.75 276.81-36.75L276.81-36.75 276.81-1Q275.56-0.45 273.76 0.03 271.96 0.5 269.56 0.5ZM269.61-4L269.61-4Q270.26-4 270.76-4.15 271.26-4.3 271.71-4.6L271.71-4.6 271.71-20.75Q271.41-20.95 271.04-21.03 270.66-21.1 270.26-21.1L270.26-21.1Q269.76-21.1 269.21-20.85 268.66-20.6 268.16-19.68 267.66-18.75 267.41-16.95 267.16-15.15 267.16-12.05L267.16-12.05Q267.16-9.6 267.31-8.03 267.46-6.45 267.76-5.58 268.06-4.7 268.54-4.35 269.01-4 269.61-4ZM287.81 0.5L287.81 0.5Q284.81 0.5 283.18-0.4 281.56-1.3 280.91-3.03 280.26-4.75 280.26-7.25L280.26-7.25 280.26-24.05Q280.26-24.55 280.46-24.73 280.66-24.9 281.78-24.95 282.91-25 285.51-25L285.51-25 285.51-6.9Q285.51-5.9 285.68-5.23 285.86-4.55 286.33-4.23 286.81-3.9 287.76-3.9L287.76-3.9Q288.31-3.9 288.96-4.05 289.61-4.2 290.16-4.6L290.16-4.6 290.16-24.05Q290.16-24.55 290.36-24.73 290.56-24.9 291.61-24.95 292.66-25 295.21-25L295.21-25 295.21-1.35Q293.96-0.65 291.96-0.08 289.96 0.5 287.81 0.5ZM320.4 0.1L320.4 0.1Q319.55 0.1 318.65 0.05 317.75 0 316.8-0.05L316.8-0.05Q316.65-2.55 316.38-4.83 316.1-7.1 315.68-9.08 315.25-11.05 314.53-12.68 313.8-14.3 312.75-15.5L312.75-15.5Q312.15-16.15 311.4-16.53 310.65-16.9 309.95-17L309.95-17 309.95-17.8 317.35-34.7Q318.25-34.9 319.1-34.98 319.95-35.05 320.6-35.05L320.6-35.05Q323.3-35.05 322.75-33.7L322.75-33.7 316.25-20Q319.1-17.55 320.65-12.7 322.2-7.85 322.55-1L322.55-1Q322.55-0.4 322.15-0.15 321.75 0.1 320.4 0.1ZM305.9 0L305.9 0 305.9-34.05Q305.9-34.55 306.13-34.73 306.35-34.9 307.4-34.95 308.45-35 311.05-35L311.05-35 311.05-0.95Q311.05-0.45 310.85-0.28 310.65-0.1 309.55-0.05 308.45 0 305.9 0ZM331.9 0.5L331.9 0.5Q330.5 0.5 329.23 0.25 327.95 0 326.95-0.78 325.95-1.55 325.38-3.1 324.8-4.65 324.8-7.25L324.8-7.25Q324.8-9.8 325.3-11.43 325.8-13.05 326.68-13.95 327.55-14.85 328.63-15.15 329.7-15.45 330.85-15.45L330.85-15.45Q331.5-15.45 332.53-15.3 333.55-15.15 334.2-14.75L334.2-14.75Q334.2-14.75 334.2-15.38 334.2-16 334.2-16.82 334.2-17.65 334.2-18.35L334.2-18.35Q334.2-19.2 333.95-19.68 333.7-20.15 333.18-20.38 332.65-20.6 331.8-20.6L331.8-20.6Q330.2-20.6 328.48-20.28 326.75-19.95 325.55-19.5L325.55-19.5Q325.15-20.3 325.03-21.1 324.9-21.9 324.9-22.45L324.9-22.45Q324.9-22.9 325.05-23.38 325.2-23.85 325.55-24.1L325.55-24.1Q326.1-24.5 328.1-25 330.1-25.5 333.05-25.5L333.05-25.5Q336.4-25.5 337.85-24.15 339.3-22.8 339.3-19.4L339.3-19.4 339.3-16.95Q339.3-14.1 339.3-11.15 339.3-8.2 339.25-5.6 339.2-3 339.05-1.15L339.05-1.15Q337.85-0.45 336.05 0.03 334.25 0.5 331.9 0.5ZM332.3-3.7L332.3-3.7Q332.8-3.7 333.33-3.88 333.85-4.05 334.1-4.3L334.1-4.3Q334.15-4.95 334.18-6.18 334.2-7.4 334.2-8.78 334.2-10.15 334.2-11.3L334.2-11.3Q333.9-11.55 333.43-11.63 332.95-11.7 332.55-11.7L332.55-11.7Q332.05-11.7 331.6-11.53 331.15-11.35 330.83-10.88 330.5-10.4 330.33-9.55 330.15-8.7 330.15-7.35L330.15-7.35Q330.15-6.3 330.28-5.6 330.4-4.9 330.68-4.48 330.95-4.05 331.35-3.88 331.75-3.7 332.3-3.7ZM348.6 0.5L348.6 0.5Q346.6 0.5 345.1 0.08 343.6-0.35 342.75-1L342.75-1 342.75-34.45Q342.75-35.6 343.15-36.08 343.55-36.55 344.62-36.65 345.7-36.75 347.85-36.75L347.85-36.75 347.85-23.95Q348.7-24.7 349.85-25.1 351-25.5 352.45-25.5L352.45-25.5Q354.45-25.5 355.72-24.53 357-23.55 357.62-21.35 358.25-19.15 358.25-15.45L358.25-15.45Q358.25-11.2 357.67-8.3 357.1-5.4 356.1-3.65 355.1-1.9 353.85-1 352.6-0.1 351.25 0.2 349.9 0.5 348.6 0.5ZM349.35-3.95L349.35-3.95Q349.8-3.95 350.35-4.35 350.9-4.75 351.37-5.85 351.85-6.95 352.17-9.03 352.5-11.1 352.5-14.5L352.5-14.5Q352.5-16.9 352.22-18.32 351.95-19.75 351.45-20.35 350.95-20.95 350.1-20.95L350.1-20.95Q349.5-20.95 348.92-20.75 348.35-20.55 347.85-20L347.85-20 347.85-4.45Q348.1-4.25 348.45-4.1 348.8-3.95 349.35-3.95ZM364.1 0.35L364.1 0.35Q362.2 0.35 361.5-0.53 360.8-1.4 360.8-3L360.8-3Q360.8-4.35 361.65-5.38 362.5-6.4 364.1-6.4L364.1-6.4Q365.95-6.4 366.67-5.45 367.4-4.5 367.4-3L367.4-3Q367.4-1.65 366.52-0.65 365.65 0.35 364.1 0.35ZM383.49 0.5L383.49 0.5Q380.14 0.5 378.54-0.5 376.94-1.5 376.94-2.75L376.94-2.75Q376.94-3.5 377.22-4.53 377.49-5.55 378.14-6.4L378.14-6.4Q378.94-5.7 380.19-5.2 381.44-4.7 382.94-4.7L382.94-4.7Q385.19-4.7 386.09-5.88 386.99-7.05 386.99-9L386.99-9Q386.99-10.4 386.47-11.65 385.94-12.9 384.54-14.7L384.54-14.7 379.84-20.7Q378.14-22.95 377.54-24.63 376.94-26.3 376.94-28L376.94-28Q376.94-31.35 379.17-33.43 381.39-35.5 385.74-35.5L385.74-35.5Q389.44-35.5 390.94-34.75 392.44-34 392.44-32.8L392.44-32.8Q392.44-32.15 392.17-31.4 391.89-30.65 391.24-29.95L391.24-29.95Q390.79-30.25 389.52-30.63 388.24-31 386.69-31L386.69-31Q384.74-31 383.59-30.28 382.44-29.55 382.44-28.15L382.44-28.15Q382.44-26.95 382.94-25.93 383.44-24.9 384.44-23.55L384.44-23.55 389.44-17.4Q391.29-15.1 391.92-13.23 392.54-11.35 392.54-9.15L392.54-9.15Q392.54-6.65 391.74-4.45 390.94-2.25 389.02-0.88 387.09 0.5 383.49 0.5ZM402.44 0.5L402.44 0.5Q400.49 0.5 398.99 0.03 397.49-0.45 396.51-1.83 395.54-3.2 395.04-5.78 394.54-8.35 394.54-12.55L394.54-12.55Q394.54-19.35 396.74-22.43 398.94-25.5 402.84-25.5L402.84-25.5Q405.54-25.5 407.26-24.43 408.99-23.35 409.81-20.55 410.64-17.75 410.64-12.7L410.64-12.7Q410.64-5.55 408.56-2.53 406.49 0.5 402.44 0.5ZM402.59-3.75L402.59-3.75Q403.29-3.75 403.84-4.35 404.39-4.95 404.74-6.85 405.09-8.75 405.09-12.6L405.09-12.6Q405.09-16.35 404.86-18.2 404.64-20.05 404.11-20.65 403.59-21.25 402.69-21.25L402.69-21.25Q401.94-21.25 401.36-20.6 400.79-19.95 400.46-18.07 400.14-16.2 400.14-12.55L400.14-12.55Q400.14-9.6 400.29-7.8 400.44-6 400.74-5.15 401.04-4.3 401.51-4.03 401.99-3.75 402.59-3.75ZM416.09 9.85L416.09 9.85Q414.79 9.85 414.21 9.4 413.64 8.95 413.64 7.65L413.64 7.65 413.64-23.55Q415.14-24.45 417.09-24.98 419.04-25.5 421.04-25.5L421.04-25.5Q423.44-25.5 425.26-24.65 427.09-23.8 428.09-21.58 429.09-19.35 429.09-15.25L429.09-15.25Q429.09-11.25 428.74-8.47 428.39-5.7 427.74-3.93 427.09-2.15 426.21-1.2 425.34-0.25 424.34 0.13 423.34 0.5 422.24 0.5L422.24 0.5Q421.09 0.5 420.21 0.23 419.34-0.05 418.74-0.6L418.74-0.6 418.74 9.45Q418.14 9.6 417.44 9.73 416.74 9.85 416.09 9.85ZM420.59-4L420.59-4Q421.04-4 421.51-4.35 421.99-4.7 422.44-5.78 422.89-6.85 423.14-9.03 423.39-11.2 423.39-14.9L423.39-14.9Q423.39-17.5 423.11-18.82 422.84-20.15 422.26-20.63 421.69-21.1 420.74-21.1L420.74-21.1Q419.64-21.1 418.74-20.4L418.74-20.4 418.74-5.15Q419.14-4.55 419.59-4.28 420.04-4 420.59-4ZM434.53 9.85L434.53 9.85Q433.23 9.85 432.66 9.4 432.08 8.95 432.08 7.65L432.08 7.65 432.08-23.55Q433.58-24.45 435.53-24.98 437.48-25.5 439.48-25.5L439.48-25.5Q441.88-25.5 443.71-24.65 445.53-23.8 446.53-21.58 447.53-19.35 447.53-15.25L447.53-15.25Q447.53-11.25 447.18-8.47 446.83-5.7 446.18-3.93 445.53-2.15 444.66-1.2 443.78-0.25 442.78 0.13 441.78 0.5 440.68 0.5L440.68 0.5Q439.53 0.5 438.66 0.23 437.78-0.05 437.18-0.6L437.18-0.6 437.18 9.45Q436.58 9.6 435.88 9.73 435.18 9.85 434.53 9.85ZM439.03-4L439.03-4Q439.48-4 439.96-4.35 440.43-4.7 440.88-5.78 441.33-6.85 441.58-9.03 441.83-11.2 441.83-14.9L441.83-14.9Q441.83-17.5 441.56-18.82 441.28-20.15 440.71-20.63 440.13-21.1 439.18-21.1L439.18-21.1Q438.08-21.1 437.18-20.4L437.18-20.4 437.18-5.15Q437.58-4.55 438.03-4.28 438.48-4 439.03-4ZM457.73 0.5L457.73 0.5Q456.03 0.5 454.58 0 453.13-0.5 452.08-1.8 451.03-3.1 450.46-5.4 449.88-7.7 449.88-11.25L449.88-11.25Q449.88-15.85 450.61-18.68 451.33-21.5 452.56-22.98 453.78-24.45 455.38-24.98 456.98-25.5 458.73-25.5L458.73-25.5Q461.78-25.5 463.43-23.58 465.08-21.65 465.08-17.4L465.08-17.4Q465.08-15.65 464.96-13.78 464.83-11.9 464.43-10.5L464.43-10.5Q462.88-10.15 460.93-10 458.98-9.85 457.13-9.78 455.28-9.7 454.11-9.7 452.93-9.7 452.93-9.7L452.93-9.7 452.98-13.8Q452.98-13.8 453.78-13.78 454.58-13.75 455.76-13.75 456.93-13.75 458.06-13.85 459.18-13.95 459.88-14.25L459.88-14.25Q460.03-14.75 460.08-15.55 460.13-16.35 460.13-16.95L460.13-16.95Q460.13-19.45 459.68-20.28 459.23-21.1 458.08-21.1L458.08-21.1Q457.33-21.1 456.78-20.58 456.23-20.05 455.86-18.9 455.48-17.75 455.31-15.95 455.13-14.15 455.13-11.55L455.13-11.55Q455.13-9.6 455.31-8.22 455.48-6.85 455.91-6.05 456.33-5.25 457.06-4.85 457.78-4.45 458.93-4.45L458.93-4.45Q460.33-4.45 461.71-4.83 463.08-5.2 464.33-5.9L464.33-5.9Q464.58-5.2 464.68-4.23 464.78-3.25 464.78-2.5L464.78-2.5Q464.78-1.55 463.81-0.88 462.83-0.2 461.23 0.15 459.63 0.5 457.73 0.5ZM468.03 0L468.03 0 468.03-23.85Q468.88-24.25 470.23-24.63 471.58-25 473.08-25.25 474.58-25.5 475.83-25.5L475.83-25.5Q478.43-25.5 479.98-24.9 481.53-24.3 482.25-22.88 482.98-21.45 482.98-18.95L482.98-18.95 482.98-0.95Q482.98-0.45 482.73-0.28 482.48-0.1 481.4-0.05 480.33 0 477.73 0L477.73 0 477.73-17.4Q477.73-19.5 477.33-20.3 476.93-21.1 475.63-21.1L475.63-21.1Q475.03-21.1 474.33-20.95 473.63-20.8 473.13-20.4L473.13-20.4 473.13-0.95Q473.13-0.45 472.9-0.28 472.68-0.1 471.6-0.05 470.53 0 468.03 0ZM493.38 9.8L493.38 9.8Q489.98 9.8 488.23 8.95 486.48 8.1 485.88 6.8 485.28 5.5 485.28 4.25L485.28 4.25Q485.28 2.45 486.28 0.98 487.28-0.5 488.88-1.6 490.48-2.7 492.38-3.2L492.38-3.2 494.08-1.75Q493.18-1.4 492.35-0.65 491.53 0.1 491.03 1.03 490.53 1.95 490.53 3L490.53 3Q490.53 3.65 490.8 4.15 491.08 4.65 491.83 4.9 492.58 5.15 493.88 5.15L493.88 5.15Q496.03 5.15 496.88 4.03 497.73 2.9 497.73 1.9L497.73 1.9Q497.73 0.95 497.33 0.38 496.93-0.2 495.73-0.53 494.53-0.85 492.03-1L492.03-1Q490.18-1.15 488.8-1.53 487.43-1.9 486.7-2.6 485.98-3.3 485.98-4.3L485.98-4.3Q486.03-5.15 486.48-6 486.93-6.85 487.85-7.8 488.78-8.75 490.18-9.75L490.18-9.75 493.23-8.75Q493.13-8.7 492.68-8.25 492.23-7.8 491.83-7.23 491.43-6.65 491.43-6.15L491.43-6.15Q491.43-5.5 492.83-5.35 494.23-5.2 496.28-4.9L496.28-4.9Q498.38-4.6 499.83-3.93 501.28-3.25 502.08-2.05 502.88-0.85 502.88 1.15L502.88 1.15Q502.88 3.5 501.9 5.48 500.93 7.45 498.83 8.63 496.73 9.8 493.38 9.8ZM493.93-7.7L493.93-7.7Q490.98-7.7 489.28-8.83 487.58-9.95 486.85-11.88 486.13-13.8 486.13-16.25L486.13-16.25Q486.13-19.7 487.15-21.73 488.18-23.75 490.08-24.63 491.98-25.5 494.53-25.5L494.53-25.5Q495.18-25.5 495.95-25.35 496.73-25.2 497.43-24.9L497.43-24.9 498.38-22.7Q500.03-21.9 501.03-20.3 502.03-18.7 502.03-16.05L502.03-16.05Q502.03-13.35 501.2-11.5 500.38-9.65 498.6-8.68 496.83-7.7 493.93-7.7ZM494.18-11.5L494.18-11.5Q495.13-11.5 495.7-12.03 496.28-12.55 496.58-13.85 496.88-15.15 496.88-17.35L496.88-17.35Q496.88-19.85 496.28-20.85 495.68-21.85 494.33-21.85L494.33-21.85Q493.53-21.85 492.88-21.38 492.23-20.9 491.88-19.73 491.53-18.55 491.53-16.45L491.53-16.45Q491.53-14.7 491.75-13.6 491.98-12.5 492.55-12 493.13-11.5 494.18-11.5ZM501.88-20.7L501.88-20.7Q501.13-20.7 500-21.05 498.88-21.4 497.75-21.83 496.63-22.25 495.88-22.6 495.13-22.95 495.13-22.95L495.13-22.95 495.18-25.05 502.98-25.05Q503.23-24.7 503.38-24.08 503.53-23.45 503.53-22.6L503.53-22.6Q503.53-21.6 503.08-21.15 502.63-20.7 501.88-20.7Z"
                                                                opacity="1" transform="matrix(1,0,0,1,0,0)"
                                                                fill="#ffffff" class="slogan-text-1"
                                                                data-fill-palette-color="secondary" id="text-1"></path>
                                                        </svg>
                                                    </g>
                                                </svg>
                                            </g>
                                        </svg>
                                    </g>
                                </svg>
                            </g>
                            <g transform="matrix(1,0,0,1,0,3.920341924002635)">
                                <svg viewBox="0 0 100.64759018128379 76.99875701380913" height="76.99875701380913"
                                     width="100.64759018128379">
                                    <g>
                                        <svg xmlns="http://www.w3.org/2000/svg" version="1.1" x="8" y="0" viewBox="0 0 99.99900055892094 90.963" enable-background="new 0 0 100 90.963" xml:space="preserve" width="84.64759018128379" height="76.99875701380913" class="icon-icon-0" data-fill-palette-color="accent" id="icon-0"><path d="M8.984 21.367v40.338H2.988C1.341 61.706 0 60.352 0 58.711V6.732l3.861-5.143C4.518 0.716 5.951 0 7.044 0h7.923c1.094 0 2.891 0 3.978 0h7.923c1.094 0 2.526 0.716 3.184 1.589l3.86 5.143H79.05c1.641 0 2.981 1.341 2.981 2.982v11.653H42.897l-3.86-5.143c-0.658-0.873-2.09-1.588-3.184-1.588H27.93c-1.094 0-2.884 0-3.978 0h-7.923c-1.094 0-2.526 0.716-3.184 1.588L8.984 21.367z" fill="#ffffff" data-fill-palette-color="accent"></path><path
                                            d="M97.012 35.99h-45.13l-3.868-5.13c-0.657-0.872-2.09-1.588-3.177-1.588h-7.923c-1.094 0-2.884 0-3.984 0h-7.917c-1.094 0-2.526 0.716-3.184 1.588l-3.861 5.13v51.992c0 1.641 1.341 2.981 2.975 2.981h76.068c1.647 0 2.988-1.341 2.988-2.981V38.984C100 37.331 98.659 35.99 97.012 35.99z"
                                            fill="#ffffff" data-fill-palette-color="accent"></path></svg>
                                    </g>
                                </svg>
                            </g>
                        </svg>
                    </g>
                    <defs></defs>
                    <mask id="98a0b749-b9f6-4bb3-b7ad-c9a7f572c381">
                        <g id="SvgjsG1015">
                            <svg viewBox="0 0 395.52 64.69182171311381" height="64.69182171311381" width="395.52">
                                <g>
                                    <svg viewBox="0 0 518.7007377605303 84.8394408618144" height="64.69182171311381"
                                         width="395.52">
                                        <g>
                                            <rect width="3.6136282012057825" height="84.8394408618144"
                                                  x="110.10734987030416" y="0" fill="black" opacity="1" stroke-width="0"
                                                  stroke="transparent" fill-opacity="1" class="rect-qz-0" rx="1%"
                                                  id="SvgjsRect1014" data-palette-color="#001f3e"></rect>
                                        </g>
                                        <g transform="matrix(1,0,0,1,123.18073776053032,0.21104338522838617)">
                                            <svg viewBox="0 0 395.52 84.41735409135762" height="84.41735409135762"
                                                 width="395.52">
                                                <g id="SvgjsG1013">
                                                    <svg viewBox="0 0 395.52 84.41735409135762"
                                                         height="84.41735409135762" width="395.52" id="SvgjsSvg1012">
                                                        <g>
                                                            <svg viewBox="0 0 395.52 40.07082333240301"
                                                                 height="40.07082333240301" width="395.52">
                                                                <g transform="matrix(1,0,0,1,0,0)">
                                                                    <svg width="395.52"
                                                                         viewBox="3.05 -35.65 358.28 36.3"
                                                                         height="40.07082333240301"
                                                                         data-palette-color="url(#f55c197f-821a-40d7-b9f7-34016dbfebd2)">
                                                                        <path
                                                                            d="M11.45 0L3.05 0 3.05-35 19.05-35Q22.6-35 25.53-33.45 28.45-31.9 30.18-29.15 31.9-26.4 31.9-22.8L31.9-22.8Q31.9-19.45 30.3-16.78 28.7-14.1 26.1-12.45L26.1-12.45 28.9-7.7Q29.15-7.35 29.48-7.15 29.8-6.95 30.35-6.95L30.35-6.95 33.45-6.95 33.45 0 28.55 0Q26.3 0 24.45-1.07 22.6-2.15 21.55-3.9L21.55-3.9 17.8-10.55Q17.45-10.55 17.07-10.55 16.7-10.55 16.3-10.55L16.3-10.55 11.45-10.55 11.45 0ZM11.45-28L11.45-17.5 18.1-17.5Q19.55-17.5 20.8-18.13 22.05-18.75 22.78-19.93 23.5-21.1 23.5-22.75L23.5-22.75Q23.5-24.4 22.75-25.58 22-26.75 20.78-27.38 19.55-28 18.1-28L18.1-28 11.45-28ZM61.25 0L46.6 0Q43.65 0 41.25-1.38 38.85-2.75 37.42-5.08 36-7.4 36-10.35L36-10.35Q36-12.55 36.97-14.48 37.95-16.4 39.6-17.8L39.6-17.8Q38-19.15 37.07-21 36.15-22.85 36.15-24.9L36.15-24.9Q36.15-27.8 37.55-30.08 38.95-32.35 41.3-33.68 43.65-35 46.5-35L46.5-35 61.25-35 61.25-27.95 47.8-28Q46.85-28 46.05-27.55 45.25-27.1 44.77-26.35 44.3-25.6 44.3-24.6L44.3-24.6Q44.3-23.65 44.77-22.88 45.25-22.1 46.05-21.68 46.85-21.25 47.8-21.25L47.8-21.25 59.55-21.25 59.55-14.25 48.05-14.25Q47-14.25 46.15-13.75 45.3-13.25 44.8-12.45 44.3-11.65 44.3-10.6L44.3-10.6Q44.3-9.6 44.8-8.78 45.3-7.95 46.15-7.5 47-7.05 48.05-7.05L48.05-7.05 61.25-7.05 61.25 0ZM90.9 0.6L90.9 0.6Q87.75 0.6 85.25-0.78 82.75-2.15 81.3-4.6 79.85-7.05 79.85-10.15L79.85-10.15 79.85-25.45Q79.85-26.25 79.45-26.9 79.05-27.55 78.4-27.95 77.75-28.35 76.95-28.35L76.95-28.35Q76.15-28.35 75.5-27.95 74.85-27.55 74.47-26.9 74.1-26.25 74.1-25.45L74.1-25.45 74.1 0 65.9 0 65.9-24.85Q65.9-28 67.32-30.4 68.75-32.8 71.27-34.2 73.8-35.6 76.95-35.6L76.95-35.6Q80.15-35.6 82.65-34.2 85.15-32.8 86.6-30.4 88.05-28 88.05-24.85L88.05-24.85 88.05-9.55Q88.05-8.75 88.45-8.08 88.85-7.4 89.47-7.03 90.1-6.65 90.85-6.65L90.85-6.65Q91.65-6.65 92.32-7.03 93-7.4 93.4-8.08 93.8-8.75 93.8-9.55L93.8-9.55 93.8-35 101.95-35 101.95-10.15Q101.95-7.05 100.5-4.6 99.05-2.15 96.55-0.78 94.05 0.6 90.9 0.6ZM124.69 0.65L124.69 0.65Q120.49 0.65 117.09-0.75 113.69-2.15 111.24-4.65 108.79-7.15 107.47-10.45 106.14-13.75 106.14-17.55L106.14-17.55Q106.14-21.35 107.47-24.63 108.79-27.9 111.24-30.4 113.69-32.9 117.09-34.27 120.49-35.65 124.69-35.65L124.69-35.65Q128.84-35.65 132.27-34.27 135.69-32.9 138.12-30.4 140.54-27.9 141.89-24.63 143.24-21.35 143.24-17.55L143.24-17.55Q143.24-13.75 141.89-10.45 140.54-7.15 138.12-4.65 135.69-2.15 132.27-0.75 128.84 0.65 124.69 0.65ZM124.69-6.5L124.69-6.5Q126.89-6.5 128.77-7.33 130.64-8.15 131.99-9.65 133.34-11.15 134.09-13.18 134.84-15.2 134.84-17.55L134.84-17.55Q134.84-19.9 134.09-21.9 133.34-23.9 131.99-25.4 130.64-26.9 128.77-27.73 126.89-28.55 124.69-28.55L124.69-28.55Q122.44-28.55 120.59-27.73 118.74-26.9 117.37-25.4 115.99-23.9 115.27-21.9 114.54-19.9 114.54-17.55L114.54-17.55Q114.54-15.2 115.27-13.18 115.99-11.15 117.37-9.65 118.74-8.15 120.59-7.33 122.44-6.5 124.69-6.5ZM173.79 0L160.94 0 160.94-35 173.79-35Q179.34-35 183.41-32.75 187.49-30.5 189.76-26.55 192.04-22.6 192.04-17.5L192.04-17.5Q192.04-12.4 189.76-8.45 187.49-4.5 183.41-2.25 179.34 0 173.79 0L173.79 0ZM169.34-28L169.34-7 173.59-7Q176.49-7 178.76-8.28 181.04-9.55 182.34-11.9 183.64-14.25 183.64-17.5L183.64-17.5Q183.64-20.75 182.34-23.1 181.04-25.45 178.76-26.73 176.49-28 173.59-28L173.59-28 169.34-28ZM216.14 0L195.69 0 195.69-7 201.74-7 201.74-28 195.69-28 195.69-35 216.14-35 216.14-28 210.09-28 210.09-7 216.14-7 216.14 0ZM246.08 0.6L246.08 0.6Q242.93 0.6 240.43-0.78 237.93-2.15 236.48-4.6 235.03-7.05 235.03-10.15L235.03-10.15 235.03-25.45Q235.03-26.25 234.63-26.9 234.23-27.55 233.58-27.95 232.93-28.35 232.13-28.35L232.13-28.35Q231.33-28.35 230.68-27.95 230.03-27.55 229.66-26.9 229.28-26.25 229.28-25.45L229.28-25.45 229.28 0 221.08 0 221.08-24.85Q221.08-28 222.51-30.4 223.93-32.8 226.46-34.2 228.98-35.6 232.13-35.6L232.13-35.6Q235.33-35.6 237.83-34.2 240.33-32.8 241.78-30.4 243.23-28 243.23-24.85L243.23-24.85 243.23-9.55Q243.23-8.75 243.63-8.08 244.03-7.4 244.66-7.03 245.28-6.65 246.03-6.65L246.03-6.65Q246.83-6.65 247.51-7.03 248.18-7.4 248.58-8.08 248.98-8.75 248.98-9.55L248.98-9.55 248.98-35 257.13-35 257.13-10.15Q257.13-7.05 255.68-4.6 254.23-2.15 251.73-0.78 249.23 0.6 246.08 0.6ZM279.28 0L263.13 0 263.13-7 278.08-7Q279.08-7 279.88-7.5 280.68-8 281.16-8.8 281.63-9.6 281.63-10.55L281.63-10.55Q281.63-11.55 281.16-12.35 280.68-13.15 279.88-13.65 279.08-14.15 278.08-14.15L278.08-14.15 272.68-14.15Q269.63-14.15 267.13-15.35 264.63-16.55 263.16-18.88 261.68-21.2 261.68-24.45L261.68-24.45Q261.68-27.65 263.08-30 264.48-32.35 266.88-33.68 269.28-35 272.18-35L272.18-35 287.63-35 287.63-28 273.13-28Q272.23-28 271.48-27.55 270.73-27.1 270.33-26.35 269.93-25.6 269.93-24.7L269.93-24.7Q269.93-23.8 270.33-23.08 270.73-22.35 271.48-21.9 272.23-21.45 273.13-21.45L273.13-21.45 278.78-21.45Q282.13-21.45 284.61-20.18 287.08-18.9 288.46-16.63 289.83-14.35 289.83-11.3L289.83-11.3Q289.83-7.7 288.41-5.18 286.98-2.65 284.58-1.33 282.18 0 279.28 0L279.28 0ZM311.43 0.65L311.43 0.65Q307.23 0.65 303.83-0.75 300.43-2.15 297.98-4.65 295.53-7.15 294.2-10.45 292.88-13.75 292.88-17.55L292.88-17.55Q292.88-21.35 294.2-24.63 295.53-27.9 297.98-30.4 300.43-32.9 303.83-34.27 307.23-35.65 311.43-35.65L311.43-35.65Q315.58-35.65 319-34.27 322.43-32.9 324.85-30.4 327.28-27.9 328.63-24.63 329.98-21.35 329.98-17.55L329.98-17.55Q329.98-13.75 328.63-10.45 327.28-7.15 324.85-4.65 322.43-2.15 319-0.75 315.58 0.65 311.43 0.65ZM311.43-6.5L311.43-6.5Q313.63-6.5 315.5-7.33 317.38-8.15 318.73-9.65 320.08-11.15 320.83-13.18 321.58-15.2 321.58-17.55L321.58-17.55Q321.58-19.9 320.83-21.9 320.08-23.9 318.73-25.4 317.38-26.9 315.5-27.73 313.63-28.55 311.43-28.55L311.43-28.55Q309.18-28.55 307.33-27.73 305.48-26.9 304.1-25.4 302.73-23.9 302-21.9 301.28-19.9 301.28-17.55L301.28-17.55Q301.28-15.2 302-13.18 302.73-11.15 304.1-9.65 305.48-8.15 307.33-7.33 309.18-6.5 311.43-6.5ZM350.78 0L334.63 0 334.63-7 349.58-7Q350.58-7 351.38-7.5 352.18-8 352.65-8.8 353.13-9.6 353.13-10.55L353.13-10.55Q353.13-11.55 352.65-12.35 352.18-13.15 351.38-13.65 350.58-14.15 349.58-14.15L349.58-14.15 344.18-14.15Q341.13-14.15 338.63-15.35 336.13-16.55 334.65-18.88 333.18-21.2 333.18-24.45L333.18-24.45Q333.18-27.65 334.58-30 335.98-32.35 338.38-33.68 340.78-35 343.68-35L343.68-35 359.13-35 359.13-28 344.63-28Q343.73-28 342.98-27.55 342.23-27.1 341.83-26.35 341.43-25.6 341.43-24.7L341.43-24.7Q341.43-23.8 341.83-23.08 342.23-22.35 342.98-21.9 343.73-21.45 344.63-21.45L344.63-21.45 350.28-21.45Q353.63-21.45 356.1-20.18 358.58-18.9 359.95-16.63 361.33-14.35 361.33-11.3L361.33-11.3Q361.33-7.7 359.9-5.18 358.48-2.65 356.08-1.33 353.68 0 350.78 0L350.78 0Z"
                                                                            opacity="1" transform="matrix(1,0,0,1,0,0)"
                                                                            fill="white" class="wordmark-text-0"
                                                                            id="SvgjsPath1011"></path>
                                                                    </svg>
                                                                </g>
                                                            </svg>
                                                        </g>
                                                        <g transform="matrix(1,0,0,1,0,49.53058302142338)">
                                                            <svg viewBox="0 0 375.74399999999997 34.88677106993425"
                                                                 height="34.88677106993425" width="375.74399999999997">
                                                                <g transform="matrix(1,0,0,1,0,0)">
                                                                    <svg width="375.74399999999997"
                                                                         viewBox="1.7 -36.75 501.83 46.6"
                                                                         height="34.88677106993425"
                                                                         data-palette-color="#001f3e">
                                                                        <path
                                                                            d="M7.65-13.75L3.3-13.75Q2.45-13.75 2.35-14.03 2.25-14.3 2.25-15.05L2.25-15.05 2.25-34Q2.25-34.05 2.27-34.52 2.3-35 3.05-35L3.05-35 7.45-35Q10.6-35 12.73-34.08 14.85-33.15 15.93-30.95 17-28.75 17-24.85L17-24.85Q17-21.55 16.23-19.4 15.45-17.25 14.1-16.03 12.75-14.8 11.08-14.28 9.4-13.75 7.65-13.75L7.65-13.75ZM1.7 0L1.7 0 1.7-34.05Q1.7-34.05 1.83-34.52 1.95-35 2.65-35L2.65-35 5.85-35Q6.55-35 6.68-34.52 6.8-34.05 6.8-34.05L6.8-34.05 6.8-0.95Q6.8-0.45 6.58-0.28 6.35-0.1 5.28-0.05 4.2 0 1.7 0ZM15.05 0.15L15.05 0.15Q14.45 0.15 13.68 0.1 12.9 0.05 12.05 0L12.05 0Q11.9-4.35 11.2-7.25 10.5-10.15 9.68-11.8 8.85-13.45 8.2-14.15 7.55-14.85 7.55-14.85L7.55-14.85Q7.55-14.85 7.43-15.2 7.3-15.55 7.9-15.85L7.9-15.85 10.75-17.45Q11.45-17.45 11.7-16.95L11.7-16.95Q11.7-16.95 12.55-16.1 13.4-15.25 14.5-13.35 15.6-11.45 16.55-8.43 17.5-5.4 17.65-1.05L17.65-1.05Q17.65-0.4 17.28-0.13 16.9 0.15 15.05 0.15ZM6.75-30.6L6.75-18.4 8.2-18.4Q9.2-18.4 9.88-18.98 10.55-19.55 10.93-21.03 11.3-22.5 11.3-25.1L11.3-25.1Q11.3-26.95 11.05-28.18 10.8-29.4 10.18-30 9.55-30.6 8.55-30.6L8.55-30.6 6.75-30.6ZM27.6 0.5L27.6 0.5Q24.6 0.5 22.97-0.4 21.35-1.3 20.7-3.03 20.05-4.75 20.05-7.25L20.05-7.25 20.05-24.05Q20.05-24.55 20.25-24.73 20.45-24.9 21.57-24.95 22.7-25 25.3-25L25.3-25 25.3-6.9Q25.3-5.9 25.47-5.23 25.65-4.55 26.12-4.23 26.6-3.9 27.55-3.9L27.55-3.9Q28.1-3.9 28.75-4.05 29.4-4.2 29.95-4.6L29.95-4.6 29.95-24.05Q29.95-24.55 30.15-24.73 30.35-24.9 31.4-24.95 32.45-25 35-25L35-25 35-1.35Q33.75-0.65 31.75-0.08 29.75 0.5 27.6 0.5ZM38.6 0L38.6 0 38.6-23.85Q40.15-24.55 42.12-25.03 44.1-25.5 46.25-25.5L46.25-25.5Q49.25-25.5 50.67-24.05 52.1-22.6 52.52-19.9 52.95-17.2 52.95-13.4L52.95-13.4 52.95-0.95Q52.95-0.45 52.7-0.28 52.45-0.1 51.37-0.05 50.3 0 47.85 0L47.85 0 47.85-18.7Q47.85-19.7 47.75-20.2 47.65-20.7 47.27-20.9 46.9-21.1 46.1-21.1L46.1-21.1Q45.5-21.1 44.87-20.93 44.25-20.75 43.7-20.45L43.7-20.45 43.7-0.95Q43.7-0.45 43.45-0.28 43.2-0.1 42.15-0.05 41.1 0 38.6 0ZM47.85 0L47.85 0 47.85-21.3Q48-22.5 49.37-23.45 50.75-24.4 52.72-24.95 54.7-25.5 56.5-25.5L56.5-25.5Q59.05-25.5 60.25-24.7 61.45-23.9 61.8-22.35 62.15-20.8 62.15-18.6L62.15-18.6 62.15-0.95Q62.15-0.45 61.9-0.28 61.65-0.1 60.57-0.05 59.5 0 57.05 0L57.05 0 57.05-18.55Q57.05-19.9 56.7-20.48 56.35-21.05 55.3-21.05L55.3-21.05Q54.7-21.05 54.1-20.9 53.5-20.75 52.95-20.4L52.95-20.4 52.95-0.95Q52.95-0.45 52.75-0.28 52.55-0.1 51.5-0.05 50.45 0 47.85 0ZM72.04 0.5L72.04 0.5Q70.64 0.5 69.37 0.25 68.09 0 67.09-0.78 66.09-1.55 65.52-3.1 64.94-4.65 64.94-7.25L64.94-7.25Q64.94-9.8 65.44-11.43 65.94-13.05 66.82-13.95 67.69-14.85 68.77-15.15 69.84-15.45 70.99-15.45L70.99-15.45Q71.64-15.45 72.67-15.3 73.69-15.15 74.34-14.75L74.34-14.75Q74.34-14.75 74.34-15.38 74.34-16 74.34-16.82 74.34-17.65 74.34-18.35L74.34-18.35Q74.34-19.2 74.09-19.68 73.84-20.15 73.32-20.38 72.79-20.6 71.94-20.6L71.94-20.6Q70.34-20.6 68.62-20.28 66.89-19.95 65.69-19.5L65.69-19.5Q65.29-20.3 65.17-21.1 65.04-21.9 65.04-22.45L65.04-22.45Q65.04-22.9 65.19-23.38 65.34-23.85 65.69-24.1L65.69-24.1Q66.24-24.5 68.24-25 70.24-25.5 73.19-25.5L73.19-25.5Q76.54-25.5 77.99-24.15 79.44-22.8 79.44-19.4L79.44-19.4 79.44-16.95Q79.44-14.1 79.44-11.15 79.44-8.2 79.39-5.6 79.34-3 79.19-1.15L79.19-1.15Q77.99-0.45 76.19 0.03 74.39 0.5 72.04 0.5ZM72.44-3.7L72.44-3.7Q72.94-3.7 73.47-3.88 73.99-4.05 74.24-4.3L74.24-4.3Q74.29-4.95 74.32-6.18 74.34-7.4 74.34-8.78 74.34-10.15 74.34-11.3L74.34-11.3Q74.04-11.55 73.57-11.63 73.09-11.7 72.69-11.7L72.69-11.7Q72.19-11.7 71.74-11.53 71.29-11.35 70.97-10.88 70.64-10.4 70.47-9.55 70.29-8.7 70.29-7.35L70.29-7.35Q70.29-6.3 70.42-5.6 70.54-4.9 70.82-4.48 71.09-4.05 71.49-3.88 71.89-3.7 72.44-3.7ZM82.79 0L82.79 0 82.79-34.5Q82.79-35.65 83.19-36.1 83.59-36.55 84.69-36.65 85.79-36.75 87.89-36.75L87.89-36.75 87.89-23.7Q88.84-24.6 90.22-25.05 91.59-25.5 92.89-25.5L92.89-25.5Q94.94-25.5 95.97-24.75 96.99-24 97.34-22.58 97.69-21.15 97.69-19L97.69-19 97.69-0.95Q97.69-0.45 97.42-0.28 97.14-0.1 96.04-0.05 94.94 0 92.44 0L92.44 0 92.44-17.45Q92.44-18.8 92.12-19.8 91.79-20.8 90.44-20.8L90.44-20.8Q89.84-20.8 89.19-20.63 88.54-20.45 87.89-19.95L87.89-19.95 87.89-0.95Q87.89-0.45 87.67-0.28 87.44-0.1 86.39-0.05 85.34 0 82.79 0ZM114.69 0L108.34 0 108.34-34Q108.34-34.5 108.61-34.75 108.89-35 109.69-35L109.69-35 114.54-35Q116.99-35 118.84-34.3 120.69-33.6 121.89-31.88 123.09-30.15 123.71-27.08 124.34-24 124.34-19.25L124.34-19.25Q124.34-14.1 123.74-10.43 123.14-6.75 121.96-4.45 120.79-2.15 118.99-1.07 117.19 0 114.69 0L114.69 0ZM113.39-30.35L113.39-4.8 114.84-4.8Q115.54-4.8 116.19-5.33 116.84-5.85 117.36-7.4 117.89-8.95 118.19-11.93 118.49-14.9 118.49-19.8L118.49-19.8Q118.49-23.2 118.24-25.28 117.99-27.35 117.51-28.48 117.04-29.6 116.36-29.98 115.69-30.35 114.79-30.35L114.79-30.35 113.39-30.35ZM133.28 0.5L133.28 0.5Q131.88 0.5 130.61 0.25 129.33 0 128.33-0.78 127.33-1.55 126.76-3.1 126.18-4.65 126.18-7.25L126.18-7.25Q126.18-9.8 126.68-11.43 127.18-13.05 128.06-13.95 128.93-14.85 130.01-15.15 131.08-15.45 132.23-15.45L132.23-15.45Q132.88-15.45 133.91-15.3 134.93-15.15 135.58-14.75L135.58-14.75Q135.58-14.75 135.58-15.38 135.58-16 135.58-16.82 135.58-17.65 135.58-18.35L135.58-18.35Q135.58-19.2 135.33-19.68 135.08-20.15 134.56-20.38 134.03-20.6 133.18-20.6L133.18-20.6Q131.58-20.6 129.86-20.28 128.13-19.95 126.93-19.5L126.93-19.5Q126.53-20.3 126.41-21.1 126.28-21.9 126.28-22.45L126.28-22.45Q126.28-22.9 126.43-23.38 126.58-23.85 126.93-24.1L126.93-24.1Q127.48-24.5 129.48-25 131.48-25.5 134.43-25.5L134.43-25.5Q137.78-25.5 139.23-24.15 140.68-22.8 140.68-19.4L140.68-19.4 140.68-16.95Q140.68-14.1 140.68-11.15 140.68-8.2 140.63-5.6 140.58-3 140.43-1.15L140.43-1.15Q139.23-0.45 137.43 0.03 135.63 0.5 133.28 0.5ZM133.68-3.7L133.68-3.7Q134.18-3.7 134.71-3.88 135.23-4.05 135.48-4.3L135.48-4.3Q135.53-4.95 135.56-6.18 135.58-7.4 135.58-8.78 135.58-10.15 135.58-11.3L135.58-11.3Q135.28-11.55 134.81-11.63 134.33-11.7 133.93-11.7L133.93-11.7Q133.43-11.7 132.98-11.53 132.53-11.35 132.21-10.88 131.88-10.4 131.71-9.55 131.53-8.7 131.53-7.35L131.53-7.35Q131.53-6.3 131.66-5.6 131.78-4.9 132.06-4.48 132.33-4.05 132.73-3.88 133.13-3.7 133.68-3.7ZM150.53 0.5L150.53 0.5Q148.38 0.5 147.28-0.35 146.18-1.2 145.83-2.83 145.48-4.45 145.48-6.7L145.48-6.7 145.48-20.65 142.33-20.65Q142.33-22.65 142.38-23.55 142.43-24.45 142.66-24.73 142.88-25 143.38-25L143.38-25 145.48-25 145.48-32.35Q145.48-33.2 145.91-33.52 146.33-33.85 147.43-33.93 148.53-34 150.58-34L150.58-34 150.58-25 154.98-25Q154.98-23.05 154.96-22.13 154.93-21.2 154.71-20.93 154.48-20.65 153.98-20.65L153.98-20.65 150.58-20.65 150.58-6.75Q150.58-6.05 150.63-5.35 150.68-4.65 150.98-4.25 151.28-3.85 151.98-3.85L151.98-3.85Q152.73-3.85 153.33-4 153.93-4.15 154.68-4.5L154.68-4.5Q154.78-4.05 154.88-3.43 154.98-2.8 154.98-2.05L154.98-2.05Q154.98-0.95 154.26-0.4 153.53 0.15 152.51 0.33 151.48 0.5 150.53 0.5ZM163.83 0.5L163.83 0.5Q162.43 0.5 161.15 0.25 159.88 0 158.88-0.78 157.88-1.55 157.3-3.1 156.73-4.65 156.73-7.25L156.73-7.25Q156.73-9.8 157.23-11.43 157.73-13.05 158.6-13.95 159.48-14.85 160.55-15.15 161.63-15.45 162.78-15.45L162.78-15.45Q163.43-15.45 164.45-15.3 165.48-15.15 166.13-14.75L166.13-14.75Q166.13-14.75 166.13-15.38 166.13-16 166.13-16.82 166.13-17.65 166.13-18.35L166.13-18.35Q166.13-19.2 165.88-19.68 165.63-20.15 165.1-20.38 164.58-20.6 163.73-20.6L163.73-20.6Q162.13-20.6 160.4-20.28 158.68-19.95 157.48-19.5L157.48-19.5Q157.08-20.3 156.95-21.1 156.83-21.9 156.83-22.45L156.83-22.45Q156.83-22.9 156.98-23.38 157.13-23.85 157.48-24.1L157.48-24.1Q158.03-24.5 160.03-25 162.03-25.5 164.98-25.5L164.98-25.5Q168.33-25.5 169.78-24.15 171.23-22.8 171.23-19.4L171.23-19.4 171.23-16.95Q171.23-14.1 171.23-11.15 171.23-8.2 171.18-5.6 171.13-3 170.98-1.15L170.98-1.15Q169.78-0.45 167.98 0.03 166.18 0.5 163.83 0.5ZM164.23-3.7L164.23-3.7Q164.73-3.7 165.25-3.88 165.78-4.05 166.03-4.3L166.03-4.3Q166.08-4.95 166.1-6.18 166.13-7.4 166.13-8.78 166.13-10.15 166.13-11.3L166.13-11.3Q165.83-11.55 165.35-11.63 164.88-11.7 164.48-11.7L164.48-11.7Q163.98-11.7 163.53-11.53 163.08-11.35 162.75-10.88 162.43-10.4 162.25-9.55 162.08-8.7 162.08-7.35L162.08-7.35Q162.08-6.3 162.2-5.6 162.33-4.9 162.6-4.48 162.88-4.05 163.28-3.88 163.68-3.7 164.23-3.7ZM186.82 0L186.82 0 186.82-34.45Q186.82-34.45 186.95-34.48 187.07-34.5 187.77-34.5L187.77-34.5 190.97-34.5Q191.67-34.5 191.8-34.48 191.92-34.45 191.92-34.45L191.92-34.45 191.92-0.95Q191.92-0.45 191.7-0.28 191.47-0.1 190.4-0.05 189.32 0 186.82 0ZM197.47-30.25L180.47-30.25 180.47-34.05Q180.47-35 181.42-35L181.42-35 198.42-35 198.42-31.15Q198.42-30.6 198.22-30.43 198.02-30.25 197.47-30.25L197.47-30.25ZM203.52 0.5L203.52 0.5Q201.82 0.5 200.37 0 198.92-0.5 197.87-1.8 196.82-3.1 196.25-5.4 195.67-7.7 195.67-11.25L195.67-11.25Q195.67-15.85 196.4-18.68 197.12-21.5 198.35-22.98 199.57-24.45 201.17-24.98 202.77-25.5 204.52-25.5L204.52-25.5Q207.57-25.5 209.22-23.58 210.87-21.65 210.87-17.4L210.87-17.4Q210.87-15.65 210.75-13.78 210.62-11.9 210.22-10.5L210.22-10.5Q208.67-10.15 206.72-10 204.77-9.85 202.92-9.78 201.07-9.7 199.9-9.7 198.72-9.7 198.72-9.7L198.72-9.7 198.77-13.8Q198.77-13.8 199.57-13.78 200.37-13.75 201.55-13.75 202.72-13.75 203.85-13.85 204.97-13.95 205.67-14.25L205.67-14.25Q205.82-14.75 205.87-15.55 205.92-16.35 205.92-16.95L205.92-16.95Q205.92-19.45 205.47-20.28 205.02-21.1 203.87-21.1L203.87-21.1Q203.12-21.1 202.57-20.58 202.02-20.05 201.65-18.9 201.27-17.75 201.1-15.95 200.92-14.15 200.92-11.55L200.92-11.55Q200.92-9.6 201.1-8.22 201.27-6.85 201.7-6.05 202.12-5.25 202.85-4.85 203.57-4.45 204.72-4.45L204.72-4.45Q206.12-4.45 207.5-4.83 208.87-5.2 210.12-5.9L210.12-5.9Q210.37-5.2 210.47-4.23 210.57-3.25 210.57-2.5L210.57-2.5Q210.57-1.55 209.6-0.88 208.62-0.2 207.02 0.15 205.42 0.5 203.52 0.5ZM213.82 0L213.82 0 213.82-23.25Q215.17-24.2 216.94-24.85 218.72-25.5 220.72-25.5L220.72-25.5Q222.72-25.5 223.42-24.93 224.12-24.35 224.12-23.15L224.12-23.15Q224.12-22.65 224.02-21.83 223.92-21 223.62-20.15L223.62-20.15Q223.07-20.45 222.57-20.55 222.07-20.65 221.57-20.65L221.57-20.65Q220.97-20.65 220.29-20.43 219.62-20.2 219.02-19.75L219.02-19.75 218.97-0.95Q218.97-0.45 218.77-0.28 218.57-0.1 217.49-0.05 216.42 0 213.82 0ZM228.97 9.85L228.97 9.85Q227.67 9.85 227.09 9.4 226.52 8.95 226.52 7.65L226.52 7.65 226.52-23.55Q228.02-24.45 229.97-24.98 231.92-25.5 233.92-25.5L233.92-25.5Q236.32-25.5 238.14-24.65 239.97-23.8 240.97-21.58 241.97-19.35 241.97-15.25L241.97-15.25Q241.97-11.25 241.62-8.47 241.27-5.7 240.62-3.93 239.97-2.15 239.09-1.2 238.22-0.25 237.22 0.13 236.22 0.5 235.12 0.5L235.12 0.5Q233.97 0.5 233.09 0.23 232.22-0.05 231.62-0.6L231.62-0.6 231.62 9.45Q231.02 9.6 230.32 9.73 229.62 9.85 228.97 9.85ZM233.47-4L233.47-4Q233.92-4 234.39-4.35 234.87-4.7 235.32-5.78 235.77-6.85 236.02-9.03 236.27-11.2 236.27-14.9L236.27-14.9Q236.27-17.5 235.99-18.82 235.72-20.15 235.14-20.63 234.57-21.1 233.62-21.1L233.62-21.1Q232.52-21.1 231.62-20.4L231.62-20.4 231.62-5.15Q232.02-4.55 232.47-4.28 232.92-4 233.47-4ZM251.36 0.5L251.36 0.5Q249.96 0.5 248.69 0.25 247.41 0 246.41-0.78 245.41-1.55 244.84-3.1 244.26-4.65 244.26-7.25L244.26-7.25Q244.26-9.8 244.76-11.43 245.26-13.05 246.14-13.95 247.01-14.85 248.09-15.15 249.16-15.45 250.31-15.45L250.31-15.45Q250.96-15.45 251.99-15.3 253.01-15.15 253.66-14.75L253.66-14.75Q253.66-14.75 253.66-15.38 253.66-16 253.66-16.82 253.66-17.65 253.66-18.35L253.66-18.35Q253.66-19.2 253.41-19.68 253.16-20.15 252.64-20.38 252.11-20.6 251.26-20.6L251.26-20.6Q249.66-20.6 247.94-20.28 246.21-19.95 245.01-19.5L245.01-19.5Q244.61-20.3 244.49-21.1 244.36-21.9 244.36-22.45L244.36-22.45Q244.36-22.9 244.51-23.38 244.66-23.85 245.01-24.1L245.01-24.1Q245.56-24.5 247.56-25 249.56-25.5 252.51-25.5L252.51-25.5Q255.86-25.5 257.31-24.15 258.76-22.8 258.76-19.4L258.76-19.4 258.76-16.95Q258.76-14.1 258.76-11.15 258.76-8.2 258.71-5.6 258.66-3 258.51-1.15L258.51-1.15Q257.31-0.45 255.51 0.03 253.71 0.5 251.36 0.5ZM251.76-3.7L251.76-3.7Q252.26-3.7 252.79-3.88 253.31-4.05 253.56-4.3L253.56-4.3Q253.61-4.95 253.64-6.18 253.66-7.4 253.66-8.78 253.66-10.15 253.66-11.3L253.66-11.3Q253.36-11.55 252.89-11.63 252.41-11.7 252.01-11.7L252.01-11.7Q251.51-11.7 251.06-11.53 250.61-11.35 250.29-10.88 249.96-10.4 249.79-9.55 249.61-8.7 249.61-7.35L249.61-7.35Q249.61-6.3 249.74-5.6 249.86-4.9 250.14-4.48 250.41-4.05 250.81-3.88 251.21-3.7 251.76-3.7ZM269.56 0.5L269.56 0.5Q267.91 0.5 266.46 0.13 265.01-0.25 263.86-1.45 262.71-2.65 262.09-5.05 261.46-7.45 261.46-11.45L261.46-11.45Q261.46-16.5 262.39-19.6 263.31-22.7 264.94-24.1 266.56-25.5 268.56-25.5L268.56-25.5Q269.61-25.5 270.41-25.25 271.21-25 271.71-24.55L271.71-24.55 271.71-34.5Q271.71-35.65 272.11-36.1 272.51-36.55 273.61-36.65 274.71-36.75 276.81-36.75L276.81-36.75 276.81-1Q275.56-0.45 273.76 0.03 271.96 0.5 269.56 0.5ZM269.61-4L269.61-4Q270.26-4 270.76-4.15 271.26-4.3 271.71-4.6L271.71-4.6 271.71-20.75Q271.41-20.95 271.04-21.03 270.66-21.1 270.26-21.1L270.26-21.1Q269.76-21.1 269.21-20.85 268.66-20.6 268.16-19.68 267.66-18.75 267.41-16.95 267.16-15.15 267.16-12.05L267.16-12.05Q267.16-9.6 267.31-8.03 267.46-6.45 267.76-5.58 268.06-4.7 268.54-4.35 269.01-4 269.61-4ZM287.81 0.5L287.81 0.5Q284.81 0.5 283.18-0.4 281.56-1.3 280.91-3.03 280.26-4.75 280.26-7.25L280.26-7.25 280.26-24.05Q280.26-24.55 280.46-24.73 280.66-24.9 281.78-24.95 282.91-25 285.51-25L285.51-25 285.51-6.9Q285.51-5.9 285.68-5.23 285.86-4.55 286.33-4.23 286.81-3.9 287.76-3.9L287.76-3.9Q288.31-3.9 288.96-4.05 289.61-4.2 290.16-4.6L290.16-4.6 290.16-24.05Q290.16-24.55 290.36-24.73 290.56-24.9 291.61-24.95 292.66-25 295.21-25L295.21-25 295.21-1.35Q293.96-0.65 291.96-0.08 289.96 0.5 287.81 0.5ZM320.4 0.1L320.4 0.1Q319.55 0.1 318.65 0.05 317.75 0 316.8-0.05L316.8-0.05Q316.65-2.55 316.38-4.83 316.1-7.1 315.68-9.08 315.25-11.05 314.53-12.68 313.8-14.3 312.75-15.5L312.75-15.5Q312.15-16.15 311.4-16.53 310.65-16.9 309.95-17L309.95-17 309.95-17.8 317.35-34.7Q318.25-34.9 319.1-34.98 319.95-35.05 320.6-35.05L320.6-35.05Q323.3-35.05 322.75-33.7L322.75-33.7 316.25-20Q319.1-17.55 320.65-12.7 322.2-7.85 322.55-1L322.55-1Q322.55-0.4 322.15-0.15 321.75 0.1 320.4 0.1ZM305.9 0L305.9 0 305.9-34.05Q305.9-34.55 306.13-34.73 306.35-34.9 307.4-34.95 308.45-35 311.05-35L311.05-35 311.05-0.95Q311.05-0.45 310.85-0.28 310.65-0.1 309.55-0.05 308.45 0 305.9 0ZM331.9 0.5L331.9 0.5Q330.5 0.5 329.23 0.25 327.95 0 326.95-0.78 325.95-1.55 325.38-3.1 324.8-4.65 324.8-7.25L324.8-7.25Q324.8-9.8 325.3-11.43 325.8-13.05 326.68-13.95 327.55-14.85 328.63-15.15 329.7-15.45 330.85-15.45L330.85-15.45Q331.5-15.45 332.53-15.3 333.55-15.15 334.2-14.75L334.2-14.75Q334.2-14.75 334.2-15.38 334.2-16 334.2-16.82 334.2-17.65 334.2-18.35L334.2-18.35Q334.2-19.2 333.95-19.68 333.7-20.15 333.18-20.38 332.65-20.6 331.8-20.6L331.8-20.6Q330.2-20.6 328.48-20.28 326.75-19.95 325.55-19.5L325.55-19.5Q325.15-20.3 325.03-21.1 324.9-21.9 324.9-22.45L324.9-22.45Q324.9-22.9 325.05-23.38 325.2-23.85 325.55-24.1L325.55-24.1Q326.1-24.5 328.1-25 330.1-25.5 333.05-25.5L333.05-25.5Q336.4-25.5 337.85-24.15 339.3-22.8 339.3-19.4L339.3-19.4 339.3-16.95Q339.3-14.1 339.3-11.15 339.3-8.2 339.25-5.6 339.2-3 339.05-1.15L339.05-1.15Q337.85-0.45 336.05 0.03 334.25 0.5 331.9 0.5ZM332.3-3.7L332.3-3.7Q332.8-3.7 333.33-3.88 333.85-4.05 334.1-4.3L334.1-4.3Q334.15-4.95 334.18-6.18 334.2-7.4 334.2-8.78 334.2-10.15 334.2-11.3L334.2-11.3Q333.9-11.55 333.43-11.63 332.95-11.7 332.55-11.7L332.55-11.7Q332.05-11.7 331.6-11.53 331.15-11.35 330.83-10.88 330.5-10.4 330.33-9.55 330.15-8.7 330.15-7.35L330.15-7.35Q330.15-6.3 330.28-5.6 330.4-4.9 330.68-4.48 330.95-4.05 331.35-3.88 331.75-3.7 332.3-3.7ZM348.6 0.5L348.6 0.5Q346.6 0.5 345.1 0.08 343.6-0.35 342.75-1L342.75-1 342.75-34.45Q342.75-35.6 343.15-36.08 343.55-36.55 344.62-36.65 345.7-36.75 347.85-36.75L347.85-36.75 347.85-23.95Q348.7-24.7 349.85-25.1 351-25.5 352.45-25.5L352.45-25.5Q354.45-25.5 355.72-24.53 357-23.55 357.62-21.35 358.25-19.15 358.25-15.45L358.25-15.45Q358.25-11.2 357.67-8.3 357.1-5.4 356.1-3.65 355.1-1.9 353.85-1 352.6-0.1 351.25 0.2 349.9 0.5 348.6 0.5ZM349.35-3.95L349.35-3.95Q349.8-3.95 350.35-4.35 350.9-4.75 351.37-5.85 351.85-6.95 352.17-9.03 352.5-11.1 352.5-14.5L352.5-14.5Q352.5-16.9 352.22-18.32 351.95-19.75 351.45-20.35 350.95-20.95 350.1-20.95L350.1-20.95Q349.5-20.95 348.92-20.75 348.35-20.55 347.85-20L347.85-20 347.85-4.45Q348.1-4.25 348.45-4.1 348.8-3.95 349.35-3.95ZM364.1 0.35L364.1 0.35Q362.2 0.35 361.5-0.53 360.8-1.4 360.8-3L360.8-3Q360.8-4.35 361.65-5.38 362.5-6.4 364.1-6.4L364.1-6.4Q365.95-6.4 366.67-5.45 367.4-4.5 367.4-3L367.4-3Q367.4-1.65 366.52-0.65 365.65 0.35 364.1 0.35ZM383.49 0.5L383.49 0.5Q380.14 0.5 378.54-0.5 376.94-1.5 376.94-2.75L376.94-2.75Q376.94-3.5 377.22-4.53 377.49-5.55 378.14-6.4L378.14-6.4Q378.94-5.7 380.19-5.2 381.44-4.7 382.94-4.7L382.94-4.7Q385.19-4.7 386.09-5.88 386.99-7.05 386.99-9L386.99-9Q386.99-10.4 386.47-11.65 385.94-12.9 384.54-14.7L384.54-14.7 379.84-20.7Q378.14-22.95 377.54-24.63 376.94-26.3 376.94-28L376.94-28Q376.94-31.35 379.17-33.43 381.39-35.5 385.74-35.5L385.74-35.5Q389.44-35.5 390.94-34.75 392.44-34 392.44-32.8L392.44-32.8Q392.44-32.15 392.17-31.4 391.89-30.65 391.24-29.95L391.24-29.95Q390.79-30.25 389.52-30.63 388.24-31 386.69-31L386.69-31Q384.74-31 383.59-30.28 382.44-29.55 382.44-28.15L382.44-28.15Q382.44-26.95 382.94-25.93 383.44-24.9 384.44-23.55L384.44-23.55 389.44-17.4Q391.29-15.1 391.92-13.23 392.54-11.35 392.54-9.15L392.54-9.15Q392.54-6.65 391.74-4.45 390.94-2.25 389.02-0.88 387.09 0.5 383.49 0.5ZM402.44 0.5L402.44 0.5Q400.49 0.5 398.99 0.03 397.49-0.45 396.51-1.83 395.54-3.2 395.04-5.78 394.54-8.35 394.54-12.55L394.54-12.55Q394.54-19.35 396.74-22.43 398.94-25.5 402.84-25.5L402.84-25.5Q405.54-25.5 407.26-24.43 408.99-23.35 409.81-20.55 410.64-17.75 410.64-12.7L410.64-12.7Q410.64-5.55 408.56-2.53 406.49 0.5 402.44 0.5ZM402.59-3.75L402.59-3.75Q403.29-3.75 403.84-4.35 404.39-4.95 404.74-6.85 405.09-8.75 405.09-12.6L405.09-12.6Q405.09-16.35 404.86-18.2 404.64-20.05 404.11-20.65 403.59-21.25 402.69-21.25L402.69-21.25Q401.94-21.25 401.36-20.6 400.79-19.95 400.46-18.07 400.14-16.2 400.14-12.55L400.14-12.55Q400.14-9.6 400.29-7.8 400.44-6 400.74-5.15 401.04-4.3 401.51-4.03 401.99-3.75 402.59-3.75ZM416.09 9.85L416.09 9.85Q414.79 9.85 414.21 9.4 413.64 8.95 413.64 7.65L413.64 7.65 413.64-23.55Q415.14-24.45 417.09-24.98 419.04-25.5 421.04-25.5L421.04-25.5Q423.44-25.5 425.26-24.65 427.09-23.8 428.09-21.58 429.09-19.35 429.09-15.25L429.09-15.25Q429.09-11.25 428.74-8.47 428.39-5.7 427.74-3.93 427.09-2.15 426.21-1.2 425.34-0.25 424.34 0.13 423.34 0.5 422.24 0.5L422.24 0.5Q421.09 0.5 420.21 0.23 419.34-0.05 418.74-0.6L418.74-0.6 418.74 9.45Q418.14 9.6 417.44 9.73 416.74 9.85 416.09 9.85ZM420.59-4L420.59-4Q421.04-4 421.51-4.35 421.99-4.7 422.44-5.78 422.89-6.85 423.14-9.03 423.39-11.2 423.39-14.9L423.39-14.9Q423.39-17.5 423.11-18.82 422.84-20.15 422.26-20.63 421.69-21.1 420.74-21.1L420.74-21.1Q419.64-21.1 418.74-20.4L418.74-20.4 418.74-5.15Q419.14-4.55 419.59-4.28 420.04-4 420.59-4ZM434.53 9.85L434.53 9.85Q433.23 9.85 432.66 9.4 432.08 8.95 432.08 7.65L432.08 7.65 432.08-23.55Q433.58-24.45 435.53-24.98 437.48-25.5 439.48-25.5L439.48-25.5Q441.88-25.5 443.71-24.65 445.53-23.8 446.53-21.58 447.53-19.35 447.53-15.25L447.53-15.25Q447.53-11.25 447.18-8.47 446.83-5.7 446.18-3.93 445.53-2.15 444.66-1.2 443.78-0.25 442.78 0.13 441.78 0.5 440.68 0.5L440.68 0.5Q439.53 0.5 438.66 0.23 437.78-0.05 437.18-0.6L437.18-0.6 437.18 9.45Q436.58 9.6 435.88 9.73 435.18 9.85 434.53 9.85ZM439.03-4L439.03-4Q439.48-4 439.96-4.35 440.43-4.7 440.88-5.78 441.33-6.85 441.58-9.03 441.83-11.2 441.83-14.9L441.83-14.9Q441.83-17.5 441.56-18.82 441.28-20.15 440.71-20.63 440.13-21.1 439.18-21.1L439.18-21.1Q438.08-21.1 437.18-20.4L437.18-20.4 437.18-5.15Q437.58-4.55 438.03-4.28 438.48-4 439.03-4ZM457.73 0.5L457.73 0.5Q456.03 0.5 454.58 0 453.13-0.5 452.08-1.8 451.03-3.1 450.46-5.4 449.88-7.7 449.88-11.25L449.88-11.25Q449.88-15.85 450.61-18.68 451.33-21.5 452.56-22.98 453.78-24.45 455.38-24.98 456.98-25.5 458.73-25.5L458.73-25.5Q461.78-25.5 463.43-23.58 465.08-21.65 465.08-17.4L465.08-17.4Q465.08-15.65 464.96-13.78 464.83-11.9 464.43-10.5L464.43-10.5Q462.88-10.15 460.93-10 458.98-9.85 457.13-9.78 455.28-9.7 454.11-9.7 452.93-9.7 452.93-9.7L452.93-9.7 452.98-13.8Q452.98-13.8 453.78-13.78 454.58-13.75 455.76-13.75 456.93-13.75 458.06-13.85 459.18-13.95 459.88-14.25L459.88-14.25Q460.03-14.75 460.08-15.55 460.13-16.35 460.13-16.95L460.13-16.95Q460.13-19.45 459.68-20.28 459.23-21.1 458.08-21.1L458.08-21.1Q457.33-21.1 456.78-20.58 456.23-20.05 455.86-18.9 455.48-17.75 455.31-15.95 455.13-14.15 455.13-11.55L455.13-11.55Q455.13-9.6 455.31-8.22 455.48-6.85 455.91-6.05 456.33-5.25 457.06-4.85 457.78-4.45 458.93-4.45L458.93-4.45Q460.33-4.45 461.71-4.83 463.08-5.2 464.33-5.9L464.33-5.9Q464.58-5.2 464.68-4.23 464.78-3.25 464.78-2.5L464.78-2.5Q464.78-1.55 463.81-0.88 462.83-0.2 461.23 0.15 459.63 0.5 457.73 0.5ZM468.03 0L468.03 0 468.03-23.85Q468.88-24.25 470.23-24.63 471.58-25 473.08-25.25 474.58-25.5 475.83-25.5L475.83-25.5Q478.43-25.5 479.98-24.9 481.53-24.3 482.25-22.88 482.98-21.45 482.98-18.95L482.98-18.95 482.98-0.95Q482.98-0.45 482.73-0.28 482.48-0.1 481.4-0.05 480.33 0 477.73 0L477.73 0 477.73-17.4Q477.73-19.5 477.33-20.3 476.93-21.1 475.63-21.1L475.63-21.1Q475.03-21.1 474.33-20.95 473.63-20.8 473.13-20.4L473.13-20.4 473.13-0.95Q473.13-0.45 472.9-0.28 472.68-0.1 471.6-0.05 470.53 0 468.03 0ZM493.38 9.8L493.38 9.8Q489.98 9.8 488.23 8.95 486.48 8.1 485.88 6.8 485.28 5.5 485.28 4.25L485.28 4.25Q485.28 2.45 486.28 0.98 487.28-0.5 488.88-1.6 490.48-2.7 492.38-3.2L492.38-3.2 494.08-1.75Q493.18-1.4 492.35-0.65 491.53 0.1 491.03 1.03 490.53 1.95 490.53 3L490.53 3Q490.53 3.65 490.8 4.15 491.08 4.65 491.83 4.9 492.58 5.15 493.88 5.15L493.88 5.15Q496.03 5.15 496.88 4.03 497.73 2.9 497.73 1.9L497.73 1.9Q497.73 0.95 497.33 0.38 496.93-0.2 495.73-0.53 494.53-0.85 492.03-1L492.03-1Q490.18-1.15 488.8-1.53 487.43-1.9 486.7-2.6 485.98-3.3 485.98-4.3L485.98-4.3Q486.03-5.15 486.48-6 486.93-6.85 487.85-7.8 488.78-8.75 490.18-9.75L490.18-9.75 493.23-8.75Q493.13-8.7 492.68-8.25 492.23-7.8 491.83-7.23 491.43-6.65 491.43-6.15L491.43-6.15Q491.43-5.5 492.83-5.35 494.23-5.2 496.28-4.9L496.28-4.9Q498.38-4.6 499.83-3.93 501.28-3.25 502.08-2.05 502.88-0.85 502.88 1.15L502.88 1.15Q502.88 3.5 501.9 5.48 500.93 7.45 498.83 8.63 496.73 9.8 493.38 9.8ZM493.93-7.7L493.93-7.7Q490.98-7.7 489.28-8.83 487.58-9.95 486.85-11.88 486.13-13.8 486.13-16.25L486.13-16.25Q486.13-19.7 487.15-21.73 488.18-23.75 490.08-24.63 491.98-25.5 494.53-25.5L494.53-25.5Q495.18-25.5 495.95-25.35 496.73-25.2 497.43-24.9L497.43-24.9 498.38-22.7Q500.03-21.9 501.03-20.3 502.03-18.7 502.03-16.05L502.03-16.05Q502.03-13.35 501.2-11.5 500.38-9.65 498.6-8.68 496.83-7.7 493.93-7.7ZM494.18-11.5L494.18-11.5Q495.13-11.5 495.7-12.03 496.28-12.55 496.58-13.85 496.88-15.15 496.88-17.35L496.88-17.35Q496.88-19.85 496.28-20.85 495.68-21.85 494.33-21.85L494.33-21.85Q493.53-21.85 492.88-21.38 492.23-20.9 491.88-19.73 491.53-18.55 491.53-16.45L491.53-16.45Q491.53-14.7 491.75-13.6 491.98-12.5 492.55-12 493.13-11.5 494.18-11.5ZM501.88-20.7L501.88-20.7Q501.13-20.7 500-21.05 498.88-21.4 497.75-21.83 496.63-22.25 495.88-22.6 495.13-22.95 495.13-22.95L495.13-22.95 495.18-25.05 502.98-25.05Q503.23-24.7 503.38-24.08 503.53-23.45 503.53-22.6L503.53-22.6Q503.53-21.6 503.08-21.15 502.63-20.7 501.88-20.7Z"
                                                                            opacity="1" transform="matrix(1,0,0,1,0,0)"
                                                                            fill="black" class="slogan-text-1"
                                                                            id="SvgjsPath1010"></path>
                                                                    </svg>
                                                                </g>
                                                            </svg>
                                                        </g>
                                                    </svg>
                                                </g>
                                            </svg>
                                        </g>
                                        <g transform="matrix(1,0,0,1,0,3.920341924002635)">
                                            <svg viewBox="0 0 100.64759018128379 76.99875701380913"
                                                 height="76.99875701380913" width="100.64759018128379">
                                                <g>
                                                    <svg xmlns="http://www.w3.org/2000/svg" version="1.1" x="8" y="0"
                                                         viewBox="0 0 99.99900055892094 90.963"
                                                         enable-background="new 0 0 100 90.963" xml:space="preserve"
                                                         width="84.64759018128379" height="76.99875701380913"
                                                         class="icon-icon-0" data-fill-palette-color="accent"
                                                         id="SvgjsSvg1009"><path d="M8.984 21.367v40.338H2.988C1.341 61.706 0 60.352 0 58.711V6.732l3.861-5.143C4.518 0.716 5.951 0 7.044 0h7.923c1.094 0 2.891 0 3.978 0h7.923c1.094 0 2.526 0.716 3.184 1.589l3.86 5.143H79.05c1.641 0 2.981 1.341 2.981 2.982v11.653H42.897l-3.86-5.143c-0.658-0.873-2.09-1.588-3.184-1.588H27.93c-1.094 0-2.884 0-3.978 0h-7.923c-1.094 0-2.526 0.716-3.184 1.588L8.984 21.367z" fill="black"></path><path
                                                        d="M97.012 35.99h-45.13l-3.868-5.13c-0.657-0.872-2.09-1.588-3.177-1.588h-7.923c-1.094 0-2.884 0-3.984 0h-7.917c-1.094 0-2.526 0.716-3.184 1.588l-3.861 5.13v51.992c0 1.641 1.341 2.981 2.975 2.981h76.068c1.647 0 2.988-1.341 2.988-2.981V38.984C100 37.331 98.659 35.99 97.012 35.99z"
                                                        fill="black"></path></svg>
                                                </g>
                                            </svg>
                                        </g>
                                    </svg>
                                </g>
                                <defs>
                                    <mask></mask>
                                </defs>
                            </svg>
                            <rect width="395.52" height="64.69182171311381" fill="black" stroke="none"
                                  visibility="hidden"></rect>
                        </g>
                    </mask>
                    <linearGradient x1="0.054" x2="0.941" y1="0.5" y2="0.5" id="f55c197f-821a-40d7-b9f7-34016dbfebd2">
                        <stop stop-color="#0f3054" offset="0"></stop>
                        <stop stop-color="#3b8dcb" offset="0.498"></stop>
                        <stop stop-color="#0f3054" offset="1"></stop>
                    </linearGradient>
                    <rect width="395.52" height="64.69182171311381" fill="#ffffff"
                          mask="url(#98a0b749-b9f6-4bb3-b7ad-c9a7f572c381)" data-fill-palette-color="primary"></rect>
                </svg>
                <rect width="395.52" height="64.69182171311381" fill="none" stroke="none" visibility="hidden"></rect>
            </g>
        </svg>
    </g>
</svg>
