<svg xmlns="http://www.w3.org/2000/svg" version="1.1" xmlns:xlink="http://www.w3.org/1999/xlink" xmlns:svgjs="http://svgjs.dev/svgjs" width="1500" height="268" viewBox="0 0 1500 268"><g transform="matrix(1,0,0,1,-0.9090909090909918,-1.2073013966567316)"><svg viewBox="0 0 396 71" data-background-color="#ffffff" preserveAspectRatio="xMidYMid meet" height="268" width="1500" xmlns="http://www.w3.org/2000/svg" xmlns:xlink="http://www.w3.org/1999/xlink"><g id="tight-bounds" transform="matrix(1,0,0,1,0.2400000000000091,0.3198447729948839)"><svg viewBox="0 0 395.52 70.36031045401023" height="70.36031045401023" width="395.52"><g><svg viewBox="0 0 495.87627508549065 88.21300733665379" height="70.36031045401023" width="395.52"><g transform="matrix(1,0,0,1,100.3562750854907,18.580133973482987)"><svg viewBox="0 0 395.52 51.052739389687815" height="51.052739389687815" width="395.52"><g id="textblocktransform"><svg viewBox="0 0 395.52 51.052739389687815" height="51.052739389687815" width="395.52" id="textblock"><g><svg viewBox="0 0 395.52 51.052739389687815" height="51.052739389687815" width="395.52"><g transform="matrix(1,0,0,1,0,0)"><svg width="395.52" viewBox="2 -34.25 285.07 36.8" height="51.052739389687815" data-palette-color="#2663eb"><path d="M9.9-16.95L9.9-16.95Q15.8-17.5 18.57-19.73 21.35-21.95 21.35-24.13 21.35-26.3 19.2-27.33 17.05-28.35 13.75-28.35L13.75-28.35Q12-28.35 10.2-28.05L10.2-28.05Q9.9-25.9 9.9-16.95ZM10.45 0.3Q9.9 0.85 8.25 1.18 6.6 1.5 5.5 1.5 4.4 1.5 3.6 1.2L3.6 1.2 3.9-27.65Q3.25-28.45 2.63-30.3 2-32.15 2-32.58 2-33 2.1-33.13 2.2-33.25 5.28-33.43 8.35-33.6 11.5-33.6 14.65-33.6 17.1-33.25 19.55-32.9 22.2-32.02 24.85-31.15 26.4-29.25 27.95-27.35 27.95-24.38 27.95-21.4 25.85-18.85 23.75-16.3 20.15-14.55L20.15-14.55Q20.15-13.75 23.3-7.38 26.45-1 28.3 0.85L28.3 0.85Q28.35 0.9 28.35 1.03 28.35 1.15 27.55 1.5L27.55 1.5Q25.35 2.55 22.8 2.55L22.8 2.55 21.55 2.45Q20.45 1.35 17.73-4.85 15-11.05 14.7-12.45L14.7-12.45Q14.1-12.1 9.95-11.4L9.95-11.4Q10.05-1.35 10.45 0.3L10.45 0.3ZM34-19.55L34-19.55 34.05-24.95Q34.05-27.1 33.95-27.3L33.95-27.3Q33.4-27.85 32.52-29.95 31.65-32.05 31.65-32.65L31.65-32.65Q32.2-33.2 49.2-33.2L49.2-33.2Q53.4-33.2 53.4-33L53.4-33Q53.4-31.95 52.92-30.7 52.45-29.45 51.92-28.7 51.4-27.95 51.17-28.03 50.95-28.1 49.12-28.1 47.3-28.1 44.05-27.88 40.8-27.65 40.5-27.35 40.2-27.05 40.2-21.85L40.2-21.85 40.25-19.75Q42.25-19.8 46.15-19.8 50.05-19.8 50.05-19.65L50.05-19.65Q50.05-17.85 48.85-15.55L48.85-15.55Q48.4-14.75 48.3-14.8L48.3-14.8Q47-14.8 43.85-14.58 40.7-14.35 40.2-14.05L40.2-14.05Q40.15-14 40.15-9.85 40.15-5.7 40.4-5.45L40.4-5.45Q41.2-4.65 49-4.65L49-4.65Q52.15-4.65 53.25-4.83 54.35-5 54.35-4.95L54.35-4.95Q54.35-3.75 53.55-2.1 52.75-0.45 51.85 0.4L51.85 0.4Q51.35 0.9 42.87 0.9 34.4 0.9 34.1 0.5L34.1 0.5Q33.8 0.25 33.8-4.33 33.8-8.9 33.9-14L33.9-14Q33-14.8 32.17-16.5 31.35-18.2 31.35-19.4L31.35-19.4Q31.35-19.45 34-19.55ZM60.84 1.5L60.84 1.5Q59.84 1.5 59.05 1.2L59.05 1.2 59.05-0.3Q59.05-7.95 59.55-22.5L59.55-22.5 59.74-27.35Q59.09-28.2 58.47-30.03 57.84-31.85 57.84-32.27 57.84-32.7 57.95-32.8 58.05-32.9 60.47-33.08 62.89-33.25 65.47-33.25 68.05-33.25 68.34-33L68.34-33Q77.19-13.2 77.37-12.8 77.55-12.4 77.64-12.4L77.64-12.4 77.84-12.75 77.84-14.15Q77.84-18.4 77.57-24.75 77.3-31.1 77-32.65L77-32.65Q77.69-33.3 79.57-33.77 81.44-34.25 82.97-34.25 84.5-34.25 84.5-34L84.5-34Q84.5-33 84.14-31.65 83.8-30.3 83.8-30.25L83.8-30.25Q83.44-28 83.44-23.23 83.44-18.45 83.47-16.35 83.5-14.25 83.52-12.33 83.55-10.4 83.59-8.53 83.64-6.65 83.64-5.1L83.64-5.1Q83.75-1.8 83.75-0.5L83.75-0.5 83.8 0.2Q83.8 0.35 83.14 0.6L83.14 0.6Q81.19 1.4 77.89 1.4L77.89 1.4 76.05 1.2Q74.05-4.45 70.19-13.05 66.34-21.65 65.89-22.33 65.44-23 65.34-23L65.34-23 65.19-22.65Q65-21.25 65-16.63 65-12 65.22-6.55 65.44-1.1 65.75 0.3L65.75 0.3Q64.39 1.5 60.84 1.5ZM102.59 1.5L102.59 1.5Q95.14 1.5 91.57-2.8 87.99-7.1 87.99-13.6L87.99-13.6Q87.99-16.75 88.74-19.5 89.49-22.25 90.14-23.4 90.79-24.55 91.19-24.78 91.59-25 94.34-25L94.34-25 95.29-25Q95.29-27.5 96.27-29.35 97.24-31.2 98.79-32.1L98.79-32.1Q101.69-33.75 104.29-33.75L104.29-33.75Q118.19-33.75 118.19-16.25L118.19-16.25Q118.19-10.8 116.34-6.55L116.34-6.55Q115.29-4.15 113.59-2.43 111.89-0.7 109.07 0.4 106.24 1.5 102.59 1.5ZM111.74-16.65L111.74-16.65Q111.74-28.4 104.74-28.4L104.74-28.4Q102.74-28.4 101.67-27.25 100.59-26.1 100.59-24.33 100.59-22.55 101.72-20.15 102.84-17.75 103.99-16.35L103.99-16.35 105.09-14.95Q105.09-14.35 103.24-13.83 101.39-13.3 100.29-13.3L100.29-13.3Q100.04-13.3 99.27-14.25 98.49-15.2 97.47-17.18 96.44-19.15 95.99-21.35L95.99-21.35Q95.24-20.6 94.79-18.3 94.34-16 94.34-13.85L94.34-13.85Q94.34-9.65 96.69-6.68 99.04-3.7 102.64-3.7L102.64-3.7Q111.74-3.7 111.74-16.65ZM149.34-8.55Q150.79-10 151.79-12.48 152.79-14.95 152.79-17.75 152.79-20.55 151.79-22.53 150.79-24.5 149.44-25.53 148.09-26.55 146.34-27.2L146.34-27.2Q143.64-28.2 141.19-28.2L141.19-28.2Q140.54-28.2 140.54-28.15L140.54-28.15Q140.19-27.8 140.19-16.35 140.19-4.9 140.54-4.55L140.54-4.55Q140.64-4.45 141.26-4.45 141.89-4.45 143.16-4.8 144.44-5.15 146.16-6.13 147.89-7.1 149.34-8.55ZM133.84-7.6L133.84-7.6 133.99-27.35Q133.44-28.2 132.59-30.38 131.74-32.55 131.74-32.98 131.74-33.4 131.79-33.45L131.79-33.45Q132.29-33.95 137.69-33.95L137.69-33.95Q148.09-33.95 153.76-29.6 159.44-25.25 159.44-17.95L159.44-17.95Q159.44-14.35 158.29-11.33 157.14-8.3 155.21-6.23 153.29-4.15 150.91-2.58 148.54-1 145.89-0.1L145.89-0.1Q140.69 1.6 136.44 1.6L136.44 1.6Q134.44 1.6 134.14 1.3 133.84 1 133.84-7.6ZM171.84-4.45L171.84-4.45Q172.03-4.45 172.03-1.98 172.03 0.5 171.74 0.5L171.74 0.5Q164.49 0.5 161.34 1.2L161.34 1.2Q161.19 1.2 161.19-1 161.19-3.2 161.53-3.65L161.53-3.65Q162.13-3.95 163.49-3.95L163.49-3.95Q163.38-5.65 163.38-16.07 163.38-26.5 163.63-28L163.63-28 163.53-28Q162.19-28 161.28-27.7L161.28-27.7Q161.19-27.7 161.19-29.98 161.19-32.25 161.49-32.55L161.49-32.55Q161.78-32.85 165.49-33.1 169.19-33.35 171.69-33.35L171.69-33.35Q171.84-33.35 171.84-32.55L171.84-32.55 171.69-28.85Q171.69-28.65 171.53-28.65L171.53-28.65Q169.84-28.65 169.74-28.58 169.63-28.5 169.59-26.5L169.59-26.5Q169.38-18.6 169.38-12.83 169.38-7.05 169.78-4.4L169.78-4.4Q170.44-4.45 171.84-4.45ZM179.28 1.5L179.28 1.5Q178.28 1.5 177.48 1.2L177.48 1.2 177.48-0.3Q177.48-7.95 177.98-22.5L177.98-22.5 178.18-27.35Q177.53-28.2 176.91-30.03 176.28-31.85 176.28-32.27 176.28-32.7 176.38-32.8 176.48-32.9 178.91-33.08 181.33-33.25 183.91-33.25 186.48-33.25 186.78-33L186.78-33Q195.63-13.2 195.81-12.8 195.98-12.4 196.08-12.4L196.08-12.4 196.28-12.75 196.28-14.15Q196.28-18.4 196.01-24.75 195.73-31.1 195.43-32.65L195.43-32.65Q196.13-33.3 198.01-33.77 199.88-34.25 201.41-34.25 202.93-34.25 202.93-34L202.93-34Q202.93-33 202.58-31.65 202.23-30.3 202.23-30.25L202.23-30.25Q201.88-28 201.88-23.23 201.88-18.45 201.91-16.35 201.93-14.25 201.96-12.33 201.98-10.4 202.03-8.53 202.08-6.65 202.08-5.1L202.08-5.1Q202.18-1.8 202.18-0.5L202.18-0.5 202.23 0.2Q202.23 0.35 201.58 0.6L201.58 0.6Q199.63 1.4 196.33 1.4L196.33 1.4 194.48 1.2Q192.48-4.45 188.63-13.05 184.78-21.65 184.33-22.33 183.88-23 183.78-23L183.78-23 183.63-22.65Q183.43-21.25 183.43-16.63 183.43-12 183.66-6.55 183.88-1.1 184.18 0.3L184.18 0.3Q182.83 1.5 179.28 1.5ZM225.58-28.55L225.58-28.55Q224.78-28.65 223.75-28.65 222.73-28.65 221.25-28.45 219.78-28.25 218.21-27.83 216.63-27.4 215.63-26.5 214.63-25.6 214.63-24.33 214.63-23.05 216.16-22.08 217.68-21.1 219.83-20.28 221.98-19.45 224.16-18.4 226.33-17.35 227.86-15.33 229.38-13.3 229.38-10.45L229.38-10.45Q229.38-5.4 224.56-1.88 219.73 1.65 212.38 1.65L212.38 1.65Q208.68 1.65 206.88 1.25L206.88 1.25Q206.43 0.8 206.43-4.13 206.43-9.05 206.63-10.05L206.63-10.05Q206.78-10.5 208.38-11.15 209.98-11.8 211.48-11.8L211.48-11.8Q211.48-5.9 212.73-4.65L212.73-4.65Q213.23-4.15 214.63-4.15L214.63-4.15Q217.83-4.15 220.21-5.95 222.58-7.75 222.58-10.2L222.58-10.2Q222.58-11.85 221.03-13.1 219.48-14.35 217.25-15.28 215.03-16.2 212.83-17.23 210.63-18.25 209.08-20.05 207.53-21.85 207.53-24.3L207.53-24.3Q207.53-27.95 211.91-30.98 216.28-34 224.58-34L224.58-34Q226.53-34 226.78-33.75L226.78-33.75Q226.83-33.6 226.83-33.02 226.83-32.45 226.48-30.8 226.13-29.15 225.58-28.55ZM246.53 1.5L246.53 1.5Q239.08 1.5 235.5-2.8 231.93-7.1 231.93-13.6L231.93-13.6Q231.93-16.75 232.68-19.5 233.43-22.25 234.08-23.4 234.73-24.55 235.13-24.78 235.53-25 238.28-25L238.28-25 239.23-25Q239.23-27.5 240.2-29.35 241.18-31.2 242.73-32.1L242.73-32.1Q245.63-33.75 248.23-33.75L248.23-33.75Q262.13-33.75 262.13-16.25L262.13-16.25Q262.13-10.8 260.28-6.55L260.28-6.55Q259.23-4.15 257.53-2.43 255.83-0.7 253 0.4 250.18 1.5 246.53 1.5ZM255.68-16.65L255.68-16.65Q255.68-28.4 248.68-28.4L248.68-28.4Q246.68-28.4 245.6-27.25 244.53-26.1 244.53-24.33 244.53-22.55 245.65-20.15 246.78-17.75 247.93-16.35L247.93-16.35 249.03-14.95Q249.03-14.35 247.18-13.83 245.33-13.3 244.23-13.3L244.23-13.3Q243.98-13.3 243.2-14.25 242.43-15.2 241.4-17.18 240.38-19.15 239.93-21.35L239.93-21.35Q239.18-20.6 238.73-18.3 238.28-16 238.28-13.85L238.28-13.85Q238.28-9.65 240.63-6.68 242.98-3.7 246.58-3.7L246.58-3.7Q255.68-3.7 255.68-16.65ZM283.27-28.55L283.27-28.55Q282.48-28.65 281.45-28.65 280.43-28.65 278.95-28.45 277.48-28.25 275.9-27.83 274.32-27.4 273.32-26.5 272.32-25.6 272.32-24.33 272.32-23.05 273.85-22.08 275.38-21.1 277.52-20.28 279.68-19.45 281.85-18.4 284.02-17.35 285.55-15.33 287.07-13.3 287.07-10.45L287.07-10.45Q287.07-5.4 282.25-1.88 277.43 1.65 270.07 1.65L270.07 1.65Q266.38 1.65 264.57 1.25L264.57 1.25Q264.13 0.8 264.13-4.13 264.13-9.05 264.32-10.05L264.32-10.05Q264.48-10.5 266.07-11.15 267.68-11.8 269.18-11.8L269.18-11.8Q269.18-5.9 270.43-4.65L270.43-4.65Q270.93-4.15 272.32-4.15L272.32-4.15Q275.52-4.15 277.9-5.95 280.27-7.75 280.27-10.2L280.27-10.2Q280.27-11.85 278.73-13.1 277.18-14.35 274.95-15.28 272.73-16.2 270.52-17.23 268.32-18.25 266.77-20.05 265.23-21.85 265.23-24.3L265.23-24.3Q265.23-27.95 269.6-30.98 273.98-34 282.27-34L282.27-34Q284.23-34 284.48-33.75L284.48-33.75Q284.52-33.6 284.52-33.02 284.52-32.45 284.18-30.8 283.82-29.15 283.27-28.55Z" opacity="1" transform="matrix(1,0,0,1,0,0)" fill="#2663eb" class="wordmark-text-0" data-fill-palette-color="primary" id="text-0"></path></svg></g></svg></g></svg></g></svg></g><g><svg viewBox="0 0 88.30394858133076 88.21300733665379" height="88.21300733665379" width="88.30394858133076"><g><svg xmlns="http://www.w3.org/2000/svg" xmlns:xlink="http://www.w3.org/1999/xlink" version="1.1" x="0" y="0" viewBox="1.6 1.6 97.10000000000001 97" enable-background="new 0 0 100 100" xml:space="preserve" height="88.21300733665379" width="88.30394858133076" class="icon-icon-0" data-fill-palette-color="accent" id="icon-0"><path d="M89.3 40.8C85.3 40.8 81.9 43.3 80.7 46.9H68.7C68.2 44 67.1 41.3 65.4 39L73.9 30.5C77.3 32.2 81.6 31.6 84.4 28.7 88 25.1 88 19.3 84.4 15.7S75 12.1 71.4 15.7C68.6 18.5 68 22.7 69.6 26.1L61.1 34.6C58.8 33 56.2 31.8 53.3 31.4V19.4C56.8 18.1 59.4 14.7 59.4 10.8 59.4 5.7 55.3 1.6 50.2 1.6S41 5.7 41 10.8C41 14.8 43.6 18.2 47.2 19.5V31.5C44.3 32 41.6 33.1 39.3 34.8L30.8 26.3C32.4 22.9 31.8 18.7 29 15.9 25.4 12.3 19.6 12.3 16 15.9S12.4 25.3 16 28.9C18.8 31.7 23.1 32.3 26.5 30.7L35 39.2C33.3 41.5 32.2 44.2 31.7 47.1H19.4C18.1 43.6 14.7 41 10.8 41 5.7 41 1.6 45.1 1.6 50.2S5.7 59.4 10.8 59.4C14.8 59.4 18.2 56.8 19.5 53.2H31.5C32 56.1 33.1 58.8 34.7 61.1L26.2 69.6C22.8 68 18.6 68.6 15.8 71.4 12.2 75 12.2 80.8 15.8 84.4S25.2 88 28.8 84.4C31.6 81.6 32.2 77.3 30.6 73.9L39.1 65.4C41.4 67.1 44.2 68.2 47.1 68.7V80.7C43.5 81.9 40.9 85.4 40.9 89.4 40.9 94.5 45 98.6 50.1 98.6S59.3 94.5 59.3 89.4C59.3 85.4 56.8 82 53.2 80.8V68.8C56.1 68.3 58.8 67.2 61.1 65.5L69.6 74C67.9 77.4 68.5 81.7 71.4 84.5 75 88.1 80.8 88.1 84.4 84.5S88 75.1 84.4 71.5C81.6 68.7 77.4 68.1 74 69.7L65.5 61.2C67.2 58.9 68.3 56.2 68.8 53.3H80.8C82 56.9 85.5 59.5 89.5 59.5 94.6 59.5 98.7 55.4 98.7 50.3 98.4 44.9 94.3 40.8 89.3 40.8M75.4 19.9C76.7 18.6 78.8 18.6 80.1 19.9S81.4 23.3 80.1 24.6A3.32 3.32 0 0 1 75.4 24.6 3.32 3.32 0 0 1 75.4 19.9M24.6 24.6A3.32 3.32 0 0 1 19.9 24.6C18.6 23.3 18.6 21.2 19.9 19.9S23.3 18.6 24.6 19.9 25.9 23.3 24.6 24.6M10.7 53.3C8.9 53.3 7.4 51.8 7.4 50S8.9 46.7 10.7 46.7 14 48.2 14 50 12.6 53.3 10.7 53.3M24.6 80.1A3.32 3.32 0 0 1 19.9 80.1 3.32 3.32 0 0 1 19.9 75.4C21.2 74.1 23.3 74.1 24.6 75.4S25.9 78.8 24.6 80.1M46.7 10.7C46.7 8.9 48.2 7.4 50 7.4S53.3 8.9 53.3 10.7 51.8 14 50 14C48.2 14.1 46.7 12.6 46.7 10.7M53.3 89.3C53.3 91.1 51.8 92.6 50 92.6S46.7 91.1 46.7 89.3 48.2 86 50 86C51.8 85.9 53.3 87.4 53.3 89.3M60.1 58.9C57.3 56.7 54.4 55.2 53.8 54.9 53.7 54.9 53.7 54.8 53.7 54.7V52.8C54 52.2 54.2 51.6 54.3 51 54.4 51 54.4 51.1 54.5 51.1 54.8 51.1 55.1 50.8 55.5 49.5S55.6 47.7 55.3 47.6C56.4 42.5 53.9 42.3 53.9 42.3S53.5 41.6 52.6 41.1C52 40.8 51.3 40.5 50.3 40.5H49.8C49.4 40.5 49.1 40.6 48.7 40.7S47.9 41.1 47.5 41.3C47.1 41.6 46.6 41.9 46.3 42.3 45.7 42.9 45.2 43.7 45 44.6 44.8 45.4 44.8 46.3 45.1 47.2H45C44.6 47.2 44.2 47.5 44.6 49.1 45 50.4 45.3 50.7 45.5 50.7 45.6 51.4 45.8 52.2 46.3 52.9V54.5C46.3 54.6 46.3 54.6 46.2 54.7 45.6 55 42.7 56.4 40 58.6 37.9 56.2 36.7 53.2 36.7 49.8 36.7 42.4 42.7 36.4 50.1 36.4S63.5 42.4 63.5 49.8C63.4 53.4 62.2 56.5 60.1 58.9M75.4 75.4C76.7 74.1 78.8 74.1 80.1 75.4S81.4 78.8 80.1 80.1A3.32 3.32 0 0 1 75.4 80.1 3.32 3.32 0 0 1 75.4 75.4M89.3 53.3C87.5 53.3 86 51.8 86 50S87.5 46.7 89.3 46.7 92.6 48.2 92.6 50 91.1 53.3 89.3 53.3" fill="#2663eb" data-fill-palette-color="accent"></path></svg></g></svg></g></svg></g><defs></defs></svg><rect width="395.52" height="70.36031045401023" fill="none" stroke="none" visibility="hidden"></rect></g></svg></g></svg>